<?xml version="1.0" encoding="UTF-8" standalone="no"?>
<!DOCTYPE svg PUBLIC "-//W3C//DTD SVG 1.1//EN"
 "http://www.w3.org/Graphics/SVG/1.1/DTD/svg11.dtd">
<!-- Generated by graphviz version 3.0.0 (20220226.1711)
 -->
<!-- Pages: 1 -->
<svg width="770pt" height="270pt"
 viewBox="0.00 0.00 770.00 270.00" xmlns="http://www.w3.org/2000/svg" xmlns:xlink="http://www.w3.org/1999/xlink">
<g id="graph0" class="graph" transform="scale(1 1) rotate(0) translate(4 266)">
<polygon fill="white" stroke="transparent" points="-4,4 -4,-266 766,-266 766,4 -4,4"/>
<text text-anchor="middle" x="381" y="-246.8" font-family="Times New Roman,serif" font-size="14.00">generators Class Diagram</text>
<!-- DiagramsGenerator -->
<g id="node1" class="node">
<title>DiagramsGenerator</title>
<polygon fill="none" stroke="black" points="9,-163.5 9,-184.5 301,-184.5 301,-163.5 9,-163.5"/>
<text text-anchor="start" x="12" y="-171.3" font-family="Times New Roman,serif" font-weight="bold" font-size="14.00">DiagramsGenerator</text>
<polygon fill="none" stroke="black" points="9,-115.5 9,-163.5 301,-163.5 301,-115.5 9,-115.5"/>
<text text-anchor="start" x="31.5" y="-150.3" font-family="Times New Roman,serif" font-weight="bold" font-size="14.00">properties</text>
<text text-anchor="start" x="22" y="-136.3" font-family="Times New Roman,serif" font-size="14.00">+ indexHTML</text>
<text text-anchor="start" x="12" y="-122.3" font-family="Times New Roman,serif" font-size="14.00">+ diagramsHTML</text>
<polygon fill="none" stroke="black" points="9,-53.5 9,-115.5 301,-115.5 301,-53.5 9,-53.5"/>
<text text-anchor="start" x="129" y="-102.3" font-family="Times New Roman,serif" font-weight="bold" font-size="14.00">methods</text>
<text text-anchor="start" x="75.5" y="-88.3" font-family="Times New Roman,serif" font-size="14.00">+ constructor (indexHTML)</text>
<text text-anchor="start" x="28.5" y="-74.3" font-family="Times New Roman,serif" font-size="14.00">+ createDiagramsHtml (outDir, moduleArray)</text>
<text text-anchor="start" x="12" y="-60.3" font-family="Times New Roman,serif" font-size="14.00">+ generateSvgSection (title, svgFileName, linkText)</text>
<polygon fill="none" stroke="black" points="8,-53 8,-186 302,-186 302,-53 8,-53"/>
</g>
<!-- HtmlGenerator -->
<g id="node2" class="node">
<title>HtmlGenerator</title>
<polygon fill="none" stroke="black" points="337,-212.5 337,-233.5 753,-233.5 753,-212.5 337,-212.5"/>
<text text-anchor="start" x="340" y="-220.3" font-family="Times New Roman,serif" font-weight="bold" font-size="14.00">HtmlGenerator</text>
<polygon fill="none" stroke="black" points="337,-178.5 337,-212.5 753,-212.5 753,-178.5 337,-178.5"/>
<text text-anchor="start" x="358.5" y="-199.3" font-family="Times New Roman,serif" font-weight="bold" font-size="14.00">properties</text>
<text text-anchor="start" x="340" y="-185.3" font-family="Times New Roman,serif" font-size="14.00">&#45; #diagramHTML</text>
<polygon fill="none" stroke="black" points="337,-4.5 337,-178.5 753,-178.5 753,-4.5 337,-4.5"/>
<text text-anchor="start" x="519" y="-165.3" font-family="Times New Roman,serif" font-weight="bold" font-size="14.00">methods</text>
<text text-anchor="start" x="458.5" y="-151.3" font-family="Times New Roman,serif" font-size="14.00">+ constructor (diagramHTML)</text>
<text text-anchor="start" x="340" y="-137.3" font-family="Times New Roman,serif" font-size="14.00">+ createModuleHtml (symbol, moduleArray, dependencyList, exportList)</text>
<text text-anchor="start" x="377.5" y="-123.3" font-family="Times New Roman,serif" font-size="14.00">+ generateSummarySection (moduleArray, dependencyList)</text>
<text text-anchor="start" x="409.5" y="-109.3" font-family="Times New Roman,serif" font-size="14.00">+ generateModuleSummaryTable (moduleArray)</text>
<text text-anchor="start" x="403.5" y="-95.3" font-family="Times New Roman,serif" font-size="14.00">+ generateUnusedModulesTable (unusedModules)</text>
<text text-anchor="start" x="352.5" y="-81.3" font-family="Times New Roman,serif" font-size="14.00">+ generateModuleDetails (moduleArray, dependencyList, exportList)</text>
<text text-anchor="start" x="387.5" y="-67.3" font-family="Times New Roman,serif" font-size="14.00">+ generateExportsTable (exportList, usedList, fileName)</text>
<text text-anchor="start" x="388" y="-53.3" font-family="Times New Roman,serif" font-size="14.00">+ generateDependsOnTable (dependencyList, fileName)</text>
<text text-anchor="start" x="419.5" y="-39.3" font-family="Times New Roman,serif" font-size="14.00">+ generateUsedByTable (usedList, fileName)</text>
<text text-anchor="start" x="404.5" y="-25.3" font-family="Times New Roman,serif" font-size="14.00">+ generateNodeModulesSection (dependencyList)</text>
<text text-anchor="start" x="420" y="-11.3" font-family="Times New Roman,serif" font-size="14.00">+ getUniqueNodeModules (dependencyList)</text>
<polygon fill="none" stroke="black" points="336,-4 336,-235 754,-235 754,-4 336,-4"/>
</g>
</g>
</svg>
