<?xml version="1.0" encoding="UTF-8" standalone="no"?>
<!DOCTYPE svg PUBLIC "-//W3C//DTD SVG 1.1//EN"
 "http://www.w3.org/Graphics/SVG/1.1/DTD/svg11.dtd">
<!-- Generated by graphviz version 3.0.0 (20220226.1711)
 -->
<!-- Pages: 1 -->
<svg width="770pt" height="256pt"
 viewBox="0.00 0.00 770.00 256.00" xmlns="http://www.w3.org/2000/svg" xmlns:xlink="http://www.w3.org/1999/xlink">
<g id="graph0" class="graph" transform="scale(1 1) rotate(0) translate(4 252)">
<polygon fill="white" stroke="transparent" points="-4,4 -4,-252 766,-252 766,4 -4,4"/>
<text text-anchor="middle" x="381" y="-232.8" font-family="Times New Roman,serif" font-size="14.00">generators Class Diagram</text>
<!-- DiagramsGenerator -->
<g id="node1" class="node">
<title>DiagramsGenerator</title>
<polygon fill="none" stroke="black" points="9,-156.5 9,-177.5 301,-177.5 301,-156.5 9,-156.5"/>
<text text-anchor="start" x="12" y="-164.3" font-family="Times New Roman,serif" font-weight="bold" font-size="14.00">DiagramsGenerator</text>
<polygon fill="none" stroke="black" points="9,-108.5 9,-156.5 301,-156.5 301,-108.5 9,-108.5"/>
<text text-anchor="start" x="31.5" y="-143.3" font-family="Times New Roman,serif" font-weight="bold" font-size="14.00">properties</text>
<text text-anchor="start" x="22" y="-129.3" font-family="Times New Roman,serif" font-size="14.00">+ indexHTML</text>
<text text-anchor="start" x="12" y="-115.3" font-family="Times New Roman,serif" font-size="14.00">+ diagramsHTML</text>
<polygon fill="none" stroke="black" points="9,-46.5 9,-108.5 301,-108.5 301,-46.5 9,-46.5"/>
<text text-anchor="start" x="129" y="-95.3" font-family="Times New Roman,serif" font-weight="bold" font-size="14.00">methods</text>
<text text-anchor="start" x="75.5" y="-81.3" font-family="Times New Roman,serif" font-size="14.00">+ constructor (indexHTML)</text>
<text text-anchor="start" x="41.5" y="-67.3" font-family="Times New Roman,serif" font-size="14.00">+ createDiagramsHtml (outDir, dirArray)</text>
<text text-anchor="start" x="12" y="-53.3" font-family="Times New Roman,serif" font-size="14.00">+ generateSvgSection (title, svgFileName, linkText)</text>
<polygon fill="none" stroke="black" points="8,-46 8,-179 302,-179 302,-46 8,-46"/>
</g>
<!-- HtmlGenerator -->
<g id="node2" class="node">
<title>HtmlGenerator</title>
<polygon fill="none" stroke="black" points="337,-198.5 337,-219.5 753,-219.5 753,-198.5 337,-198.5"/>
<text text-anchor="start" x="340" y="-206.3" font-family="Times New Roman,serif" font-weight="bold" font-size="14.00">HtmlGenerator</text>
<polygon fill="none" stroke="black" points="337,-164.5 337,-198.5 753,-198.5 753,-164.5 337,-164.5"/>
<text text-anchor="start" x="358.5" y="-185.3" font-family="Times New Roman,serif" font-weight="bold" font-size="14.00">properties</text>
<text text-anchor="start" x="340" y="-171.3" font-family="Times New Roman,serif" font-size="14.00">&#45; #diagramHTML</text>
<polygon fill="none" stroke="black" points="337,-4.5 337,-164.5 753,-164.5 753,-4.5 337,-4.5"/>
<text text-anchor="start" x="519" y="-151.3" font-family="Times New Roman,serif" font-weight="bold" font-size="14.00">methods</text>
<text text-anchor="start" x="458.5" y="-137.3" font-family="Times New Roman,serif" font-size="14.00">+ constructor (diagramHTML)</text>
<text text-anchor="start" x="340" y="-123.3" font-family="Times New Roman,serif" font-size="14.00">+ createModuleHtml (symbol, moduleArray, dependencyList, exportList)</text>
<text text-anchor="start" x="377.5" y="-109.3" font-family="Times New Roman,serif" font-size="14.00">+ generateSummarySection (moduleArray, dependencyList)</text>
<text text-anchor="start" x="409.5" y="-95.3" font-family="Times New Roman,serif" font-size="14.00">+ generateModuleSummaryTable (moduleArray)</text>
<text text-anchor="start" x="403.5" y="-81.3" font-family="Times New Roman,serif" font-size="14.00">+ generateUnusedModulesTable (unusedModules)</text>
<text text-anchor="start" x="352.5" y="-67.3" font-family="Times New Roman,serif" font-size="14.00">+ generateModuleDetails (moduleArray, dependencyList, exportList)</text>
<text text-anchor="start" x="387.5" y="-53.3" font-family="Times New Roman,serif" font-size="14.00">+ generateExportsTable (exportList, usedList, fileName)</text>
<text text-anchor="start" x="388" y="-39.3" font-family="Times New Roman,serif" font-size="14.00">+ generateDependsOnTable (dependencyList, fileName)</text>
<text text-anchor="start" x="419.5" y="-25.3" font-family="Times New Roman,serif" font-size="14.00">+ generateUsedByTable (usedList, fileName)</text>
<text text-anchor="start" x="404.5" y="-11.3" font-family="Times New Roman,serif" font-size="14.00">+ generateNodeModulesSection (dependencyList)</text>
<polygon fill="none" stroke="black" points="336,-4 336,-221 754,-221 754,-4 336,-4"/>
</g>
</g>
</svg>
