<?xml version="1.0" encoding="UTF-8" standalone="no"?>
<!DOCTYPE svg PUBLIC "-//W3C//DTD SVG 1.1//EN"
 "http://www.w3.org/Graphics/SVG/1.1/DTD/svg11.dtd">
<!-- Generated by graphviz version 3.0.0 (20220226.1711)
 -->
<!-- Pages: 1 -->
<svg width="460pt" height="288pt"
 viewBox="0.00 0.00 460.00 288.00" xmlns="http://www.w3.org/2000/svg" xmlns:xlink="http://www.w3.org/1999/xlink">
<g id="graph0" class="graph" transform="scale(1 1) rotate(0) translate(4 284)">
<polygon fill="white" stroke="transparent" points="-4,4 -4,-284 456,-284 456,4 -4,4"/>
<text text-anchor="middle" x="226" y="-264.8" font-family="Times New Roman,serif" font-size="14.00">generators Module Exports</text>
<!-- generators/DiagramsGenerator.js -->
<g id="node1" class="node">
<title>generators/DiagramsGenerator.js</title>
<polygon fill="lightblue" stroke="transparent" points="9,-196 9,-217 223,-217 223,-196 9,-196"/>
<polygon fill="none" stroke="black" points="9,-196 9,-217 223,-217 223,-196 9,-196"/>
<text text-anchor="start" x="12" y="-203.8" font-family="Times New Roman,serif" font-weight="bold" font-size="14.00">generators/DiagramsGenerator.js</text>
<polygon fill="none" stroke="black" points="9,-175 9,-196 223,-196 223,-175 9,-175"/>
<text text-anchor="start" x="12" y="-181.8" font-family="Times New Roman,serif" font-size="14.00">DiagramsGenerator</text>
<polygon fill="none" stroke="black" points="9,-169 9,-175 223,-175 223,-169 9,-169"/>
<polygon fill="none" stroke="black" points="8,-168 8,-218 224,-218 224,-168 8,-168"/>
</g>
<!-- generators/DiagramsGenerator.js&#45;node_modules -->
<g id="node2" class="node">
<title>generators/DiagramsGenerator.js&#45;node_modules</title>
<polygon fill="none" stroke="black" points="72,-66.5 72,-87.5 161,-87.5 161,-66.5 72,-66.5"/>
<text text-anchor="start" x="75" y="-73.3" font-family="Times New Roman,serif" font-size="14.00">node_modules</text>
<polygon fill="none" stroke="black" points="72,-4.5 72,-66.5 161,-66.5 161,-4.5 72,-4.5"/>
<text text-anchor="start" x="111.5" y="-53.3" font-family="Times New Roman,serif" font-style="italic" font-size="14.00" fill="red">fs</text>
<text text-anchor="start" x="111" y="-39.3" font-family="Times New Roman,serif" font-size="14.00">fs</text>
<text text-anchor="start" x="103" y="-25.3" font-family="Times New Roman,serif" font-style="italic" font-size="14.00" fill="red">path</text>
<text text-anchor="start" x="104" y="-11.3" font-family="Times New Roman,serif" font-size="14.00">path</text>
<polygon fill="none" stroke="black" points="70.5,-4 70.5,-89 161.5,-89 161.5,-4 70.5,-4"/>
</g>
<!-- generators/DiagramsGenerator.js&#45;&gt;generators/DiagramsGenerator.js&#45;node_modules -->
<g id="edge1" class="edge">
<title>generators/DiagramsGenerator.js&#45;&gt;generators/DiagramsGenerator.js&#45;node_modules</title>
<path fill="none" stroke="black" d="M116,-163.8C116,-146.65 116,-124.16 116,-103.52"/>
<polygon fill="black" stroke="black" points="119.5,-103.26 116,-93.26 112.5,-103.26 119.5,-103.26"/>
</g>
<!-- generators/HtmlGenerator.js -->
<g id="node3" class="node">
<title>generators/HtmlGenerator.js</title>
<polygon fill="lightblue" stroke="transparent" points="259,-231 259,-252 443,-252 443,-231 259,-231"/>
<polygon fill="none" stroke="black" points="259,-231 259,-252 443,-252 443,-231 259,-231"/>
<text text-anchor="start" x="262" y="-238.8" font-family="Times New Roman,serif" font-weight="bold" font-size="14.00">generators/HtmlGenerator.js</text>
<polygon fill="none" stroke="black" points="259,-210 259,-231 443,-231 443,-210 259,-210"/>
<text text-anchor="start" x="262" y="-216.8" font-family="Times New Roman,serif" font-size="14.00">HtmlGenerator</text>
<polygon fill="none" stroke="black" points="259,-134 259,-210 443,-210 443,-134 259,-134"/>
<text text-anchor="start" x="308" y="-196.8" font-family="Times New Roman,serif" font-style="italic" font-size="14.00" fill="red">utils/list&#45;utils.js</text>
<text text-anchor="start" x="309.5" y="-182.8" font-family="Times New Roman,serif" font-size="14.00">getUsedByList</text>
<text text-anchor="start" x="309" y="-168.8" font-family="Times New Roman,serif" font-size="14.00">getDependsOn</text>
<text text-anchor="start" x="283" y="-154.8" font-family="Times New Roman,serif" font-size="14.00">getUniqueNodeModules</text>
<text text-anchor="start" x="306" y="-140.8" font-family="Times New Roman,serif" font-size="14.00">getExportedList</text>
<polygon fill="none" stroke="black" points="258,-133 258,-253 444,-253 444,-133 258,-133"/>
</g>
</g>
</svg>
