<?xml version="1.0" encoding="UTF-8" standalone="no"?>
<!DOCTYPE svg PUBLIC "-//W3C//DTD SVG 1.1//EN"
 "http://www.w3.org/Graphics/SVG/1.1/DTD/svg11.dtd">
<!-- Generated by graphviz version 3.0.0 (20220226.1711)
 -->
<!-- Pages: 1 -->
<svg width="460pt" height="144pt"
 viewBox="0.00 0.00 460.00 144.00" xmlns="http://www.w3.org/2000/svg" xmlns:xlink="http://www.w3.org/1999/xlink">
<g id="graph0" class="graph" transform="scale(1 1) rotate(0) translate(4 140)">
<polygon fill="white" stroke="transparent" points="-4,4 -4,-140 456,-140 456,4 -4,4"/>
<text text-anchor="middle" x="226" y="-120.8" font-family="Times New Roman,serif" font-size="14.00">generators Module Exports</text>
<!-- generators/DiagramsGenerator.js -->
<g id="node1" class="node">
<title>generators/DiagramsGenerator.js</title>
<polygon fill="lightblue" stroke="transparent" points="9,-79.5 9,-100.5 223,-100.5 223,-79.5 9,-79.5"/>
<polygon fill="none" stroke="black" points="9,-79.5 9,-100.5 223,-100.5 223,-79.5 9,-79.5"/>
<text text-anchor="start" x="12" y="-87.3" font-family="Times New Roman,serif" font-weight="bold" font-size="14.00">generators/DiagramsGenerator.js</text>
<polygon fill="none" stroke="black" points="9,-73.5 9,-79.5 223,-79.5 223,-73.5 9,-73.5"/>
<polygon fill="none" stroke="black" points="9,-11.5 9,-73.5 223,-73.5 223,-11.5 9,-11.5"/>
<text text-anchor="start" x="111" y="-60.3" font-family="Times New Roman,serif" font-style="italic" font-size="14.00" fill="red">fs</text>
<text text-anchor="start" x="110.5" y="-46.3" font-family="Times New Roman,serif" font-size="14.00">fs</text>
<text text-anchor="start" x="102.5" y="-32.3" font-family="Times New Roman,serif" font-style="italic" font-size="14.00" fill="red">path</text>
<text text-anchor="start" x="103.5" y="-18.3" font-family="Times New Roman,serif" font-size="14.00">path</text>
<polygon fill="none" stroke="black" points="8,-11 8,-102 224,-102 224,-11 8,-11"/>
</g>
<!-- generators/HtmlGenerator.js -->
<g id="node2" class="node">
<title>generators/HtmlGenerator.js</title>
<polygon fill="lightblue" stroke="transparent" points="259,-86.5 259,-107.5 443,-107.5 443,-86.5 259,-86.5"/>
<polygon fill="none" stroke="black" points="259,-86.5 259,-107.5 443,-107.5 443,-86.5 259,-86.5"/>
<text text-anchor="start" x="262" y="-94.3" font-family="Times New Roman,serif" font-weight="bold" font-size="14.00">generators/HtmlGenerator.js</text>
<polygon fill="none" stroke="black" points="259,-80.5 259,-86.5 443,-86.5 443,-80.5 259,-80.5"/>
<polygon fill="none" stroke="black" points="259,-4.5 259,-80.5 443,-80.5 443,-4.5 259,-4.5"/>
<text text-anchor="start" x="308" y="-67.3" font-family="Times New Roman,serif" font-style="italic" font-size="14.00" fill="red">utils/list&#45;utils.js</text>
<text text-anchor="start" x="309.5" y="-53.3" font-family="Times New Roman,serif" font-size="14.00">getUsedByList</text>
<text text-anchor="start" x="309" y="-39.3" font-family="Times New Roman,serif" font-size="14.00">getDependsOn</text>
<text text-anchor="start" x="295" y="-25.3" font-family="Times New Roman,serif" font-size="14.00">getNodeModuleList</text>
<text text-anchor="start" x="306" y="-11.3" font-family="Times New Roman,serif" font-size="14.00">getExportedList</text>
<polygon fill="none" stroke="black" points="258,-4 258,-109 444,-109 444,-4 258,-4"/>
</g>
</g>
</svg>
