<?xml version="1.0" encoding="UTF-8" standalone="no"?>
<!DOCTYPE svg PUBLIC "-//W3C//DTD SVG 1.1//EN"
 "http://www.w3.org/Graphics/SVG/1.1/DTD/svg11.dtd">
<!-- Generated by graphviz version 3.0.0 (20220226.1711)
 -->
<!-- Pages: 1 -->
<svg width="460pt" height="159pt"
 viewBox="0.00 0.00 460.00 159.00" xmlns="http://www.w3.org/2000/svg" xmlns:xlink="http://www.w3.org/1999/xlink">
<g id="graph0" class="graph" transform="scale(1 1) rotate(0) translate(4 155)">
<polygon fill="white" stroke="transparent" points="-4,4 -4,-155 456,-155 456,4 -4,4"/>
<text text-anchor="middle" x="226" y="-135.8" font-family="Times New Roman,serif" font-size="14.00">generators Module Exports</text>
<!-- generators/DiagramsGenerator.js -->
<g id="node1" class="node">
<title>generators/DiagramsGenerator.js</title>
<polygon fill="lightblue" stroke="transparent" points="9,-95 9,-116 223,-116 223,-95 9,-95"/>
<polygon fill="none" stroke="black" points="9,-95 9,-116 223,-116 223,-95 9,-95"/>
<text text-anchor="start" x="12" y="-102.8" font-family="Times New Roman,serif" font-weight="bold" font-size="14.00">generators/DiagramsGenerator.js</text>
<polygon fill="none" stroke="black" points="9,-74 9,-95 223,-95 223,-74 9,-74"/>
<text text-anchor="start" x="12" y="-80.8" font-family="Times New Roman,serif" font-size="14.00">DiagramsGenerator</text>
<polygon fill="none" stroke="black" points="9,-12 9,-74 223,-74 223,-12 9,-12"/>
<text text-anchor="start" x="111" y="-60.8" font-family="Times New Roman,serif" font-style="italic" font-size="14.00" fill="red">fs</text>
<text text-anchor="start" x="110.5" y="-46.8" font-family="Times New Roman,serif" font-size="14.00">fs</text>
<text text-anchor="start" x="102.5" y="-32.8" font-family="Times New Roman,serif" font-style="italic" font-size="14.00" fill="red">path</text>
<text text-anchor="start" x="103.5" y="-18.8" font-family="Times New Roman,serif" font-size="14.00">path</text>
<polygon fill="none" stroke="black" points="8,-11 8,-117 224,-117 224,-11 8,-11"/>
</g>
<!-- generators/HtmlGenerator.js -->
<g id="node2" class="node">
<title>generators/HtmlGenerator.js</title>
<polygon fill="lightblue" stroke="transparent" points="259,-102 259,-123 443,-123 443,-102 259,-102"/>
<polygon fill="none" stroke="black" points="259,-102 259,-123 443,-123 443,-102 259,-102"/>
<text text-anchor="start" x="262" y="-109.8" font-family="Times New Roman,serif" font-weight="bold" font-size="14.00">generators/HtmlGenerator.js</text>
<polygon fill="none" stroke="black" points="259,-81 259,-102 443,-102 443,-81 259,-81"/>
<text text-anchor="start" x="262" y="-87.8" font-family="Times New Roman,serif" font-size="14.00">HtmlGenerator</text>
<polygon fill="none" stroke="black" points="259,-5 259,-81 443,-81 443,-5 259,-5"/>
<text text-anchor="start" x="308" y="-67.8" font-family="Times New Roman,serif" font-style="italic" font-size="14.00" fill="red">utils/list&#45;utils.js</text>
<text text-anchor="start" x="309.5" y="-53.8" font-family="Times New Roman,serif" font-size="14.00">getUsedByList</text>
<text text-anchor="start" x="309" y="-39.8" font-family="Times New Roman,serif" font-size="14.00">getDependsOn</text>
<text text-anchor="start" x="283" y="-25.8" font-family="Times New Roman,serif" font-size="14.00">getUniqueNodeModules</text>
<text text-anchor="start" x="306" y="-11.8" font-family="Times New Roman,serif" font-size="14.00">getExportedList</text>
<polygon fill="none" stroke="black" points="258,-4 258,-124 444,-124 444,-4 258,-4"/>
</g>
</g>
</svg>
