<?xml version="1.0" encoding="UTF-8" standalone="no"?>
<!DOCTYPE svg PUBLIC "-//W3C//DTD SVG 1.1//EN"
 "http://www.w3.org/Graphics/SVG/1.1/DTD/svg11.dtd">
<!-- Generated by graphviz version 3.0.0 (20220226.1711)
 -->
<!-- Pages: 1 -->
<svg width="1730pt" height="475pt"
 viewBox="0.00 0.00 1730.00 475.00" xmlns="http://www.w3.org/2000/svg" xmlns:xlink="http://www.w3.org/1999/xlink">
<g id="graph0" class="graph" transform="scale(1 1) rotate(0) translate(4 471)">
<polygon fill="white" stroke="transparent" points="-4,4 -4,-471 1726,-471 1726,4 -4,4"/>
<text text-anchor="middle" x="861" y="-451.8" font-family="Times New Roman,serif" font-size="14.00">ast Class Diagram</text>
<!-- ASTProcessor -->
<g id="node1" class="node">
<title>ASTProcessor</title>
<polygon fill="none" stroke="black" points="9.5,-403.5 9.5,-424.5 200.5,-424.5 200.5,-403.5 9.5,-403.5"/>
<text text-anchor="start" x="12.5" y="-411.3" font-family="Times New Roman,serif" font-weight="bold" font-size="14.00">ASTProcessor</text>
<polygon fill="none" stroke="black" points="9.5,-299.5 9.5,-403.5 200.5,-403.5 200.5,-299.5 9.5,-299.5"/>
<text text-anchor="start" x="36" y="-390.3" font-family="Times New Roman,serif" font-weight="bold" font-size="14.00">properties</text>
<text text-anchor="start" x="12.5" y="-376.3" font-family="Times New Roman,serif" font-size="14.00">&#45; #importProcessor</text>
<text text-anchor="start" x="13" y="-362.3" font-family="Times New Roman,serif" font-size="14.00">&#45; #exportProcessor</text>
<text text-anchor="start" x="17" y="-348.3" font-family="Times New Roman,serif" font-size="14.00">&#45; #classProcessor</text>
<text text-anchor="start" x="20" y="-334.3" font-family="Times New Roman,serif" font-size="14.00">&#45; #errorCollector</text>
<text text-anchor="start" x="15" y="-320.3" font-family="Times New Roman,serif" font-size="14.00">&#45; #usageProcessor</text>
<text text-anchor="start" x="35.5" y="-306.3" font-family="Times New Roman,serif" font-size="14.00">&#45; #baseLoc</text>
<polygon fill="none" stroke="black" points="9.5,-251.5 9.5,-299.5 200.5,-299.5 200.5,-251.5 9.5,-251.5"/>
<text text-anchor="start" x="79" y="-286.3" font-family="Times New Roman,serif" font-weight="bold" font-size="14.00">methods</text>
<text text-anchor="start" x="36" y="-272.3" font-family="Times New Roman,serif" font-size="14.00">+ constructor (baseLoc)</text>
<text text-anchor="start" x="12.5" y="-258.3" font-family="Times New Roman,serif" font-size="14.00">+ processModules (moduleMap)</text>
<polygon fill="none" stroke="black" points="8,-251 8,-426 201,-426 201,-251 8,-251"/>
</g>
<!-- BaseProcessor -->
<g id="node2" class="node">
<title>BaseProcessor</title>
<polygon fill="none" stroke="black" points="789.5,-170.5 789.5,-191.5 1077.5,-191.5 1077.5,-170.5 789.5,-170.5"/>
<text text-anchor="start" x="792.5" y="-178.3" font-family="Times New Roman,serif" font-weight="bold" font-size="14.00">BaseProcessor</text>
<polygon fill="none" stroke="black" points="789.5,-136.5 789.5,-170.5 1077.5,-170.5 1077.5,-136.5 789.5,-136.5"/>
<text text-anchor="start" x="793" y="-157.3" font-family="Times New Roman,serif" font-weight="bold" font-size="14.00">properties</text>
<text text-anchor="start" x="792.5" y="-143.3" font-family="Times New Roman,serif" font-size="14.00">&#45; #baseLoc</text>
<polygon fill="none" stroke="black" points="789.5,-4.5 789.5,-136.5 1077.5,-136.5 1077.5,-4.5 789.5,-4.5"/>
<text text-anchor="start" x="907.5" y="-123.3" font-family="Times New Roman,serif" font-weight="bold" font-size="14.00">methods</text>
<text text-anchor="start" x="864.5" y="-109.3" font-family="Times New Roman,serif" font-size="14.00">+ constructor (baseLoc)</text>
<text text-anchor="start" x="837" y="-95.3" font-family="Times New Roman,serif" font-size="14.00">+ getParentNode (ast, targetNode)</text>
<text text-anchor="start" x="865.5" y="-81.3" font-family="Times New Roman,serif" font-size="14.00">+ skipNode (nodeType)</text>
<text text-anchor="start" x="797.5" y="-67.3" font-family="Times New Roman,serif" font-size="14.00">+ getAbsolutePath (currentFilePath, relativePath)</text>
<text text-anchor="start" x="837" y="-53.3" font-family="Times New Roman,serif" font-size="14.00">+ formatFunctionParams (params)</text>
<text text-anchor="start" x="842.5" y="-39.3" font-family="Times New Roman,serif" font-size="14.00">+ calRelSrcFile (src, relSrcPath)</text>
<text text-anchor="start" x="846" y="-25.3" font-family="Times New Roman,serif" font-size="14.00">+ countSubstrings (str, subStr)</text>
<text text-anchor="start" x="792.5" y="-11.3" font-family="Times New Roman,serif" font-size="14.00">+ replaceWithReversedArray (str, subStr, arr, cnt)</text>
<polygon fill="none" stroke="black" points="788.5,-4 788.5,-193 1078.5,-193 1078.5,-4 788.5,-4"/>
</g>
<!-- ClassProcessor -->
<g id="node3" class="node">
<title>ClassProcessor</title>
<polygon fill="none" stroke="black" points="236.5,-417.5 236.5,-438.5 493.5,-438.5 493.5,-417.5 236.5,-417.5"/>
<text text-anchor="start" x="239.5" y="-425.3" font-family="Times New Roman,serif" font-weight="bold" font-size="14.00">ClassProcessor:BaseProcessor</text>
<polygon fill="none" stroke="black" points="236.5,-383.5 236.5,-417.5 493.5,-417.5 493.5,-383.5 236.5,-383.5"/>
<text text-anchor="start" x="239.5" y="-404.3" font-family="Times New Roman,serif" font-weight="bold" font-size="14.00">properties</text>
<text text-anchor="start" x="240.5" y="-390.3" font-family="Times New Roman,serif" font-size="14.00">+ classList</text>
<polygon fill="none" stroke="black" points="236.5,-237.5 236.5,-383.5 493.5,-383.5 493.5,-237.5 236.5,-237.5"/>
<text text-anchor="start" x="339" y="-370.3" font-family="Times New Roman,serif" font-weight="bold" font-size="14.00">methods</text>
<text text-anchor="start" x="296" y="-356.3" font-family="Times New Roman,serif" font-size="14.00">+ constructor (baseLoc)</text>
<text text-anchor="start" x="291.5" y="-342.3" font-family="Times New Roman,serif" font-size="14.00">+ parseClasses (ast, mod)</text>
<text text-anchor="start" x="239.5" y="-328.3" font-family="Times New Roman,serif" font-size="14.00">+ extractSuperClassName (superClassNode)</text>
<text text-anchor="start" x="249" y="-314.3" font-family="Times New Roman,serif" font-size="14.00">+ extractMemberExpressionName (node)</text>
<text text-anchor="start" x="264" y="-300.3" font-family="Times New Roman,serif" font-size="14.00">+ extractMethodInfo (methodNode)</text>
<text text-anchor="start" x="270" y="-286.3" font-family="Times New Roman,serif" font-size="14.00">+ getMethodName (methodNode)</text>
<text text-anchor="start" x="258" y="-272.3" font-family="Times New Roman,serif" font-size="14.00">+ extractPropertyInfo (propertyNode)</text>
<text text-anchor="start" x="264" y="-258.3" font-family="Times New Roman,serif" font-size="14.00">+ getPropertyName (propertyNode)</text>
<text text-anchor="start" x="245.5" y="-244.3" font-family="Times New Roman,serif" font-size="14.00">+ extractTypeAnnotation (typeAnnotation)</text>
<polygon fill="none" stroke="black" points="235,-237 235,-440 494,-440 494,-237 235,-237"/>
</g>
<!-- ClassProcessor&#45;&gt;BaseProcessor -->
<g id="edge1" class="edge">
<title>ClassProcessor&#45;&gt;BaseProcessor</title>
<path fill="none" stroke="black" d="M502.24,-237.78C505.33,-236.13 508.42,-234.54 511.5,-233 593.29,-192.25 690.15,-160.56 770.43,-138.29"/>
<polygon fill="none" stroke="black" points="771.43,-141.65 780.14,-135.62 769.57,-134.9 771.43,-141.65"/>
</g>
<!-- ErrorCollector -->
<g id="node4" class="node">
<title>ErrorCollector</title>
<polygon fill="none" stroke="black" points="529.5,-362.5 529.5,-383.5 723.5,-383.5 723.5,-362.5 529.5,-362.5"/>
<text text-anchor="start" x="532.5" y="-370.3" font-family="Times New Roman,serif" font-weight="bold" font-size="14.00">ErrorCollector:BaseProcessor</text>
<polygon fill="none" stroke="black" points="529.5,-341.5 529.5,-362.5 723.5,-362.5 723.5,-341.5 529.5,-341.5"/>
<text text-anchor="start" x="532.5" y="-349.3" font-family="Times New Roman,serif" font-weight="bold" font-size="14.00">properties</text>
<polygon fill="none" stroke="black" points="529.5,-293.5 529.5,-341.5 723.5,-341.5 723.5,-293.5 529.5,-293.5"/>
<text text-anchor="start" x="575.5" y="-328.3" font-family="Times New Roman,serif" font-weight="bold" font-size="14.00">methods</text>
<text text-anchor="start" x="532.5" y="-314.3" font-family="Times New Roman,serif" font-size="14.00">+ constructor (baseLoc)</text>
<text text-anchor="start" x="544" y="-300.3" font-family="Times New Roman,serif" font-size="14.00">+ addError (file, err)</text>
<polygon fill="none" stroke="black" points="528.5,-292.5 528.5,-384.5 724.5,-384.5 724.5,-292.5 528.5,-292.5"/>
</g>
<!-- ErrorCollector&#45;&gt;BaseProcessor -->
<g id="edge2" class="edge">
<title>ErrorCollector&#45;&gt;BaseProcessor</title>
<path fill="none" stroke="black" d="M678.14,-288.49C697.82,-270.49 720.75,-250.29 742.5,-233 754.96,-223.1 768.1,-213.09 781.41,-203.23"/>
<polygon fill="none" stroke="black" points="783.74,-205.86 789.72,-197.12 779.59,-200.23 783.74,-205.86"/>
</g>
<!-- ExportProcessor -->
<g id="node5" class="node">
<title>ExportProcessor</title>
<polygon fill="none" stroke="black" points="760.5,-376.5 760.5,-397.5 1107.5,-397.5 1107.5,-376.5 760.5,-376.5"/>
<text text-anchor="start" x="763.5" y="-384.3" font-family="Times New Roman,serif" font-weight="bold" font-size="14.00">ExportProcessor:BaseProcessor</text>
<polygon fill="none" stroke="black" points="760.5,-355.5 760.5,-376.5 1107.5,-376.5 1107.5,-355.5 760.5,-355.5"/>
<text text-anchor="start" x="763.5" y="-363.3" font-family="Times New Roman,serif" font-weight="bold" font-size="14.00">properties</text>
<polygon fill="none" stroke="black" points="760.5,-279.5 760.5,-355.5 1107.5,-355.5 1107.5,-279.5 760.5,-279.5"/>
<text text-anchor="start" x="908" y="-342.3" font-family="Times New Roman,serif" font-weight="bold" font-size="14.00">methods</text>
<text text-anchor="start" x="865" y="-328.3" font-family="Times New Roman,serif" font-size="14.00">+ constructor (baseLoc)</text>
<text text-anchor="start" x="860" y="-314.3" font-family="Times New Roman,serif" font-size="14.00">+ parseExports (ast, mod)</text>
<text text-anchor="start" x="763.5" y="-300.3" font-family="Times New Roman,serif" font-size="14.00">+ processExportDeclaration (node, srcFile, exportList, mod)</text>
<text text-anchor="start" x="817" y="-286.3" font-family="Times New Roman,serif" font-size="14.00">+ processDeclarationNode (decl, addVal)</text>
<polygon fill="none" stroke="black" points="759,-278.5 759,-398.5 1108,-398.5 1108,-278.5 759,-278.5"/>
</g>
<!-- ExportProcessor&#45;&gt;BaseProcessor -->
<g id="edge3" class="edge">
<title>ExportProcessor&#45;&gt;BaseProcessor</title>
<path fill="none" stroke="black" d="M933.5,-274.35C933.5,-253.71 933.5,-230.18 933.5,-207.22"/>
<polygon fill="none" stroke="black" points="937,-207.07 933.5,-197.07 930,-207.07 937,-207.07"/>
</g>
<!-- ImportProcessor -->
<g id="node6" class="node">
<title>ImportProcessor</title>
<polygon fill="none" stroke="black" points="1143.5,-376.5 1143.5,-397.5 1476.5,-397.5 1476.5,-376.5 1143.5,-376.5"/>
<text text-anchor="start" x="1146.5" y="-384.3" font-family="Times New Roman,serif" font-weight="bold" font-size="14.00">ImportProcessor:BaseProcessor</text>
<polygon fill="none" stroke="black" points="1143.5,-355.5 1143.5,-376.5 1476.5,-376.5 1476.5,-355.5 1143.5,-355.5"/>
<text text-anchor="start" x="1146.5" y="-363.3" font-family="Times New Roman,serif" font-weight="bold" font-size="14.00">properties</text>
<polygon fill="none" stroke="black" points="1143.5,-279.5 1143.5,-355.5 1476.5,-355.5 1476.5,-279.5 1143.5,-279.5"/>
<text text-anchor="start" x="1284" y="-342.3" font-family="Times New Roman,serif" font-weight="bold" font-size="14.00">methods</text>
<text text-anchor="start" x="1241" y="-328.3" font-family="Times New Roman,serif" font-size="14.00">+ constructor (baseLoc)</text>
<text text-anchor="start" x="1236" y="-314.3" font-family="Times New Roman,serif" font-size="14.00">+ parseImports (ast, mod)</text>
<text text-anchor="start" x="1146.5" y="-300.3" font-family="Times New Roman,serif" font-size="14.00">+ processImportDeclaration (node, srcFile, dependencies)</text>
<text text-anchor="start" x="1242.5" y="-286.3" font-family="Times New Roman,serif" font-size="14.00">+ normalizeDeps (deps)</text>
<polygon fill="none" stroke="black" points="1142,-278.5 1142,-398.5 1477,-398.5 1477,-278.5 1142,-278.5"/>
</g>
<!-- ImportProcessor&#45;&gt;BaseProcessor -->
<g id="edge4" class="edge">
<title>ImportProcessor&#45;&gt;BaseProcessor</title>
<path fill="none" stroke="black" d="M1209.73,-274.35C1174.63,-252.13 1134.24,-226.56 1095.36,-201.95"/>
<polygon fill="none" stroke="black" points="1096.89,-198.78 1086.57,-196.39 1093.15,-204.69 1096.89,-198.78"/>
</g>
<!-- UsageProcessor -->
<g id="node7" class="node">
<title>UsageProcessor</title>
<polygon fill="none" stroke="black" points="1512.5,-355.5 1512.5,-376.5 1713.5,-376.5 1713.5,-355.5 1512.5,-355.5"/>
<text text-anchor="start" x="1515.5" y="-363.3" font-family="Times New Roman,serif" font-weight="bold" font-size="14.00">UsageProcessor:BaseProcessor</text>
<polygon fill="none" stroke="black" points="1512.5,-334.5 1512.5,-355.5 1713.5,-355.5 1713.5,-334.5 1512.5,-334.5"/>
<text text-anchor="start" x="1515.5" y="-342.3" font-family="Times New Roman,serif" font-weight="bold" font-size="14.00">properties</text>
<polygon fill="none" stroke="black" points="1512.5,-300.5 1512.5,-334.5 1713.5,-334.5 1713.5,-300.5 1512.5,-300.5"/>
<text text-anchor="start" x="1558.5" y="-321.3" font-family="Times New Roman,serif" font-weight="bold" font-size="14.00">methods</text>
<text text-anchor="start" x="1515.5" y="-307.3" font-family="Times New Roman,serif" font-size="14.00">+ constructor (baseLoc)</text>
<polygon fill="none" stroke="black" points="1511,-299.5 1511,-377.5 1714,-377.5 1714,-299.5 1511,-299.5"/>
</g>
<!-- UsageProcessor&#45;&gt;BaseProcessor -->
<g id="edge5" class="edge">
<title>UsageProcessor&#45;&gt;BaseProcessor</title>
<path fill="none" stroke="black" d="M1574.75,-295.28C1553.24,-273.65 1524.61,-248.65 1494.5,-233 1369.66,-168.13 1212.83,-134.25 1096.75,-116.89"/>
<polygon fill="none" stroke="black" points="1097.11,-113.4 1086.7,-115.41 1096.09,-120.33 1097.11,-113.4"/>
</g>
</g>
</svg>
