<?xml version="1.0" encoding="UTF-8" standalone="no"?>
<!DOCTYPE svg PUBLIC "-//W3C//DTD SVG 1.1//EN"
 "http://www.w3.org/Graphics/SVG/1.1/DTD/svg11.dtd">
<!-- Generated by graphviz version 3.0.0 (20220226.1711)
 -->
<!-- Pages: 1 -->
<svg width="1225pt" height="414pt"
 viewBox="0.00 0.00 1224.50 414.00" xmlns="http://www.w3.org/2000/svg" xmlns:xlink="http://www.w3.org/1999/xlink">
<g id="graph0" class="graph" transform="scale(1 1) rotate(0) translate(4 410)">
<polygon fill="white" stroke="transparent" points="-4,4 -4,-410 1220.5,-410 1220.5,4 -4,4"/>
<text text-anchor="middle" x="608.25" y="-390.8" font-family="Times New Roman,serif" font-size="14.00">ast Module Exports</text>
<!-- ast/ASTProcessor.js -->
<g id="node1" class="node">
<title>ast/ASTProcessor.js</title>
<polygon fill="lightblue" stroke="transparent" points="17.5,-357 17.5,-378 149.5,-378 149.5,-357 17.5,-357"/>
<polygon fill="none" stroke="black" points="17.5,-357 17.5,-378 149.5,-378 149.5,-357 17.5,-357"/>
<text text-anchor="start" x="20.5" y="-364.8" font-family="Times New Roman,serif" font-weight="bold" font-size="14.00">ast/ASTProcessor.js</text>
<polygon fill="none" stroke="black" points="17.5,-336 17.5,-357 149.5,-357 149.5,-336 17.5,-336"/>
<text text-anchor="start" x="20.5" y="-342.8" font-family="Times New Roman,serif" font-size="14.00">processAST</text>
<polygon fill="none" stroke="black" points="17.5,-162 17.5,-336 149.5,-336 149.5,-162 17.5,-162"/>
<text text-anchor="start" x="40.5" y="-322.8" font-family="Times New Roman,serif" font-style="italic" font-size="14.00" fill="red">utils/list&#45;utils.js</text>
<text text-anchor="start" x="42" y="-308.8" font-family="Times New Roman,serif" font-size="14.00">getUsedByList</text>
<text text-anchor="start" x="33.5" y="-294.8" font-family="Times New Roman,serif" font-style="italic" font-size="14.00" fill="red">ClassProcessor.js</text>
<text text-anchor="start" x="39.5" y="-280.8" font-family="Times New Roman,serif" font-size="14.00">ClassProcessor</text>
<text text-anchor="start" x="35" y="-266.8" font-family="Times New Roman,serif" font-style="italic" font-size="14.00" fill="red">ErrorCollector.js</text>
<text text-anchor="start" x="42.5" y="-252.8" font-family="Times New Roman,serif" font-size="14.00">ErrorCollector</text>
<text text-anchor="start" x="30" y="-238.8" font-family="Times New Roman,serif" font-style="italic" font-size="14.00" fill="red">ExportProcessor.js</text>
<text text-anchor="start" x="35.5" y="-224.8" font-family="Times New Roman,serif" font-size="14.00">ExportProcessor</text>
<text text-anchor="start" x="30" y="-210.8" font-family="Times New Roman,serif" font-style="italic" font-size="14.00" fill="red">ImportProcessor.js</text>
<text text-anchor="start" x="35.5" y="-196.8" font-family="Times New Roman,serif" font-size="14.00">ImportProcessor</text>
<text text-anchor="start" x="30.5" y="-182.8" font-family="Times New Roman,serif" font-style="italic" font-size="14.00" fill="red">UsageProcessor.js</text>
<text text-anchor="start" x="37.5" y="-168.8" font-family="Times New Roman,serif" font-size="14.00">UsageProcessor</text>
<polygon fill="none" stroke="black" points="16.5,-161 16.5,-379 150.5,-379 150.5,-161 16.5,-161"/>
</g>
<!-- ast/ASTProcessor.js&#45;node_modules -->
<g id="node2" class="node">
<title>ast/ASTProcessor.js&#45;node_modules</title>
<polygon fill="none" stroke="black" points="9.5,-94.5 9.5,-115.5 158.5,-115.5 158.5,-94.5 9.5,-94.5"/>
<text text-anchor="start" x="42.5" y="-101.3" font-family="Times New Roman,serif" font-size="14.00">node_modules</text>
<polygon fill="none" stroke="black" points="9.5,-4.5 9.5,-94.5 158.5,-94.5 158.5,-4.5 9.5,-4.5"/>
<text text-anchor="start" x="12.5" y="-81.3" font-family="Times New Roman,serif" font-style="italic" font-size="14.00" fill="red">@typescript&#45;eslint/parser</text>
<text text-anchor="start" x="68.5" y="-67.3" font-family="Times New Roman,serif" font-size="14.00">parse</text>
<text text-anchor="start" x="79" y="-53.3" font-family="Times New Roman,serif" font-style="italic" font-size="14.00" fill="red">fs</text>
<text text-anchor="start" x="47.5" y="-39.3" font-family="Times New Roman,serif" font-size="14.00">readFileSync</text>
<text text-anchor="start" x="70.5" y="-25.3" font-family="Times New Roman,serif" font-style="italic" font-size="14.00" fill="red">path</text>
<text text-anchor="start" x="71.5" y="-11.3" font-family="Times New Roman,serif" font-size="14.00">path</text>
<polygon fill="none" stroke="black" points="8,-4 8,-117 159,-117 159,-4 8,-4"/>
</g>
<!-- ast/ASTProcessor.js&#45;&gt;ast/ASTProcessor.js&#45;node_modules -->
<g id="edge1" class="edge">
<title>ast/ASTProcessor.js&#45;&gt;ast/ASTProcessor.js&#45;node_modules</title>
<path fill="none" stroke="black" d="M83.5,-156.75C83.5,-148.15 83.5,-139.64 83.5,-131.44"/>
<polygon fill="black" stroke="black" points="87,-131.24 83.5,-121.24 80,-131.24 87,-131.24"/>
</g>
<!-- ast/BaseProcessor.js -->
<g id="node3" class="node">
<title>ast/BaseProcessor.js</title>
<polygon fill="lightblue" stroke="transparent" points="185.5,-273 185.5,-294 319.5,-294 319.5,-273 185.5,-273"/>
<polygon fill="none" stroke="black" points="185.5,-273 185.5,-294 319.5,-294 319.5,-273 185.5,-273"/>
<text text-anchor="start" x="188.5" y="-280.8" font-family="Times New Roman,serif" font-weight="bold" font-size="14.00">ast/BaseProcessor.js</text>
<polygon fill="none" stroke="black" points="185.5,-252 185.5,-273 319.5,-273 319.5,-252 185.5,-252"/>
<text text-anchor="start" x="188.5" y="-258.8" font-family="Times New Roman,serif" font-size="14.00">BaseProcessor</text>
<polygon fill="none" stroke="black" points="185.5,-246 185.5,-252 319.5,-252 319.5,-246 185.5,-246"/>
<polygon fill="none" stroke="black" points="184.5,-245 184.5,-295 320.5,-295 320.5,-245 184.5,-245"/>
</g>
<!-- ast/BaseProcessor.js&#45;node_modules -->
<g id="node4" class="node">
<title>ast/BaseProcessor.js&#45;node_modules</title>
<polygon fill="none" stroke="black" points="208.5,-80.5 208.5,-101.5 297.5,-101.5 297.5,-80.5 208.5,-80.5"/>
<text text-anchor="start" x="211.5" y="-87.3" font-family="Times New Roman,serif" font-size="14.00">node_modules</text>
<polygon fill="none" stroke="black" points="208.5,-18.5 208.5,-80.5 297.5,-80.5 297.5,-18.5 208.5,-18.5"/>
<text text-anchor="start" x="224.5" y="-67.3" font-family="Times New Roman,serif" font-style="italic" font-size="14.00" fill="red">estraverse</text>
<text text-anchor="start" x="225" y="-53.3" font-family="Times New Roman,serif" font-size="14.00">estraverse</text>
<text text-anchor="start" x="239.5" y="-39.3" font-family="Times New Roman,serif" font-style="italic" font-size="14.00" fill="red">path</text>
<text text-anchor="start" x="240.5" y="-25.3" font-family="Times New Roman,serif" font-size="14.00">path</text>
<polygon fill="none" stroke="black" points="207,-18 207,-103 298,-103 298,-18 207,-18"/>
</g>
<!-- ast/BaseProcessor.js&#45;&gt;ast/BaseProcessor.js&#45;node_modules -->
<g id="edge2" class="edge">
<title>ast/BaseProcessor.js&#45;&gt;ast/BaseProcessor.js&#45;node_modules</title>
<path fill="none" stroke="black" d="M252.5,-240.58C252.5,-208.93 252.5,-156.98 252.5,-117.16"/>
<polygon fill="black" stroke="black" points="256,-117.06 252.5,-107.06 249,-117.06 256,-117.06"/>
</g>
<!-- ast/ClassProcessor.js -->
<g id="node5" class="node">
<title>ast/ClassProcessor.js</title>
<polygon fill="lightblue" stroke="transparent" points="355.5,-301 355.5,-322 493.5,-322 493.5,-301 355.5,-301"/>
<polygon fill="none" stroke="black" points="355.5,-301 355.5,-322 493.5,-322 493.5,-301 355.5,-301"/>
<text text-anchor="start" x="358.5" y="-308.8" font-family="Times New Roman,serif" font-weight="bold" font-size="14.00">ast/ClassProcessor.js</text>
<polygon fill="none" stroke="black" points="355.5,-280 355.5,-301 493.5,-301 493.5,-280 355.5,-280"/>
<text text-anchor="start" x="358.5" y="-286.8" font-family="Times New Roman,serif" font-size="14.00">ClassProcessor</text>
<polygon fill="none" stroke="black" points="355.5,-218 355.5,-280 493.5,-280 493.5,-218 355.5,-218"/>
<text text-anchor="start" x="381" y="-266.8" font-family="Times New Roman,serif" font-style="italic" font-size="14.00" fill="red">utils/file&#45;utils.js</text>
<text text-anchor="start" x="387.5" y="-252.8" font-family="Times New Roman,serif" font-size="14.00">moduleName</text>
<text text-anchor="start" x="376" y="-238.8" font-family="Times New Roman,serif" font-style="italic" font-size="14.00" fill="red">BaseProcessor.js</text>
<text text-anchor="start" x="382" y="-224.8" font-family="Times New Roman,serif" font-size="14.00">BaseProcessor</text>
<polygon fill="none" stroke="black" points="354.5,-217 354.5,-323 494.5,-323 494.5,-217 354.5,-217"/>
</g>
<!-- ast/ClassProcessor.js&#45;node_modules -->
<g id="node6" class="node">
<title>ast/ClassProcessor.js&#45;node_modules</title>
<polygon fill="none" stroke="black" points="380.5,-66.5 380.5,-87.5 469.5,-87.5 469.5,-66.5 380.5,-66.5"/>
<text text-anchor="start" x="383.5" y="-73.3" font-family="Times New Roman,serif" font-size="14.00">node_modules</text>
<polygon fill="none" stroke="black" points="380.5,-32.5 380.5,-66.5 469.5,-66.5 469.5,-32.5 380.5,-32.5"/>
<text text-anchor="start" x="396.5" y="-53.3" font-family="Times New Roman,serif" font-style="italic" font-size="14.00" fill="red">estraverse</text>
<text text-anchor="start" x="397" y="-39.3" font-family="Times New Roman,serif" font-size="14.00">estraverse</text>
<polygon fill="none" stroke="black" points="379,-32 379,-89 470,-89 470,-32 379,-32"/>
</g>
<!-- ast/ClassProcessor.js&#45;&gt;ast/ClassProcessor.js&#45;node_modules -->
<g id="edge3" class="edge">
<title>ast/ClassProcessor.js&#45;&gt;ast/ClassProcessor.js&#45;node_modules</title>
<path fill="none" stroke="black" d="M424.5,-212.85C424.5,-178.34 424.5,-134.87 424.5,-103.37"/>
<polygon fill="black" stroke="black" points="428,-103.18 424.5,-93.18 421,-103.18 428,-103.18"/>
</g>
<!-- ast/ErrorCollector.js -->
<g id="node7" class="node">
<title>ast/ErrorCollector.js</title>
<polygon fill="lightblue" stroke="transparent" points="530.5,-287 530.5,-308 665.5,-308 665.5,-287 530.5,-287"/>
<polygon fill="none" stroke="black" points="530.5,-287 530.5,-308 665.5,-308 665.5,-287 530.5,-287"/>
<text text-anchor="start" x="533.5" y="-294.8" font-family="Times New Roman,serif" font-weight="bold" font-size="14.00">ast/ErrorCollector.js</text>
<polygon fill="none" stroke="black" points="530.5,-266 530.5,-287 665.5,-287 665.5,-266 530.5,-266"/>
<text text-anchor="start" x="533.5" y="-272.8" font-family="Times New Roman,serif" font-size="14.00">ErrorCollector</text>
<polygon fill="none" stroke="black" points="530.5,-232 530.5,-266 665.5,-266 665.5,-232 530.5,-232"/>
<text text-anchor="start" x="549.5" y="-252.8" font-family="Times New Roman,serif" font-style="italic" font-size="14.00" fill="red">BaseProcessor.js</text>
<text text-anchor="start" x="555.5" y="-238.8" font-family="Times New Roman,serif" font-size="14.00">BaseProcessor</text>
<polygon fill="none" stroke="black" points="529,-231 529,-309 666,-309 666,-231 529,-231"/>
</g>
<!-- ast/ExportProcessor.js -->
<g id="node8" class="node">
<title>ast/ExportProcessor.js</title>
<polygon fill="lightblue" stroke="transparent" points="701.5,-301 701.5,-322 847.5,-322 847.5,-301 701.5,-301"/>
<polygon fill="none" stroke="black" points="701.5,-301 701.5,-322 847.5,-322 847.5,-301 701.5,-301"/>
<text text-anchor="start" x="704.5" y="-308.8" font-family="Times New Roman,serif" font-weight="bold" font-size="14.00">ast/ExportProcessor.js</text>
<polygon fill="none" stroke="black" points="701.5,-280 701.5,-301 847.5,-301 847.5,-280 701.5,-280"/>
<text text-anchor="start" x="704.5" y="-286.8" font-family="Times New Roman,serif" font-size="14.00">ExportProcessor</text>
<polygon fill="none" stroke="black" points="701.5,-218 701.5,-280 847.5,-280 847.5,-218 701.5,-218"/>
<text text-anchor="start" x="731" y="-266.8" font-family="Times New Roman,serif" font-style="italic" font-size="14.00" fill="red">utils/file&#45;utils.js</text>
<text text-anchor="start" x="737.5" y="-252.8" font-family="Times New Roman,serif" font-size="14.00">moduleName</text>
<text text-anchor="start" x="726" y="-238.8" font-family="Times New Roman,serif" font-style="italic" font-size="14.00" fill="red">BaseProcessor.js</text>
<text text-anchor="start" x="732" y="-224.8" font-family="Times New Roman,serif" font-size="14.00">BaseProcessor</text>
<polygon fill="none" stroke="black" points="700.5,-217 700.5,-323 848.5,-323 848.5,-217 700.5,-217"/>
</g>
<!-- ast/ExportProcessor.js&#45;node_modules -->
<g id="node9" class="node">
<title>ast/ExportProcessor.js&#45;node_modules</title>
<polygon fill="none" stroke="black" points="730.5,-66.5 730.5,-87.5 819.5,-87.5 819.5,-66.5 730.5,-66.5"/>
<text text-anchor="start" x="733.5" y="-73.3" font-family="Times New Roman,serif" font-size="14.00">node_modules</text>
<polygon fill="none" stroke="black" points="730.5,-32.5 730.5,-66.5 819.5,-66.5 819.5,-32.5 730.5,-32.5"/>
<text text-anchor="start" x="746.5" y="-53.3" font-family="Times New Roman,serif" font-style="italic" font-size="14.00" fill="red">estraverse</text>
<text text-anchor="start" x="747" y="-39.3" font-family="Times New Roman,serif" font-size="14.00">estraverse</text>
<polygon fill="none" stroke="black" points="729,-32 729,-89 820,-89 820,-32 729,-32"/>
</g>
<!-- ast/ExportProcessor.js&#45;&gt;ast/ExportProcessor.js&#45;node_modules -->
<g id="edge4" class="edge">
<title>ast/ExportProcessor.js&#45;&gt;ast/ExportProcessor.js&#45;node_modules</title>
<path fill="none" stroke="black" d="M774.5,-212.85C774.5,-178.34 774.5,-134.87 774.5,-103.37"/>
<polygon fill="black" stroke="black" points="778,-103.18 774.5,-93.18 771,-103.18 778,-103.18"/>
</g>
<!-- ast/ImportProcessor.js -->
<g id="node10" class="node">
<title>ast/ImportProcessor.js</title>
<polygon fill="lightblue" stroke="transparent" points="883.5,-308 883.5,-329 1029.5,-329 1029.5,-308 883.5,-308"/>
<polygon fill="none" stroke="black" points="883.5,-308 883.5,-329 1029.5,-329 1029.5,-308 883.5,-308"/>
<text text-anchor="start" x="886.5" y="-315.8" font-family="Times New Roman,serif" font-weight="bold" font-size="14.00">ast/ImportProcessor.js</text>
<polygon fill="none" stroke="black" points="883.5,-287 883.5,-308 1029.5,-308 1029.5,-287 883.5,-287"/>
<text text-anchor="start" x="886.5" y="-293.8" font-family="Times New Roman,serif" font-size="14.00">ImportProcessor</text>
<polygon fill="none" stroke="black" points="883.5,-211 883.5,-287 1029.5,-287 1029.5,-211 883.5,-211"/>
<text text-anchor="start" x="913" y="-273.8" font-family="Times New Roman,serif" font-style="italic" font-size="14.00" fill="red">utils/file&#45;utils.js</text>
<text text-anchor="start" x="908" y="-259.8" font-family="Times New Roman,serif" font-size="14.00">removeExtension</text>
<text text-anchor="start" x="919.5" y="-245.8" font-family="Times New Roman,serif" font-size="14.00">moduleName</text>
<text text-anchor="start" x="908" y="-231.8" font-family="Times New Roman,serif" font-style="italic" font-size="14.00" fill="red">BaseProcessor.js</text>
<text text-anchor="start" x="914" y="-217.8" font-family="Times New Roman,serif" font-size="14.00">BaseProcessor</text>
<polygon fill="none" stroke="black" points="882.5,-210 882.5,-330 1030.5,-330 1030.5,-210 882.5,-210"/>
</g>
<!-- ast/ImportProcessor.js&#45;node_modules -->
<g id="node11" class="node">
<title>ast/ImportProcessor.js&#45;node_modules</title>
<polygon fill="none" stroke="black" points="912.5,-66.5 912.5,-87.5 1001.5,-87.5 1001.5,-66.5 912.5,-66.5"/>
<text text-anchor="start" x="915.5" y="-73.3" font-family="Times New Roman,serif" font-size="14.00">node_modules</text>
<polygon fill="none" stroke="black" points="912.5,-32.5 912.5,-66.5 1001.5,-66.5 1001.5,-32.5 912.5,-32.5"/>
<text text-anchor="start" x="928.5" y="-53.3" font-family="Times New Roman,serif" font-style="italic" font-size="14.00" fill="red">estraverse</text>
<text text-anchor="start" x="929" y="-39.3" font-family="Times New Roman,serif" font-size="14.00">estraverse</text>
<polygon fill="none" stroke="black" points="911,-32 911,-89 1002,-89 1002,-32 911,-32"/>
</g>
<!-- ast/ImportProcessor.js&#45;&gt;ast/ImportProcessor.js&#45;node_modules -->
<g id="edge5" class="edge">
<title>ast/ImportProcessor.js&#45;&gt;ast/ImportProcessor.js&#45;node_modules</title>
<path fill="none" stroke="black" d="M956.5,-205.9C956.5,-172.66 956.5,-132.81 956.5,-103.4"/>
<polygon fill="black" stroke="black" points="960,-103.07 956.5,-93.07 953,-103.07 960,-103.07"/>
</g>
<!-- ast/UsageProcessor.js -->
<g id="node12" class="node">
<title>ast/UsageProcessor.js</title>
<polygon fill="lightblue" stroke="transparent" points="1065.5,-287 1065.5,-308 1207.5,-308 1207.5,-287 1065.5,-287"/>
<polygon fill="none" stroke="black" points="1065.5,-287 1065.5,-308 1207.5,-308 1207.5,-287 1065.5,-287"/>
<text text-anchor="start" x="1068.5" y="-294.8" font-family="Times New Roman,serif" font-weight="bold" font-size="14.00">ast/UsageProcessor.js</text>
<polygon fill="none" stroke="black" points="1065.5,-266 1065.5,-287 1207.5,-287 1207.5,-266 1065.5,-266"/>
<text text-anchor="start" x="1068.5" y="-272.8" font-family="Times New Roman,serif" font-size="14.00">UsageProcessor</text>
<polygon fill="none" stroke="black" points="1065.5,-232 1065.5,-266 1207.5,-266 1207.5,-232 1065.5,-232"/>
<text text-anchor="start" x="1088" y="-252.8" font-family="Times New Roman,serif" font-style="italic" font-size="14.00" fill="red">BaseProcessor.js</text>
<text text-anchor="start" x="1094" y="-238.8" font-family="Times New Roman,serif" font-size="14.00">BaseProcessor</text>
<polygon fill="none" stroke="black" points="1064.5,-231 1064.5,-309 1208.5,-309 1208.5,-231 1064.5,-231"/>
</g>
</g>
</svg>
