<?xml version="1.0" encoding="UTF-8" standalone="no"?>
<!DOCTYPE svg PUBLIC "-//W3C//DTD SVG 1.1//EN"
 "http://www.w3.org/Graphics/SVG/1.1/DTD/svg11.dtd">
<!-- Generated by graphviz version 3.0.0 (20220226.1711)
 -->
<!-- Pages: 1 -->
<svg width="1234pt" height="326pt"
 viewBox="0.00 0.00 1233.50 326.00" xmlns="http://www.w3.org/2000/svg" xmlns:xlink="http://www.w3.org/1999/xlink">
<g id="graph0" class="graph" transform="scale(1 1) rotate(0) translate(4 322)">
<polygon fill="white" stroke="transparent" points="-4,4 -4,-322 1229.5,-322 1229.5,4 -4,4"/>
<text text-anchor="middle" x="612.75" y="-302.8" font-family="Times New Roman,serif" font-size="14.00">ast Module Exports</text>
<!-- ast/ASTProcessor.js -->
<g id="node1" class="node">
<title>ast/ASTProcessor.js</title>
<polygon fill="lightblue" stroke="transparent" points="9.5,-268.5 9.5,-289.5 158.5,-289.5 158.5,-268.5 9.5,-268.5"/>
<polygon fill="none" stroke="black" points="9.5,-268.5 9.5,-289.5 158.5,-289.5 158.5,-268.5 9.5,-268.5"/>
<text text-anchor="start" x="21" y="-276.3" font-family="Times New Roman,serif" font-weight="bold" font-size="14.00">ast/ASTProcessor.js</text>
<polygon fill="none" stroke="black" points="9.5,-262.5 9.5,-268.5 158.5,-268.5 158.5,-262.5 9.5,-262.5"/>
<polygon fill="none" stroke="black" points="9.5,-4.5 9.5,-262.5 158.5,-262.5 158.5,-4.5 9.5,-4.5"/>
<text text-anchor="start" x="41" y="-249.3" font-family="Times New Roman,serif" font-style="italic" font-size="14.00" fill="red">utils/list&#45;utils.js</text>
<text text-anchor="start" x="42.5" y="-235.3" font-family="Times New Roman,serif" font-size="14.00">getUsedByList</text>
<text text-anchor="start" x="34" y="-221.3" font-family="Times New Roman,serif" font-style="italic" font-size="14.00" fill="red">ClassProcessor.js</text>
<text text-anchor="start" x="40" y="-207.3" font-family="Times New Roman,serif" font-size="14.00">ClassProcessor</text>
<text text-anchor="start" x="35.5" y="-193.3" font-family="Times New Roman,serif" font-style="italic" font-size="14.00" fill="red">ErrorCollector.js</text>
<text text-anchor="start" x="43" y="-179.3" font-family="Times New Roman,serif" font-size="14.00">ErrorCollector</text>
<text text-anchor="start" x="30.5" y="-165.3" font-family="Times New Roman,serif" font-style="italic" font-size="14.00" fill="red">ExportProcessor.js</text>
<text text-anchor="start" x="36" y="-151.3" font-family="Times New Roman,serif" font-size="14.00">ExportProcessor</text>
<text text-anchor="start" x="30.5" y="-137.3" font-family="Times New Roman,serif" font-style="italic" font-size="14.00" fill="red">ImportProcessor.js</text>
<text text-anchor="start" x="36" y="-123.3" font-family="Times New Roman,serif" font-size="14.00">ImportProcessor</text>
<text text-anchor="start" x="31" y="-109.3" font-family="Times New Roman,serif" font-style="italic" font-size="14.00" fill="red">UsageProcessor.js</text>
<text text-anchor="start" x="38" y="-95.3" font-family="Times New Roman,serif" font-size="14.00">UsageProcessor</text>
<text text-anchor="start" x="12.5" y="-81.3" font-family="Times New Roman,serif" font-style="italic" font-size="14.00" fill="red">@typescript&#45;eslint/parser</text>
<text text-anchor="start" x="68.5" y="-67.3" font-family="Times New Roman,serif" font-size="14.00">parse</text>
<text text-anchor="start" x="79" y="-53.3" font-family="Times New Roman,serif" font-style="italic" font-size="14.00" fill="red">fs</text>
<text text-anchor="start" x="47.5" y="-39.3" font-family="Times New Roman,serif" font-size="14.00">readFileSync</text>
<text text-anchor="start" x="70.5" y="-25.3" font-family="Times New Roman,serif" font-style="italic" font-size="14.00" fill="red">path</text>
<text text-anchor="start" x="71.5" y="-11.3" font-family="Times New Roman,serif" font-size="14.00">path</text>
<polygon fill="none" stroke="black" points="8,-4 8,-291 159,-291 159,-4 8,-4"/>
</g>
<!-- ast/BaseProcessor.js -->
<g id="node2" class="node">
<title>ast/BaseProcessor.js</title>
<polygon fill="lightblue" stroke="transparent" points="194.5,-170.5 194.5,-191.5 328.5,-191.5 328.5,-170.5 194.5,-170.5"/>
<polygon fill="none" stroke="black" points="194.5,-170.5 194.5,-191.5 328.5,-191.5 328.5,-170.5 194.5,-170.5"/>
<text text-anchor="start" x="197.5" y="-178.3" font-family="Times New Roman,serif" font-weight="bold" font-size="14.00">ast/BaseProcessor.js</text>
<polygon fill="none" stroke="black" points="194.5,-164.5 194.5,-170.5 328.5,-170.5 328.5,-164.5 194.5,-164.5"/>
<polygon fill="none" stroke="black" points="194.5,-102.5 194.5,-164.5 328.5,-164.5 328.5,-102.5 194.5,-102.5"/>
<text text-anchor="start" x="233" y="-151.3" font-family="Times New Roman,serif" font-style="italic" font-size="14.00" fill="red">estraverse</text>
<text text-anchor="start" x="233.5" y="-137.3" font-family="Times New Roman,serif" font-size="14.00">estraverse</text>
<text text-anchor="start" x="248" y="-123.3" font-family="Times New Roman,serif" font-style="italic" font-size="14.00" fill="red">path</text>
<text text-anchor="start" x="249" y="-109.3" font-family="Times New Roman,serif" font-size="14.00">path</text>
<polygon fill="none" stroke="black" points="193.5,-102 193.5,-193 329.5,-193 329.5,-102 193.5,-102"/>
</g>
<!-- ast/ClassProcessor.js -->
<g id="node3" class="node">
<title>ast/ClassProcessor.js</title>
<polygon fill="lightblue" stroke="transparent" points="364.5,-184.5 364.5,-205.5 502.5,-205.5 502.5,-184.5 364.5,-184.5"/>
<polygon fill="none" stroke="black" points="364.5,-184.5 364.5,-205.5 502.5,-205.5 502.5,-184.5 364.5,-184.5"/>
<text text-anchor="start" x="367.5" y="-192.3" font-family="Times New Roman,serif" font-weight="bold" font-size="14.00">ast/ClassProcessor.js</text>
<polygon fill="none" stroke="black" points="364.5,-178.5 364.5,-184.5 502.5,-184.5 502.5,-178.5 364.5,-178.5"/>
<polygon fill="none" stroke="black" points="364.5,-88.5 364.5,-178.5 502.5,-178.5 502.5,-88.5 364.5,-88.5"/>
<text text-anchor="start" x="390" y="-165.3" font-family="Times New Roman,serif" font-style="italic" font-size="14.00" fill="red">utils/file&#45;utils.js</text>
<text text-anchor="start" x="396.5" y="-151.3" font-family="Times New Roman,serif" font-size="14.00">moduleName</text>
<text text-anchor="start" x="385" y="-137.3" font-family="Times New Roman,serif" font-style="italic" font-size="14.00" fill="red">BaseProcessor.js</text>
<text text-anchor="start" x="391" y="-123.3" font-family="Times New Roman,serif" font-size="14.00">BaseProcessor</text>
<text text-anchor="start" x="405" y="-109.3" font-family="Times New Roman,serif" font-style="italic" font-size="14.00" fill="red">estraverse</text>
<text text-anchor="start" x="405.5" y="-95.3" font-family="Times New Roman,serif" font-size="14.00">estraverse</text>
<polygon fill="none" stroke="black" points="363.5,-88 363.5,-207 503.5,-207 503.5,-88 363.5,-88"/>
</g>
<!-- ast/ErrorCollector.js -->
<g id="node4" class="node">
<title>ast/ErrorCollector.js</title>
<polygon fill="lightblue" stroke="transparent" points="539.5,-156.5 539.5,-177.5 674.5,-177.5 674.5,-156.5 539.5,-156.5"/>
<polygon fill="none" stroke="black" points="539.5,-156.5 539.5,-177.5 674.5,-177.5 674.5,-156.5 539.5,-156.5"/>
<text text-anchor="start" x="542.5" y="-164.3" font-family="Times New Roman,serif" font-weight="bold" font-size="14.00">ast/ErrorCollector.js</text>
<polygon fill="none" stroke="black" points="539.5,-150.5 539.5,-156.5 674.5,-156.5 674.5,-150.5 539.5,-150.5"/>
<polygon fill="none" stroke="black" points="539.5,-116.5 539.5,-150.5 674.5,-150.5 674.5,-116.5 539.5,-116.5"/>
<text text-anchor="start" x="558.5" y="-137.3" font-family="Times New Roman,serif" font-style="italic" font-size="14.00" fill="red">BaseProcessor.js</text>
<text text-anchor="start" x="564.5" y="-123.3" font-family="Times New Roman,serif" font-size="14.00">BaseProcessor</text>
<polygon fill="none" stroke="black" points="538,-116 538,-179 675,-179 675,-116 538,-116"/>
</g>
<!-- ast/ExportProcessor.js -->
<g id="node5" class="node">
<title>ast/ExportProcessor.js</title>
<polygon fill="lightblue" stroke="transparent" points="710.5,-184.5 710.5,-205.5 856.5,-205.5 856.5,-184.5 710.5,-184.5"/>
<polygon fill="none" stroke="black" points="710.5,-184.5 710.5,-205.5 856.5,-205.5 856.5,-184.5 710.5,-184.5"/>
<text text-anchor="start" x="713.5" y="-192.3" font-family="Times New Roman,serif" font-weight="bold" font-size="14.00">ast/ExportProcessor.js</text>
<polygon fill="none" stroke="black" points="710.5,-178.5 710.5,-184.5 856.5,-184.5 856.5,-178.5 710.5,-178.5"/>
<polygon fill="none" stroke="black" points="710.5,-88.5 710.5,-178.5 856.5,-178.5 856.5,-88.5 710.5,-88.5"/>
<text text-anchor="start" x="740" y="-165.3" font-family="Times New Roman,serif" font-style="italic" font-size="14.00" fill="red">utils/file&#45;utils.js</text>
<text text-anchor="start" x="746.5" y="-151.3" font-family="Times New Roman,serif" font-size="14.00">moduleName</text>
<text text-anchor="start" x="735" y="-137.3" font-family="Times New Roman,serif" font-style="italic" font-size="14.00" fill="red">BaseProcessor.js</text>
<text text-anchor="start" x="741" y="-123.3" font-family="Times New Roman,serif" font-size="14.00">BaseProcessor</text>
<text text-anchor="start" x="755" y="-109.3" font-family="Times New Roman,serif" font-style="italic" font-size="14.00" fill="red">estraverse</text>
<text text-anchor="start" x="755.5" y="-95.3" font-family="Times New Roman,serif" font-size="14.00">estraverse</text>
<polygon fill="none" stroke="black" points="709.5,-88 709.5,-207 857.5,-207 857.5,-88 709.5,-88"/>
</g>
<!-- ast/ImportProcessor.js -->
<g id="node6" class="node">
<title>ast/ImportProcessor.js</title>
<polygon fill="lightblue" stroke="transparent" points="892.5,-191.5 892.5,-212.5 1038.5,-212.5 1038.5,-191.5 892.5,-191.5"/>
<polygon fill="none" stroke="black" points="892.5,-191.5 892.5,-212.5 1038.5,-212.5 1038.5,-191.5 892.5,-191.5"/>
<text text-anchor="start" x="895.5" y="-199.3" font-family="Times New Roman,serif" font-weight="bold" font-size="14.00">ast/ImportProcessor.js</text>
<polygon fill="none" stroke="black" points="892.5,-185.5 892.5,-191.5 1038.5,-191.5 1038.5,-185.5 892.5,-185.5"/>
<polygon fill="none" stroke="black" points="892.5,-81.5 892.5,-185.5 1038.5,-185.5 1038.5,-81.5 892.5,-81.5"/>
<text text-anchor="start" x="922" y="-172.3" font-family="Times New Roman,serif" font-style="italic" font-size="14.00" fill="red">utils/file&#45;utils.js</text>
<text text-anchor="start" x="917" y="-158.3" font-family="Times New Roman,serif" font-size="14.00">removeExtension</text>
<text text-anchor="start" x="928.5" y="-144.3" font-family="Times New Roman,serif" font-size="14.00">moduleName</text>
<text text-anchor="start" x="917" y="-130.3" font-family="Times New Roman,serif" font-style="italic" font-size="14.00" fill="red">BaseProcessor.js</text>
<text text-anchor="start" x="923" y="-116.3" font-family="Times New Roman,serif" font-size="14.00">BaseProcessor</text>
<text text-anchor="start" x="937" y="-102.3" font-family="Times New Roman,serif" font-style="italic" font-size="14.00" fill="red">estraverse</text>
<text text-anchor="start" x="937.5" y="-88.3" font-family="Times New Roman,serif" font-size="14.00">estraverse</text>
<polygon fill="none" stroke="black" points="891.5,-81 891.5,-214 1039.5,-214 1039.5,-81 891.5,-81"/>
</g>
<!-- ast/UsageProcessor.js -->
<g id="node7" class="node">
<title>ast/UsageProcessor.js</title>
<polygon fill="lightblue" stroke="transparent" points="1074.5,-156.5 1074.5,-177.5 1216.5,-177.5 1216.5,-156.5 1074.5,-156.5"/>
<polygon fill="none" stroke="black" points="1074.5,-156.5 1074.5,-177.5 1216.5,-177.5 1216.5,-156.5 1074.5,-156.5"/>
<text text-anchor="start" x="1077.5" y="-164.3" font-family="Times New Roman,serif" font-weight="bold" font-size="14.00">ast/UsageProcessor.js</text>
<polygon fill="none" stroke="black" points="1074.5,-150.5 1074.5,-156.5 1216.5,-156.5 1216.5,-150.5 1074.5,-150.5"/>
<polygon fill="none" stroke="black" points="1074.5,-116.5 1074.5,-150.5 1216.5,-150.5 1216.5,-116.5 1074.5,-116.5"/>
<text text-anchor="start" x="1097" y="-137.3" font-family="Times New Roman,serif" font-style="italic" font-size="14.00" fill="red">BaseProcessor.js</text>
<text text-anchor="start" x="1103" y="-123.3" font-family="Times New Roman,serif" font-size="14.00">BaseProcessor</text>
<polygon fill="none" stroke="black" points="1073.5,-116 1073.5,-179 1217.5,-179 1217.5,-116 1073.5,-116"/>
</g>
</g>
</svg>
