<?xml version="1.0" encoding="UTF-8" standalone="no"?>
<!DOCTYPE svg PUBLIC "-//W3C//DTD SVG 1.1//EN"
 "http://www.w3.org/Graphics/SVG/1.1/DTD/svg11.dtd">
<!-- Generated by graphviz version 3.0.0 (20220226.1711)
 -->
<!-- Pages: 1 -->
<svg width="1475pt" height="406pt"
 viewBox="0.00 0.00 1475.00 406.00" xmlns="http://www.w3.org/2000/svg" xmlns:xlink="http://www.w3.org/1999/xlink">
<g id="graph0" class="graph" transform="scale(1 1) rotate(0) translate(4 402)">
<polygon fill="white" stroke="transparent" points="-4,4 -4,-402 1471,-402 1471,4 -4,4"/>
<text text-anchor="middle" x="733.5" y="-382.8" font-family="Times New Roman,serif" font-size="14.00">graphs Class Diagram</text>
<!-- ClassDiagram -->
<g id="node1" class="node">
<title>ClassDiagram</title>
<polygon fill="none" stroke="black" points="9.5,-334.5 9.5,-355.5 250.5,-355.5 250.5,-334.5 9.5,-334.5"/>
<text text-anchor="start" x="12.5" y="-342.3" font-family="Times New Roman,serif" font-weight="bold" font-size="14.00">ClassDiagram:GraphBase</text>
<polygon fill="none" stroke="black" points="9.5,-286.5 9.5,-334.5 250.5,-334.5 250.5,-286.5 9.5,-286.5"/>
<text text-anchor="start" x="33.5" y="-321.3" font-family="Times New Roman,serif" font-weight="bold" font-size="14.00">properties</text>
<text text-anchor="start" x="32.5" y="-307.3" font-family="Times New Roman,serif" font-size="14.00">&#45; #classList</text>
<text text-anchor="start" x="12.5" y="-293.3" font-family="Times New Roman,serif" font-size="14.00">&#45; #dependencyList</text>
<polygon fill="none" stroke="black" points="9.5,-224.5 9.5,-286.5 250.5,-286.5 250.5,-224.5 9.5,-224.5"/>
<text text-anchor="start" x="104" y="-273.3" font-family="Times New Roman,serif" font-weight="bold" font-size="14.00">methods</text>
<text text-anchor="start" x="12.5" y="-259.3" font-family="Times New Roman,serif" font-size="14.00">+ constructor (dependencyList, classList)</text>
<text text-anchor="start" x="87" y="-245.3" font-family="Times New Roman,serif" font-size="14.00">+ generate (dir)</text>
<text text-anchor="start" x="44" y="-231.3" font-family="Times New Roman,serif" font-size="14.00">+ createClassNode (classItem)</text>
<polygon fill="none" stroke="black" points="8,-224 8,-357 251,-357 251,-224 8,-224"/>
</g>
<!-- GraphBase -->
<g id="node2" class="node">
<title>GraphBase</title>
<polygon fill="none" stroke="black" points="681.5,-144 681.5,-165 826.5,-165 826.5,-144 681.5,-144"/>
<text text-anchor="start" x="684.5" y="-151.8" font-family="Times New Roman,serif" font-weight="bold" font-size="14.00">GraphBase</text>
<polygon fill="none" stroke="black" points="681.5,-123 681.5,-144 826.5,-144 826.5,-123 681.5,-123"/>
<text text-anchor="start" x="684.5" y="-130.8" font-family="Times New Roman,serif" font-weight="bold" font-size="14.00">properties</text>
<polygon fill="none" stroke="black" points="681.5,-5 681.5,-123 826.5,-123 826.5,-5 681.5,-5"/>
<text text-anchor="start" x="728" y="-109.8" font-family="Times New Roman,serif" font-weight="bold" font-size="14.00">methods</text>
<text text-anchor="start" x="710.5" y="-95.8" font-family="Times New Roman,serif" font-size="14.00">+ digraph (title)</text>
<text text-anchor="start" x="704.5" y="-81.8" font-family="Times New Roman,serif" font-size="14.00">+ nodeStart (title)</text>
<text text-anchor="start" x="710.5" y="-67.8" font-family="Times New Roman,serif" font-size="14.00">+ nodeFinish ()</text>
<text text-anchor="start" x="691" y="-53.8" font-family="Times New Roman,serif" font-size="14.00">+ recordDigraph (title)</text>
<text text-anchor="start" x="689.5" y="-39.8" font-family="Times New Roman,serif" font-size="14.00">+ isNodeModule (dep)</text>
<text text-anchor="start" x="684.5" y="-25.8" font-family="Times New Roman,serif" font-size="14.00">+ inSameDirectory (dep)</text>
<text text-anchor="start" x="718.5" y="-11.8" font-family="Times New Roman,serif" font-size="14.00">+ generate ()</text>
<polygon fill="none" stroke="black" points="680,-4 680,-166 827,-166 827,-4 680,-4"/>
</g>
<!-- ClassDiagram&#45;&gt;GraphBase -->
<g id="edge1" class="edge">
<title>ClassDiagram&#45;&gt;GraphBase</title>
<path fill="none" stroke="black" d="M237.9,-219.84C247.72,-214.78 257.67,-210.08 267.5,-206 399.25,-151.36 561.81,-117.46 661.53,-100.16"/>
<polygon fill="none" stroke="black" points="662.32,-103.58 671.58,-98.44 661.13,-96.68 662.32,-103.58"/>
</g>
<!-- ExportGraph -->
<g id="node3" class="node">
<title>ExportGraph</title>
<polygon fill="none" stroke="black" points="286.5,-341.5 286.5,-362.5 615.5,-362.5 615.5,-341.5 286.5,-341.5"/>
<text text-anchor="start" x="289.5" y="-349.3" font-family="Times New Roman,serif" font-weight="bold" font-size="14.00">ExportGraph:GraphBase</text>
<polygon fill="none" stroke="black" points="286.5,-279.5 286.5,-341.5 615.5,-341.5 615.5,-279.5 286.5,-279.5"/>
<text text-anchor="start" x="310.5" y="-328.3" font-family="Times New Roman,serif" font-weight="bold" font-size="14.00">properties</text>
<text text-anchor="start" x="289.5" y="-314.3" font-family="Times New Roman,serif" font-size="14.00">&#45; #dependencyList</text>
<text text-anchor="start" x="305.5" y="-300.3" font-family="Times New Roman,serif" font-size="14.00">&#45; #exportList</text>
<text text-anchor="start" x="297.5" y="-286.3" font-family="Times New Roman,serif" font-size="14.00">&#45; #moduleArray</text>
<polygon fill="none" stroke="black" points="286.5,-217.5 286.5,-279.5 615.5,-279.5 615.5,-217.5 286.5,-217.5"/>
<text text-anchor="start" x="425" y="-266.3" font-family="Times New Roman,serif" font-weight="bold" font-size="14.00">methods</text>
<text text-anchor="start" x="289.5" y="-252.3" font-family="Times New Roman,serif" font-size="14.00">+ constructor (dependencyList, exportList, moduleArray)</text>
<text text-anchor="start" x="408" y="-238.3" font-family="Times New Roman,serif" font-size="14.00">+ generate (dir)</text>
<text text-anchor="start" x="340" y="-224.3" font-family="Times New Roman,serif" font-size="14.00">+ createModuleNode (mod, exportList)</text>
<polygon fill="none" stroke="black" points="285,-217 285,-364 616,-364 616,-217 285,-217"/>
</g>
<!-- ExportGraph&#45;&gt;GraphBase -->
<g id="edge2" class="edge">
<title>ExportGraph&#45;&gt;GraphBase</title>
<path fill="none" stroke="black" d="M564.62,-212.86C597.13,-191.02 632.08,-167.54 662.98,-146.79"/>
<polygon fill="none" stroke="black" points="665.23,-149.5 671.58,-141.02 661.33,-143.69 665.23,-149.5"/>
</g>
<!-- NodeModulesGraph -->
<g id="node4" class="node">
<title>NodeModulesGraph</title>
<polygon fill="none" stroke="black" points="651.5,-327.5 651.5,-348.5 856.5,-348.5 856.5,-327.5 651.5,-327.5"/>
<text text-anchor="start" x="654.5" y="-335.3" font-family="Times New Roman,serif" font-weight="bold" font-size="14.00">NodeModulesGraph:GraphBase</text>
<polygon fill="none" stroke="black" points="651.5,-293.5 651.5,-327.5 856.5,-327.5 856.5,-293.5 651.5,-293.5"/>
<text text-anchor="start" x="675.5" y="-314.3" font-family="Times New Roman,serif" font-weight="bold" font-size="14.00">properties</text>
<text text-anchor="start" x="654.5" y="-300.3" font-family="Times New Roman,serif" font-size="14.00">&#45; #dependencyList</text>
<polygon fill="none" stroke="black" points="651.5,-231.5 651.5,-293.5 856.5,-293.5 856.5,-231.5 651.5,-231.5"/>
<text text-anchor="start" x="718.5" y="-280.3" font-family="Times New Roman,serif" font-weight="bold" font-size="14.00">methods</text>
<text text-anchor="start" x="655.5" y="-266.3" font-family="Times New Roman,serif" font-size="14.00">+ constructor (dependencyList)</text>
<text text-anchor="start" x="709" y="-252.3" font-family="Times New Roman,serif" font-size="14.00">+ generate ()</text>
<text text-anchor="start" x="654.5" y="-238.3" font-family="Times New Roman,serif" font-size="14.00">+ createNodeModulesSection ()</text>
<polygon fill="none" stroke="black" points="650,-231 650,-350 857,-350 857,-231 650,-231"/>
</g>
<!-- NodeModulesGraph&#45;&gt;GraphBase -->
<g id="edge3" class="edge">
<title>NodeModulesGraph&#45;&gt;GraphBase</title>
<path fill="none" stroke="black" d="M753.5,-226.78C753.5,-212.13 753.5,-196.19 753.5,-180.5"/>
<polygon fill="none" stroke="black" points="757,-180.23 753.5,-170.23 750,-180.23 757,-180.23"/>
</g>
<!-- PackageGraph -->
<g id="node5" class="node">
<title>PackageGraph</title>
<polygon fill="none" stroke="black" points="892.5,-348.5 892.5,-369.5 1157.5,-369.5 1157.5,-348.5 892.5,-348.5"/>
<text text-anchor="start" x="895.5" y="-356.3" font-family="Times New Roman,serif" font-weight="bold" font-size="14.00">PackageGraph:GraphBase</text>
<polygon fill="none" stroke="black" points="892.5,-286.5 892.5,-348.5 1157.5,-348.5 1157.5,-286.5 892.5,-286.5"/>
<text text-anchor="start" x="917" y="-335.3" font-family="Times New Roman,serif" font-weight="bold" font-size="14.00">properties</text>
<text text-anchor="start" x="904" y="-321.3" font-family="Times New Roman,serif" font-size="14.00">&#45; #moduleArray</text>
<text text-anchor="start" x="896" y="-307.3" font-family="Times New Roman,serif" font-size="14.00">&#45; #dependencyList</text>
<text text-anchor="start" x="895.5" y="-293.3" font-family="Times New Roman,serif" font-size="14.00">&#45; #diagramsHTML</text>
<polygon fill="none" stroke="black" points="892.5,-210.5 892.5,-286.5 1157.5,-286.5 1157.5,-210.5 892.5,-210.5"/>
<text text-anchor="start" x="999" y="-273.3" font-family="Times New Roman,serif" font-weight="bold" font-size="14.00">methods</text>
<text text-anchor="start" x="895.5" y="-259.3" font-family="Times New Roman,serif" font-size="14.00">+ constructor (moduleArray, dependencyList)</text>
<text text-anchor="start" x="989.5" y="-245.3" font-family="Times New Roman,serif" font-size="14.00">+ generate ()</text>
<text text-anchor="start" x="933.5" y="-231.3" font-family="Times New Roman,serif" font-size="14.00">+ createPackageDependencies ()</text>
<text text-anchor="start" x="954" y="-217.3" font-family="Times New Roman,serif" font-size="14.00">+ createPackageNodes ()</text>
<polygon fill="none" stroke="black" points="891,-210 891,-371 1158,-371 1158,-210 891,-210"/>
</g>
<!-- PackageGraph&#45;&gt;GraphBase -->
<g id="edge4" class="edge">
<title>PackageGraph&#45;&gt;GraphBase</title>
<path fill="none" stroke="black" d="M913.1,-205.85C889.83,-188.37 865.57,-170.16 843.21,-153.36"/>
<polygon fill="none" stroke="black" points="845.15,-150.45 835.06,-147.24 840.95,-156.05 845.15,-150.45"/>
</g>
<!-- RelationsGraph -->
<g id="node6" class="node">
<title>RelationsGraph</title>
<polygon fill="none" stroke="black" points="1193.5,-328.5 1193.5,-349.5 1458.5,-349.5 1458.5,-328.5 1193.5,-328.5"/>
<text text-anchor="start" x="1196.5" y="-336.3" font-family="Times New Roman,serif" font-weight="bold" font-size="14.00">RelationsGraph:GraphBase</text>
<polygon fill="none" stroke="black" points="1193.5,-307.5 1193.5,-328.5 1458.5,-328.5 1458.5,-307.5 1193.5,-307.5"/>
<text text-anchor="start" x="1196.5" y="-315.3" font-family="Times New Roman,serif" font-weight="bold" font-size="14.00">properties</text>
<polygon fill="none" stroke="black" points="1193.5,-231.5 1193.5,-307.5 1458.5,-307.5 1458.5,-231.5 1193.5,-231.5"/>
<text text-anchor="start" x="1300" y="-294.3" font-family="Times New Roman,serif" font-weight="bold" font-size="14.00">methods</text>
<text text-anchor="start" x="1196.5" y="-280.3" font-family="Times New Roman,serif" font-size="14.00">+ constructor (dependencyList, moduleArray)</text>
<text text-anchor="start" x="1290.5" y="-266.3" font-family="Times New Roman,serif" font-size="14.00">+ generate ()</text>
<text text-anchor="start" x="1222.5" y="-252.3" font-family="Times New Roman,serif" font-size="14.00">&#45; #createModuleRelationNode (mod)</text>
<text text-anchor="start" x="1234" y="-238.3" font-family="Times New Roman,serif" font-size="14.00">&#45; #createNodeModulesSection ()</text>
<polygon fill="none" stroke="black" points="1192,-230.5 1192,-350.5 1459,-350.5 1459,-230.5 1192,-230.5"/>
</g>
<!-- RelationsGraph&#45;&gt;GraphBase -->
<g id="edge5" class="edge">
<title>RelationsGraph&#45;&gt;GraphBase</title>
<path fill="none" stroke="black" d="M1219.25,-226.44C1204.79,-219.03 1189.96,-211.99 1175.5,-206 1065.21,-160.34 931.82,-125.62 844.93,-105.55"/>
<polygon fill="none" stroke="black" points="845.62,-102.12 835.09,-103.29 844.06,-108.94 845.62,-102.12"/>
</g>
</g>
</svg>
