<?xml version="1.0" encoding="UTF-8" standalone="no"?>
<!DOCTYPE svg PUBLIC "-//W3C//DTD SVG 1.1//EN"
 "http://www.w3.org/Graphics/SVG/1.1/DTD/svg11.dtd">
<!-- Generated by graphviz version 3.0.0 (20220226.1711)
 -->
<!-- Pages: 1 -->
<svg width="1475pt" height="420pt"
 viewBox="0.00 0.00 1475.00 420.00" xmlns="http://www.w3.org/2000/svg" xmlns:xlink="http://www.w3.org/1999/xlink">
<g id="graph0" class="graph" transform="scale(1 1) rotate(0) translate(4 416)">
<polygon fill="white" stroke="transparent" points="-4,4 -4,-416 1471,-416 1471,4 -4,4"/>
<text text-anchor="middle" x="733.5" y="-396.8" font-family="Times New Roman,serif" font-size="14.00">graphs Class Diagram</text>
<!-- ClassDiagram -->
<g id="node1" class="node">
<title>ClassDiagram</title>
<polygon fill="none" stroke="black" points="9.5,-341.5 9.5,-362.5 250.5,-362.5 250.5,-341.5 9.5,-341.5"/>
<text text-anchor="start" x="12.5" y="-349.3" font-family="Times New Roman,serif" font-weight="bold" font-size="14.00">ClassDiagram:GraphBase</text>
<polygon fill="none" stroke="black" points="9.5,-293.5 9.5,-341.5 250.5,-341.5 250.5,-293.5 9.5,-293.5"/>
<text text-anchor="start" x="33.5" y="-328.3" font-family="Times New Roman,serif" font-weight="bold" font-size="14.00">properties</text>
<text text-anchor="start" x="32.5" y="-314.3" font-family="Times New Roman,serif" font-size="14.00">&#45; #classList</text>
<text text-anchor="start" x="12.5" y="-300.3" font-family="Times New Roman,serif" font-size="14.00">&#45; #dependencyList</text>
<polygon fill="none" stroke="black" points="9.5,-231.5 9.5,-293.5 250.5,-293.5 250.5,-231.5 9.5,-231.5"/>
<text text-anchor="start" x="104" y="-280.3" font-family="Times New Roman,serif" font-weight="bold" font-size="14.00">methods</text>
<text text-anchor="start" x="12.5" y="-266.3" font-family="Times New Roman,serif" font-size="14.00">+ constructor (dependencyList, classList)</text>
<text text-anchor="start" x="87" y="-252.3" font-family="Times New Roman,serif" font-size="14.00">+ generate (dir)</text>
<text text-anchor="start" x="44" y="-238.3" font-family="Times New Roman,serif" font-size="14.00">+ createClassNode (classItem)</text>
<polygon fill="none" stroke="black" points="8,-231 8,-364 251,-364 251,-231 8,-231"/>
</g>
<!-- GraphBase -->
<g id="node2" class="node">
<title>GraphBase</title>
<polygon fill="none" stroke="black" points="681.5,-144 681.5,-165 826.5,-165 826.5,-144 681.5,-144"/>
<text text-anchor="start" x="684.5" y="-151.8" font-family="Times New Roman,serif" font-weight="bold" font-size="14.00">GraphBase</text>
<polygon fill="none" stroke="black" points="681.5,-123 681.5,-144 826.5,-144 826.5,-123 681.5,-123"/>
<text text-anchor="start" x="684.5" y="-130.8" font-family="Times New Roman,serif" font-weight="bold" font-size="14.00">properties</text>
<polygon fill="none" stroke="black" points="681.5,-5 681.5,-123 826.5,-123 826.5,-5 681.5,-5"/>
<text text-anchor="start" x="728" y="-109.8" font-family="Times New Roman,serif" font-weight="bold" font-size="14.00">methods</text>
<text text-anchor="start" x="710.5" y="-95.8" font-family="Times New Roman,serif" font-size="14.00">+ digraph (title)</text>
<text text-anchor="start" x="704.5" y="-81.8" font-family="Times New Roman,serif" font-size="14.00">+ nodeStart (title)</text>
<text text-anchor="start" x="710.5" y="-67.8" font-family="Times New Roman,serif" font-size="14.00">+ nodeFinish ()</text>
<text text-anchor="start" x="691" y="-53.8" font-family="Times New Roman,serif" font-size="14.00">+ recordDigraph (title)</text>
<text text-anchor="start" x="689.5" y="-39.8" font-family="Times New Roman,serif" font-size="14.00">+ isNodeModule (dep)</text>
<text text-anchor="start" x="684.5" y="-25.8" font-family="Times New Roman,serif" font-size="14.00">+ inSameDirectory (dep)</text>
<text text-anchor="start" x="718.5" y="-11.8" font-family="Times New Roman,serif" font-size="14.00">+ generate ()</text>
<polygon fill="none" stroke="black" points="680,-4 680,-166 827,-166 827,-4 680,-4"/>
</g>
<!-- ClassDiagram&#45;&gt;GraphBase -->
<g id="edge1" class="edge">
<title>ClassDiagram&#45;&gt;GraphBase</title>
<path fill="none" stroke="black" d="M227.1,-226.81C240.31,-219.09 253.98,-211.9 267.5,-206 398.43,-148.9 561.56,-115.65 661.58,-99.17"/>
<polygon fill="none" stroke="black" points="662.35,-102.59 671.66,-97.53 661.23,-95.68 662.35,-102.59"/>
</g>
<!-- ExportGraph -->
<g id="node3" class="node">
<title>ExportGraph</title>
<polygon fill="none" stroke="black" points="286.5,-362.5 286.5,-383.5 615.5,-383.5 615.5,-362.5 286.5,-362.5"/>
<text text-anchor="start" x="289.5" y="-370.3" font-family="Times New Roman,serif" font-weight="bold" font-size="14.00">ExportGraph:GraphBase</text>
<polygon fill="none" stroke="black" points="286.5,-300.5 286.5,-362.5 615.5,-362.5 615.5,-300.5 286.5,-300.5"/>
<text text-anchor="start" x="310.5" y="-349.3" font-family="Times New Roman,serif" font-weight="bold" font-size="14.00">properties</text>
<text text-anchor="start" x="289.5" y="-335.3" font-family="Times New Roman,serif" font-size="14.00">&#45; #dependencyList</text>
<text text-anchor="start" x="305.5" y="-321.3" font-family="Times New Roman,serif" font-size="14.00">&#45; #exportList</text>
<text text-anchor="start" x="297.5" y="-307.3" font-family="Times New Roman,serif" font-size="14.00">&#45; #moduleArray</text>
<polygon fill="none" stroke="black" points="286.5,-210.5 286.5,-300.5 615.5,-300.5 615.5,-210.5 286.5,-210.5"/>
<text text-anchor="start" x="425" y="-287.3" font-family="Times New Roman,serif" font-weight="bold" font-size="14.00">methods</text>
<text text-anchor="start" x="289.5" y="-273.3" font-family="Times New Roman,serif" font-size="14.00">+ constructor (dependencyList, exportList, moduleArray)</text>
<text text-anchor="start" x="408" y="-259.3" font-family="Times New Roman,serif" font-size="14.00">+ generate (dir)</text>
<text text-anchor="start" x="340" y="-245.3" font-family="Times New Roman,serif" font-size="14.00">+ createModuleNode (mod, exportList)</text>
<text text-anchor="start" x="291.5" y="-231.3" font-family="Times New Roman,serif" font-size="14.00">&#45; #createNodeModulesRelations (modName, nodeMods)</text>
<text text-anchor="start" x="370.5" y="-217.3" font-family="Times New Roman,serif" font-size="14.00">&#45; #createRelations (modules)</text>
<polygon fill="none" stroke="black" points="285,-210 285,-385 616,-385 616,-210 285,-210"/>
</g>
<!-- ExportGraph&#45;&gt;GraphBase -->
<g id="edge2" class="edge">
<title>ExportGraph&#45;&gt;GraphBase</title>
<path fill="none" stroke="black" d="M581.2,-205.7C608.95,-186.42 637.65,-166.49 663.47,-148.54"/>
<polygon fill="none" stroke="black" points="665.54,-151.37 671.75,-142.79 661.54,-145.62 665.54,-151.37"/>
</g>
<!-- NodeModulesGraph -->
<g id="node4" class="node">
<title>NodeModulesGraph</title>
<polygon fill="none" stroke="black" points="651.5,-334.5 651.5,-355.5 856.5,-355.5 856.5,-334.5 651.5,-334.5"/>
<text text-anchor="start" x="654.5" y="-342.3" font-family="Times New Roman,serif" font-weight="bold" font-size="14.00">NodeModulesGraph:GraphBase</text>
<polygon fill="none" stroke="black" points="651.5,-300.5 651.5,-334.5 856.5,-334.5 856.5,-300.5 651.5,-300.5"/>
<text text-anchor="start" x="675.5" y="-321.3" font-family="Times New Roman,serif" font-weight="bold" font-size="14.00">properties</text>
<text text-anchor="start" x="654.5" y="-307.3" font-family="Times New Roman,serif" font-size="14.00">&#45; #dependencyList</text>
<polygon fill="none" stroke="black" points="651.5,-238.5 651.5,-300.5 856.5,-300.5 856.5,-238.5 651.5,-238.5"/>
<text text-anchor="start" x="718.5" y="-287.3" font-family="Times New Roman,serif" font-weight="bold" font-size="14.00">methods</text>
<text text-anchor="start" x="655.5" y="-273.3" font-family="Times New Roman,serif" font-size="14.00">+ constructor (dependencyList)</text>
<text text-anchor="start" x="709" y="-259.3" font-family="Times New Roman,serif" font-size="14.00">+ generate ()</text>
<text text-anchor="start" x="654.5" y="-245.3" font-family="Times New Roman,serif" font-size="14.00">+ createNodeModulesSection ()</text>
<polygon fill="none" stroke="black" points="650,-238 650,-357 857,-357 857,-238 650,-238"/>
</g>
<!-- NodeModulesGraph&#45;&gt;GraphBase -->
<g id="edge3" class="edge">
<title>NodeModulesGraph&#45;&gt;GraphBase</title>
<path fill="none" stroke="black" d="M753.5,-233.91C753.5,-217.04 753.5,-198.41 753.5,-180.22"/>
<polygon fill="none" stroke="black" points="757,-180.17 753.5,-170.17 750,-180.17 757,-180.17"/>
</g>
<!-- PackageGraph -->
<g id="node5" class="node">
<title>PackageGraph</title>
<polygon fill="none" stroke="black" points="892.5,-355.5 892.5,-376.5 1157.5,-376.5 1157.5,-355.5 892.5,-355.5"/>
<text text-anchor="start" x="895.5" y="-363.3" font-family="Times New Roman,serif" font-weight="bold" font-size="14.00">PackageGraph:GraphBase</text>
<polygon fill="none" stroke="black" points="892.5,-293.5 892.5,-355.5 1157.5,-355.5 1157.5,-293.5 892.5,-293.5"/>
<text text-anchor="start" x="917" y="-342.3" font-family="Times New Roman,serif" font-weight="bold" font-size="14.00">properties</text>
<text text-anchor="start" x="904" y="-328.3" font-family="Times New Roman,serif" font-size="14.00">&#45; #moduleArray</text>
<text text-anchor="start" x="896" y="-314.3" font-family="Times New Roman,serif" font-size="14.00">&#45; #dependencyList</text>
<text text-anchor="start" x="895.5" y="-300.3" font-family="Times New Roman,serif" font-size="14.00">&#45; #diagramsHTML</text>
<polygon fill="none" stroke="black" points="892.5,-217.5 892.5,-293.5 1157.5,-293.5 1157.5,-217.5 892.5,-217.5"/>
<text text-anchor="start" x="999" y="-280.3" font-family="Times New Roman,serif" font-weight="bold" font-size="14.00">methods</text>
<text text-anchor="start" x="895.5" y="-266.3" font-family="Times New Roman,serif" font-size="14.00">+ constructor (moduleArray, dependencyList)</text>
<text text-anchor="start" x="955" y="-252.3" font-family="Times New Roman,serif" font-size="14.00">+ generate (jsdocConfig)</text>
<text text-anchor="start" x="933.5" y="-238.3" font-family="Times New Roman,serif" font-size="14.00">+ createPackageDependencies ()</text>
<text text-anchor="start" x="919.5" y="-224.3" font-family="Times New Roman,serif" font-size="14.00">+ createPackageNodes (jsdocConfig)</text>
<polygon fill="none" stroke="black" points="891,-217 891,-378 1158,-378 1158,-217 891,-217"/>
</g>
<!-- PackageGraph&#45;&gt;GraphBase -->
<g id="edge4" class="edge">
<title>PackageGraph&#45;&gt;GraphBase</title>
<path fill="none" stroke="black" d="M916.61,-212.7C892.21,-193.75 866.57,-173.82 843.02,-155.53"/>
<polygon fill="none" stroke="black" points="845.16,-152.77 835.12,-149.4 840.87,-158.3 845.16,-152.77"/>
</g>
<!-- RelationsGraph -->
<g id="node6" class="node">
<title>RelationsGraph</title>
<polygon fill="none" stroke="black" points="1193.5,-335.5 1193.5,-356.5 1458.5,-356.5 1458.5,-335.5 1193.5,-335.5"/>
<text text-anchor="start" x="1196.5" y="-343.3" font-family="Times New Roman,serif" font-weight="bold" font-size="14.00">RelationsGraph:GraphBase</text>
<polygon fill="none" stroke="black" points="1193.5,-314.5 1193.5,-335.5 1458.5,-335.5 1458.5,-314.5 1193.5,-314.5"/>
<text text-anchor="start" x="1196.5" y="-322.3" font-family="Times New Roman,serif" font-weight="bold" font-size="14.00">properties</text>
<polygon fill="none" stroke="black" points="1193.5,-238.5 1193.5,-314.5 1458.5,-314.5 1458.5,-238.5 1193.5,-238.5"/>
<text text-anchor="start" x="1300" y="-301.3" font-family="Times New Roman,serif" font-weight="bold" font-size="14.00">methods</text>
<text text-anchor="start" x="1196.5" y="-287.3" font-family="Times New Roman,serif" font-size="14.00">+ constructor (dependencyList, moduleArray)</text>
<text text-anchor="start" x="1290.5" y="-273.3" font-family="Times New Roman,serif" font-size="14.00">+ generate ()</text>
<text text-anchor="start" x="1222.5" y="-259.3" font-family="Times New Roman,serif" font-size="14.00">&#45; #createModuleRelationNode (mod)</text>
<text text-anchor="start" x="1234" y="-245.3" font-family="Times New Roman,serif" font-size="14.00">&#45; #createNodeModulesSection ()</text>
<polygon fill="none" stroke="black" points="1192,-237.5 1192,-357.5 1459,-357.5 1459,-237.5 1192,-237.5"/>
</g>
<!-- RelationsGraph&#45;&gt;GraphBase -->
<g id="edge5" class="edge">
<title>RelationsGraph&#45;&gt;GraphBase</title>
<path fill="none" stroke="black" d="M1229.47,-233.47C1211.94,-223.44 1193.49,-213.82 1175.5,-206 1065.86,-158.35 932.04,-124.02 844.89,-104.59"/>
<polygon fill="none" stroke="black" points="845.55,-101.15 835.03,-102.41 844.04,-107.99 845.55,-101.15"/>
</g>
</g>
</svg>
