<?xml version="1.0" encoding="UTF-8" standalone="no"?>
<!DOCTYPE svg PUBLIC "-//W3C//DTD SVG 1.1//EN"
 "http://www.w3.org/Graphics/SVG/1.1/DTD/svg11.dtd">
<!-- Generated by graphviz version 3.0.0 (20220226.1711)
 -->
<!-- Pages: 1 -->
<svg width="1599pt" height="406pt"
 viewBox="0.00 0.00 1599.00 406.00" xmlns="http://www.w3.org/2000/svg" xmlns:xlink="http://www.w3.org/1999/xlink">
<g id="graph0" class="graph" transform="scale(1 1) rotate(0) translate(4 402)">
<polygon fill="white" stroke="transparent" points="-4,4 -4,-402 1595,-402 1595,4 -4,4"/>
<text text-anchor="middle" x="795.5" y="-382.8" font-family="Times New Roman,serif" font-size="14.00">graphs Class Diagram</text>
<!-- ClassDiagram -->
<g id="node1" class="node">
<title>ClassDiagram</title>
<polygon fill="none" stroke="black" points="9.5,-334.5 9.5,-355.5 250.5,-355.5 250.5,-334.5 9.5,-334.5"/>
<text text-anchor="start" x="12.5" y="-342.3" font-family="Times New Roman,serif" font-weight="bold" font-size="14.00">ClassDiagram:GraphBase</text>
<polygon fill="none" stroke="black" points="9.5,-286.5 9.5,-334.5 250.5,-334.5 250.5,-286.5 9.5,-286.5"/>
<text text-anchor="start" x="33.5" y="-321.3" font-family="Times New Roman,serif" font-weight="bold" font-size="14.00">properties</text>
<text text-anchor="start" x="32.5" y="-307.3" font-family="Times New Roman,serif" font-size="14.00">&#45; #classList</text>
<text text-anchor="start" x="12.5" y="-293.3" font-family="Times New Roman,serif" font-size="14.00">&#45; #dependencyList</text>
<polygon fill="none" stroke="black" points="9.5,-224.5 9.5,-286.5 250.5,-286.5 250.5,-224.5 9.5,-224.5"/>
<text text-anchor="start" x="104" y="-273.3" font-family="Times New Roman,serif" font-weight="bold" font-size="14.00">methods</text>
<text text-anchor="start" x="12.5" y="-259.3" font-family="Times New Roman,serif" font-size="14.00">+ constructor (dependencyList, classList)</text>
<text text-anchor="start" x="87" y="-245.3" font-family="Times New Roman,serif" font-size="14.00">+ generate (dir)</text>
<text text-anchor="start" x="44" y="-231.3" font-family="Times New Roman,serif" font-size="14.00">+ createClassNode (classItem)</text>
<polygon fill="none" stroke="black" points="8,-224 8,-357 251,-357 251,-224 8,-224"/>
</g>
<!-- GraphBase -->
<g id="node2" class="node">
<title>GraphBase</title>
<polygon fill="none" stroke="black" points="743.5,-144 743.5,-165 888.5,-165 888.5,-144 743.5,-144"/>
<text text-anchor="start" x="746.5" y="-151.8" font-family="Times New Roman,serif" font-weight="bold" font-size="14.00">GraphBase</text>
<polygon fill="none" stroke="black" points="743.5,-123 743.5,-144 888.5,-144 888.5,-123 743.5,-123"/>
<text text-anchor="start" x="746.5" y="-130.8" font-family="Times New Roman,serif" font-weight="bold" font-size="14.00">properties</text>
<polygon fill="none" stroke="black" points="743.5,-5 743.5,-123 888.5,-123 888.5,-5 743.5,-5"/>
<text text-anchor="start" x="790" y="-109.8" font-family="Times New Roman,serif" font-weight="bold" font-size="14.00">methods</text>
<text text-anchor="start" x="772.5" y="-95.8" font-family="Times New Roman,serif" font-size="14.00">+ digraph (title)</text>
<text text-anchor="start" x="766.5" y="-81.8" font-family="Times New Roman,serif" font-size="14.00">+ nodeStart (title)</text>
<text text-anchor="start" x="772.5" y="-67.8" font-family="Times New Roman,serif" font-size="14.00">+ nodeFinish ()</text>
<text text-anchor="start" x="753" y="-53.8" font-family="Times New Roman,serif" font-size="14.00">+ recordDigraph (title)</text>
<text text-anchor="start" x="751.5" y="-39.8" font-family="Times New Roman,serif" font-size="14.00">+ isNodeModule (dep)</text>
<text text-anchor="start" x="746.5" y="-25.8" font-family="Times New Roman,serif" font-size="14.00">+ inSameDirectory (dep)</text>
<text text-anchor="start" x="780.5" y="-11.8" font-family="Times New Roman,serif" font-size="14.00">+ generate ()</text>
<polygon fill="none" stroke="black" points="742,-4 742,-166 889,-166 889,-4 742,-4"/>
</g>
<!-- ClassDiagram&#45;&gt;GraphBase -->
<g id="edge1" class="edge">
<title>ClassDiagram&#45;&gt;GraphBase</title>
<path fill="none" stroke="black" d="M237,-219.95C247.1,-214.8 257.36,-210.05 267.5,-206 421.22,-144.63 612.34,-111.86 723.47,-96.76"/>
<polygon fill="none" stroke="black" points="724.19,-100.19 733.64,-95.4 723.26,-93.26 724.19,-100.19"/>
</g>
<!-- ExportGraph -->
<g id="node3" class="node">
<title>ExportGraph</title>
<polygon fill="none" stroke="black" points="286.5,-321.5 286.5,-342.5 615.5,-342.5 615.5,-321.5 286.5,-321.5"/>
<text text-anchor="start" x="289.5" y="-329.3" font-family="Times New Roman,serif" font-weight="bold" font-size="14.00">ExportGraph:GraphBase</text>
<polygon fill="none" stroke="black" points="286.5,-300.5 286.5,-321.5 615.5,-321.5 615.5,-300.5 286.5,-300.5"/>
<text text-anchor="start" x="289.5" y="-308.3" font-family="Times New Roman,serif" font-weight="bold" font-size="14.00">properties</text>
<polygon fill="none" stroke="black" points="286.5,-238.5 286.5,-300.5 615.5,-300.5 615.5,-238.5 286.5,-238.5"/>
<text text-anchor="start" x="425" y="-287.3" font-family="Times New Roman,serif" font-weight="bold" font-size="14.00">methods</text>
<text text-anchor="start" x="289.5" y="-273.3" font-family="Times New Roman,serif" font-size="14.00">+ constructor (dependencyList, exportList, moduleArray)</text>
<text text-anchor="start" x="408" y="-259.3" font-family="Times New Roman,serif" font-size="14.00">+ generate (dir)</text>
<text text-anchor="start" x="340" y="-245.3" font-family="Times New Roman,serif" font-size="14.00">+ createModuleNode (mod, exportList)</text>
<polygon fill="none" stroke="black" points="285,-237.5 285,-343.5 616,-343.5 616,-237.5 285,-237.5"/>
</g>
<!-- ExportGraph&#45;&gt;GraphBase -->
<g id="edge2" class="edge">
<title>ExportGraph&#45;&gt;GraphBase</title>
<path fill="none" stroke="black" d="M551.2,-233.35C605.56,-203.05 672.12,-165.94 724.85,-136.54"/>
<polygon fill="none" stroke="black" points="726.83,-139.45 733.86,-131.52 723.42,-133.33 726.83,-139.45"/>
</g>
<!-- NodeModulesGraph -->
<g id="node4" class="node">
<title>NodeModulesGraph</title>
<polygon fill="none" stroke="black" points="651.5,-321.5 651.5,-342.5 979.5,-342.5 979.5,-321.5 651.5,-321.5"/>
<text text-anchor="start" x="654.5" y="-329.3" font-family="Times New Roman,serif" font-weight="bold" font-size="14.00">NodeModulesGraph:GraphBase</text>
<polygon fill="none" stroke="black" points="651.5,-300.5 651.5,-321.5 979.5,-321.5 979.5,-300.5 651.5,-300.5"/>
<text text-anchor="start" x="654.5" y="-308.3" font-family="Times New Roman,serif" font-weight="bold" font-size="14.00">properties</text>
<polygon fill="none" stroke="black" points="651.5,-238.5 651.5,-300.5 979.5,-300.5 979.5,-238.5 651.5,-238.5"/>
<text text-anchor="start" x="789.5" y="-287.3" font-family="Times New Roman,serif" font-weight="bold" font-size="14.00">methods</text>
<text text-anchor="start" x="654.5" y="-273.3" font-family="Times New Roman,serif" font-size="14.00">+ constructor (dependencyList, nodeModuleDependents)</text>
<text text-anchor="start" x="780" y="-259.3" font-family="Times New Roman,serif" font-size="14.00">+ generate ()</text>
<text text-anchor="start" x="725.5" y="-245.3" font-family="Times New Roman,serif" font-size="14.00">+ createNodeModulesSection ()</text>
<polygon fill="none" stroke="black" points="650.5,-237.5 650.5,-343.5 980.5,-343.5 980.5,-237.5 650.5,-237.5"/>
</g>
<!-- NodeModulesGraph&#45;&gt;GraphBase -->
<g id="edge3" class="edge">
<title>NodeModulesGraph&#45;&gt;GraphBase</title>
<path fill="none" stroke="black" d="M815.5,-233.35C815.5,-216.88 815.5,-198.39 815.5,-180.22"/>
<polygon fill="none" stroke="black" points="819,-180.17 815.5,-170.17 812,-180.17 819,-180.17"/>
</g>
<!-- PackageGraph -->
<g id="node5" class="node">
<title>PackageGraph</title>
<polygon fill="none" stroke="black" points="1016.5,-348.5 1016.5,-369.5 1281.5,-369.5 1281.5,-348.5 1016.5,-348.5"/>
<text text-anchor="start" x="1019.5" y="-356.3" font-family="Times New Roman,serif" font-weight="bold" font-size="14.00">PackageGraph:GraphBase</text>
<polygon fill="none" stroke="black" points="1016.5,-286.5 1016.5,-348.5 1281.5,-348.5 1281.5,-286.5 1016.5,-286.5"/>
<text text-anchor="start" x="1041" y="-335.3" font-family="Times New Roman,serif" font-weight="bold" font-size="14.00">properties</text>
<text text-anchor="start" x="1028" y="-321.3" font-family="Times New Roman,serif" font-size="14.00">&#45; #moduleArray</text>
<text text-anchor="start" x="1020" y="-307.3" font-family="Times New Roman,serif" font-size="14.00">&#45; #dependencyList</text>
<text text-anchor="start" x="1019.5" y="-293.3" font-family="Times New Roman,serif" font-size="14.00">&#45; #diagramsHTML</text>
<polygon fill="none" stroke="black" points="1016.5,-210.5 1016.5,-286.5 1281.5,-286.5 1281.5,-210.5 1016.5,-210.5"/>
<text text-anchor="start" x="1123" y="-273.3" font-family="Times New Roman,serif" font-weight="bold" font-size="14.00">methods</text>
<text text-anchor="start" x="1019.5" y="-259.3" font-family="Times New Roman,serif" font-size="14.00">+ constructor (moduleArray, dependencyList)</text>
<text text-anchor="start" x="1113.5" y="-245.3" font-family="Times New Roman,serif" font-size="14.00">+ generate ()</text>
<text text-anchor="start" x="1057.5" y="-231.3" font-family="Times New Roman,serif" font-size="14.00">+ createPackageDependencies ()</text>
<text text-anchor="start" x="1078" y="-217.3" font-family="Times New Roman,serif" font-size="14.00">+ createPackageNodes ()</text>
<polygon fill="none" stroke="black" points="1015,-210 1015,-371 1282,-371 1282,-210 1015,-210"/>
</g>
<!-- PackageGraph&#45;&gt;GraphBase -->
<g id="edge4" class="edge">
<title>PackageGraph&#45;&gt;GraphBase</title>
<path fill="none" stroke="black" d="M1011.61,-205.85C975.88,-184.01 938.27,-161.02 905.64,-141.09"/>
<polygon fill="none" stroke="black" points="907.38,-138.05 897.02,-135.82 903.73,-144.02 907.38,-138.05"/>
</g>
<!-- RelationsGraph -->
<g id="node6" class="node">
<title>RelationsGraph</title>
<polygon fill="none" stroke="black" points="1317.5,-328.5 1317.5,-349.5 1582.5,-349.5 1582.5,-328.5 1317.5,-328.5"/>
<text text-anchor="start" x="1320.5" y="-336.3" font-family="Times New Roman,serif" font-weight="bold" font-size="14.00">RelationsGraph:GraphBase</text>
<polygon fill="none" stroke="black" points="1317.5,-307.5 1317.5,-328.5 1582.5,-328.5 1582.5,-307.5 1317.5,-307.5"/>
<text text-anchor="start" x="1320.5" y="-315.3" font-family="Times New Roman,serif" font-weight="bold" font-size="14.00">properties</text>
<polygon fill="none" stroke="black" points="1317.5,-231.5 1317.5,-307.5 1582.5,-307.5 1582.5,-231.5 1317.5,-231.5"/>
<text text-anchor="start" x="1424" y="-294.3" font-family="Times New Roman,serif" font-weight="bold" font-size="14.00">methods</text>
<text text-anchor="start" x="1320.5" y="-280.3" font-family="Times New Roman,serif" font-size="14.00">+ constructor (dependencyList, moduleArray)</text>
<text text-anchor="start" x="1414.5" y="-266.3" font-family="Times New Roman,serif" font-size="14.00">+ generate ()</text>
<text text-anchor="start" x="1346.5" y="-252.3" font-family="Times New Roman,serif" font-size="14.00">&#45; #createModuleRelationNode (mod)</text>
<text text-anchor="start" x="1358" y="-238.3" font-family="Times New Roman,serif" font-size="14.00">&#45; #createNodeModulesSection ()</text>
<polygon fill="none" stroke="black" points="1316,-230.5 1316,-350.5 1583,-350.5 1583,-230.5 1316,-230.5"/>
</g>
<!-- RelationsGraph&#45;&gt;GraphBase -->
<g id="edge5" class="edge">
<title>RelationsGraph&#45;&gt;GraphBase</title>
<path fill="none" stroke="black" d="M1344.26,-226.39C1329.52,-218.9 1314.33,-211.85 1299.5,-206 1167.52,-153.97 1006.18,-119.38 907.15,-101.22"/>
<polygon fill="none" stroke="black" points="907.64,-97.75 897.17,-99.41 906.39,-104.64 907.64,-97.75"/>
</g>
</g>
</svg>
