<?xml version="1.0" encoding="UTF-8" standalone="no"?>
<!DOCTYPE svg PUBLIC "-//W3C//DTD SVG 1.1//EN"
 "http://www.w3.org/Graphics/SVG/1.1/DTD/svg11.dtd">
<!-- Generated by graphviz version 3.0.0 (20220226.1711)
 -->
<!-- Pages: 1 -->
<svg width="1160pt" height="228pt"
 viewBox="0.00 0.00 1160.00 228.00" xmlns="http://www.w3.org/2000/svg" xmlns:xlink="http://www.w3.org/1999/xlink">
<g id="graph0" class="graph" transform="scale(1 1) rotate(0) translate(4 224)">
<polygon fill="white" stroke="transparent" points="-4,4 -4,-224 1156,-224 1156,4 -4,4"/>
<text text-anchor="middle" x="576" y="-204.8" font-family="Times New Roman,serif" font-size="14.00">graphs Module Exports</text>
<!-- graphs/ClassDiagram.js -->
<g id="node1" class="node">
<title>graphs/ClassDiagram.js</title>
<polygon fill="lightblue" stroke="transparent" points="9,-121.5 9,-142.5 163,-142.5 163,-121.5 9,-121.5"/>
<polygon fill="none" stroke="black" points="9,-121.5 9,-142.5 163,-142.5 163,-121.5 9,-121.5"/>
<text text-anchor="start" x="12" y="-129.3" font-family="Times New Roman,serif" font-weight="bold" font-size="14.00">graphs/ClassDiagram.js</text>
<polygon fill="none" stroke="black" points="9,-115.5 9,-121.5 163,-121.5 163,-115.5 9,-115.5"/>
<polygon fill="none" stroke="black" points="9,-53.5 9,-115.5 163,-115.5 163,-53.5 9,-53.5"/>
<text text-anchor="start" x="42.5" y="-102.3" font-family="Times New Roman,serif" font-style="italic" font-size="14.00" fill="red">utils/file&#45;utils.js</text>
<text text-anchor="start" x="50.5" y="-88.3" font-family="Times New Roman,serif" font-size="14.00">cleanDirPath</text>
<text text-anchor="start" x="46.5" y="-74.3" font-family="Times New Roman,serif" font-style="italic" font-size="14.00" fill="red">GraphBase.js</text>
<text text-anchor="start" x="54.5" y="-60.3" font-family="Times New Roman,serif" font-size="14.00">GraphBase</text>
<polygon fill="none" stroke="black" points="8,-53 8,-144 164,-144 164,-53 8,-53"/>
</g>
<!-- graphs/ExportGraph.js -->
<g id="node2" class="node">
<title>graphs/ExportGraph.js</title>
<polygon fill="lightblue" stroke="transparent" points="199,-142.5 199,-163.5 347,-163.5 347,-142.5 199,-142.5"/>
<polygon fill="none" stroke="black" points="199,-142.5 199,-163.5 347,-163.5 347,-142.5 199,-142.5"/>
<text text-anchor="start" x="202" y="-150.3" font-family="Times New Roman,serif" font-weight="bold" font-size="14.00">graphs/ExportGraph.js</text>
<polygon fill="none" stroke="black" points="199,-136.5 199,-142.5 347,-142.5 347,-136.5 199,-136.5"/>
<polygon fill="none" stroke="black" points="199,-32.5 199,-136.5 347,-136.5 347,-32.5 199,-32.5"/>
<text text-anchor="start" x="229.5" y="-123.3" font-family="Times New Roman,serif" font-style="italic" font-size="14.00" fill="red">utils/file&#45;utils.js</text>
<text text-anchor="start" x="236" y="-109.3" font-family="Times New Roman,serif" font-size="14.00">moduleName</text>
<text text-anchor="start" x="230" y="-95.3" font-family="Times New Roman,serif" font-style="italic" font-size="14.00" fill="red">utils/list&#45;utils.js</text>
<text text-anchor="start" x="228" y="-81.3" font-family="Times New Roman,serif" font-size="14.00">getExportedList</text>
<text text-anchor="start" x="231" y="-67.3" font-family="Times New Roman,serif" font-size="14.00">getDependsOn</text>
<text text-anchor="start" x="233.5" y="-53.3" font-family="Times New Roman,serif" font-style="italic" font-size="14.00" fill="red">GraphBase.js</text>
<text text-anchor="start" x="241.5" y="-39.3" font-family="Times New Roman,serif" font-size="14.00">GraphBase</text>
<polygon fill="none" stroke="black" points="198,-32 198,-165 348,-165 348,-32 198,-32"/>
</g>
<!-- graphs/GraphBase.js -->
<g id="node3" class="node">
<title>graphs/GraphBase.js</title>
<polygon fill="lightblue" stroke="transparent" points="383,-107.5 383,-128.5 519,-128.5 519,-107.5 383,-107.5"/>
<polygon fill="none" stroke="black" points="383,-107.5 383,-128.5 519,-128.5 519,-107.5 383,-107.5"/>
<text text-anchor="start" x="386" y="-115.3" font-family="Times New Roman,serif" font-weight="bold" font-size="14.00">graphs/GraphBase.js</text>
<polygon fill="none" stroke="black" points="383,-101.5 383,-107.5 519,-107.5 519,-101.5 383,-101.5"/>
<polygon fill="none" stroke="black" points="383,-67.5 383,-101.5 519,-101.5 519,-67.5 383,-67.5"/>
<text text-anchor="start" x="407.5" y="-88.3" font-family="Times New Roman,serif" font-style="italic" font-size="14.00" fill="red">utils/file&#45;utils.js</text>
<text text-anchor="start" x="415.5" y="-74.3" font-family="Times New Roman,serif" font-size="14.00">cleanDirPath</text>
<polygon fill="none" stroke="black" points="382,-67 382,-130 520,-130 520,-67 382,-67"/>
</g>
<!-- graphs/NodeModulesGraph.js -->
<g id="node4" class="node">
<title>graphs/NodeModulesGraph.js</title>
<polygon fill="lightblue" stroke="transparent" points="556,-121.5 556,-142.5 747,-142.5 747,-121.5 556,-121.5"/>
<polygon fill="none" stroke="black" points="556,-121.5 556,-142.5 747,-142.5 747,-121.5 556,-121.5"/>
<text text-anchor="start" x="559" y="-129.3" font-family="Times New Roman,serif" font-weight="bold" font-size="14.00">graphs/NodeModulesGraph.js</text>
<polygon fill="none" stroke="black" points="556,-115.5 556,-121.5 747,-121.5 747,-115.5 556,-115.5"/>
<polygon fill="none" stroke="black" points="556,-53.5 556,-115.5 747,-115.5 747,-53.5 556,-53.5"/>
<text text-anchor="start" x="608.5" y="-102.3" font-family="Times New Roman,serif" font-style="italic" font-size="14.00" fill="red">utils/list&#45;utils.js</text>
<text text-anchor="start" x="595.5" y="-88.3" font-family="Times New Roman,serif" font-size="14.00">getNodeModuleList</text>
<text text-anchor="start" x="612" y="-74.3" font-family="Times New Roman,serif" font-style="italic" font-size="14.00" fill="red">GraphBase.js</text>
<text text-anchor="start" x="620" y="-60.3" font-family="Times New Roman,serif" font-size="14.00">GraphBase</text>
<polygon fill="none" stroke="black" points="554.5,-53 554.5,-144 747.5,-144 747.5,-53 554.5,-53"/>
</g>
<!-- graphs/PackageGraph.js -->
<g id="node5" class="node">
<title>graphs/PackageGraph.js</title>
<polygon fill="lightblue" stroke="transparent" points="783,-121.5 783,-142.5 943,-142.5 943,-121.5 783,-121.5"/>
<polygon fill="none" stroke="black" points="783,-121.5 783,-142.5 943,-142.5 943,-121.5 783,-121.5"/>
<text text-anchor="start" x="786" y="-129.3" font-family="Times New Roman,serif" font-weight="bold" font-size="14.00">graphs/PackageGraph.js</text>
<polygon fill="none" stroke="black" points="783,-115.5 783,-121.5 943,-121.5 943,-115.5 783,-115.5"/>
<polygon fill="none" stroke="black" points="783,-53.5 783,-115.5 943,-115.5 943,-53.5 783,-53.5"/>
<text text-anchor="start" x="819.5" y="-102.3" font-family="Times New Roman,serif" font-style="italic" font-size="14.00" fill="red">utils/file&#45;utils.js</text>
<text text-anchor="start" x="827.5" y="-88.3" font-family="Times New Roman,serif" font-size="14.00">cleanDirPath</text>
<text text-anchor="start" x="823.5" y="-74.3" font-family="Times New Roman,serif" font-style="italic" font-size="14.00" fill="red">GraphBase.js</text>
<text text-anchor="start" x="831.5" y="-60.3" font-family="Times New Roman,serif" font-size="14.00">GraphBase</text>
<polygon fill="none" stroke="black" points="782,-53 782,-144 944,-144 944,-53 782,-53"/>
</g>
<!-- graphs/RelationsGraph.js -->
<g id="node6" class="node">
<title>graphs/RelationsGraph.js</title>
<polygon fill="lightblue" stroke="transparent" points="979,-170.5 979,-191.5 1143,-191.5 1143,-170.5 979,-170.5"/>
<polygon fill="none" stroke="black" points="979,-170.5 979,-191.5 1143,-191.5 1143,-170.5 979,-170.5"/>
<text text-anchor="start" x="982" y="-178.3" font-family="Times New Roman,serif" font-weight="bold" font-size="14.00">graphs/RelationsGraph.js</text>
<polygon fill="none" stroke="black" points="979,-164.5 979,-170.5 1143,-170.5 1143,-164.5 979,-164.5"/>
<polygon fill="none" stroke="black" points="979,-4.5 979,-164.5 1143,-164.5 1143,-4.5 979,-4.5"/>
<text text-anchor="start" x="1017.5" y="-151.3" font-family="Times New Roman,serif" font-style="italic" font-size="14.00" fill="red">utils/file&#45;utils.js</text>
<text text-anchor="start" x="1025.5" y="-137.3" font-family="Times New Roman,serif" font-size="14.00">cleanDirPath</text>
<text text-anchor="start" x="1024" y="-123.3" font-family="Times New Roman,serif" font-size="14.00">moduleName</text>
<text text-anchor="start" x="1018" y="-109.3" font-family="Times New Roman,serif" font-style="italic" font-size="14.00" fill="red">utils/list&#45;utils.js</text>
<text text-anchor="start" x="1019.5" y="-95.3" font-family="Times New Roman,serif" font-size="14.00">getUsedByList</text>
<text text-anchor="start" x="1019" y="-81.3" font-family="Times New Roman,serif" font-size="14.00">getDependsOn</text>
<text text-anchor="start" x="1005" y="-67.3" font-family="Times New Roman,serif" font-size="14.00">getNodeModuleList</text>
<text text-anchor="start" x="1021.5" y="-53.3" font-family="Times New Roman,serif" font-style="italic" font-size="14.00" fill="red">GraphBase.js</text>
<text text-anchor="start" x="1029.5" y="-39.3" font-family="Times New Roman,serif" font-size="14.00">GraphBase</text>
<text text-anchor="start" x="1047.5" y="-25.3" font-family="Times New Roman,serif" font-style="italic" font-size="14.00" fill="red">path</text>
<text text-anchor="start" x="1048.5" y="-11.3" font-family="Times New Roman,serif" font-size="14.00">path</text>
<polygon fill="none" stroke="black" points="978,-4 978,-193 1144,-193 1144,-4 978,-4"/>
</g>
</g>
</svg>
