<?xml version="1.0" encoding="UTF-8" standalone="no"?>
<!DOCTYPE svg PUBLIC "-//W3C//DTD SVG 1.1//EN"
 "http://www.w3.org/Graphics/SVG/1.1/DTD/svg11.dtd">
<!-- Generated by graphviz version 3.0.0 (20220226.1711)
 -->
<!-- Pages: 1 -->
<svg width="1160pt" height="316pt"
 viewBox="0.00 0.00 1160.00 316.00" xmlns="http://www.w3.org/2000/svg" xmlns:xlink="http://www.w3.org/1999/xlink">
<g id="graph0" class="graph" transform="scale(1 1) rotate(0) translate(4 312)">
<polygon fill="white" stroke="transparent" points="-4,4 -4,-312 1156,-312 1156,4 -4,4"/>
<text text-anchor="middle" x="576" y="-292.8" font-family="Times New Roman,serif" font-size="14.00">graphs Module Exports</text>
<!-- graphs/ClassDiagram.js -->
<g id="node1" class="node">
<title>graphs/ClassDiagram.js</title>
<polygon fill="lightblue" stroke="transparent" points="9,-224 9,-245 163,-245 163,-224 9,-224"/>
<polygon fill="none" stroke="black" points="9,-224 9,-245 163,-245 163,-224 9,-224"/>
<text text-anchor="start" x="12" y="-231.8" font-family="Times New Roman,serif" font-weight="bold" font-size="14.00">graphs/ClassDiagram.js</text>
<polygon fill="none" stroke="black" points="9,-203 9,-224 163,-224 163,-203 9,-203"/>
<text text-anchor="start" x="12" y="-209.8" font-family="Times New Roman,serif" font-size="14.00">ClassDiagram</text>
<polygon fill="none" stroke="black" points="9,-141 9,-203 163,-203 163,-141 9,-141"/>
<text text-anchor="start" x="42.5" y="-189.8" font-family="Times New Roman,serif" font-style="italic" font-size="14.00" fill="red">utils/file&#45;utils.js</text>
<text text-anchor="start" x="50.5" y="-175.8" font-family="Times New Roman,serif" font-size="14.00">cleanDirPath</text>
<text text-anchor="start" x="46.5" y="-161.8" font-family="Times New Roman,serif" font-style="italic" font-size="14.00" fill="red">GraphBase.js</text>
<text text-anchor="start" x="54.5" y="-147.8" font-family="Times New Roman,serif" font-size="14.00">GraphBase</text>
<polygon fill="none" stroke="black" points="8,-140 8,-246 164,-246 164,-140 8,-140"/>
</g>
<!-- graphs/ExportGraph.js -->
<g id="node2" class="node">
<title>graphs/ExportGraph.js</title>
<polygon fill="lightblue" stroke="transparent" points="199,-245 199,-266 347,-266 347,-245 199,-245"/>
<polygon fill="none" stroke="black" points="199,-245 199,-266 347,-266 347,-245 199,-245"/>
<text text-anchor="start" x="202" y="-252.8" font-family="Times New Roman,serif" font-weight="bold" font-size="14.00">graphs/ExportGraph.js</text>
<polygon fill="none" stroke="black" points="199,-224 199,-245 347,-245 347,-224 199,-224"/>
<text text-anchor="start" x="202" y="-230.8" font-family="Times New Roman,serif" font-size="14.00">ExportGraph</text>
<polygon fill="none" stroke="black" points="199,-120 199,-224 347,-224 347,-120 199,-120"/>
<text text-anchor="start" x="229.5" y="-210.8" font-family="Times New Roman,serif" font-style="italic" font-size="14.00" fill="red">utils/file&#45;utils.js</text>
<text text-anchor="start" x="236" y="-196.8" font-family="Times New Roman,serif" font-size="14.00">moduleName</text>
<text text-anchor="start" x="230" y="-182.8" font-family="Times New Roman,serif" font-style="italic" font-size="14.00" fill="red">utils/list&#45;utils.js</text>
<text text-anchor="start" x="228" y="-168.8" font-family="Times New Roman,serif" font-size="14.00">getExportedList</text>
<text text-anchor="start" x="231" y="-154.8" font-family="Times New Roman,serif" font-size="14.00">getDependsOn</text>
<text text-anchor="start" x="233.5" y="-140.8" font-family="Times New Roman,serif" font-style="italic" font-size="14.00" fill="red">GraphBase.js</text>
<text text-anchor="start" x="241.5" y="-126.8" font-family="Times New Roman,serif" font-size="14.00">GraphBase</text>
<polygon fill="none" stroke="black" points="198,-119 198,-267 348,-267 348,-119 198,-119"/>
</g>
<!-- graphs/GraphBase.js -->
<g id="node3" class="node">
<title>graphs/GraphBase.js</title>
<polygon fill="lightblue" stroke="transparent" points="383,-210 383,-231 519,-231 519,-210 383,-210"/>
<polygon fill="none" stroke="black" points="383,-210 383,-231 519,-231 519,-210 383,-210"/>
<text text-anchor="start" x="386" y="-217.8" font-family="Times New Roman,serif" font-weight="bold" font-size="14.00">graphs/GraphBase.js</text>
<polygon fill="none" stroke="black" points="383,-189 383,-210 519,-210 519,-189 383,-189"/>
<text text-anchor="start" x="386" y="-195.8" font-family="Times New Roman,serif" font-size="14.00">GraphBase</text>
<polygon fill="none" stroke="black" points="383,-155 383,-189 519,-189 519,-155 383,-155"/>
<text text-anchor="start" x="407.5" y="-175.8" font-family="Times New Roman,serif" font-style="italic" font-size="14.00" fill="red">utils/file&#45;utils.js</text>
<text text-anchor="start" x="415.5" y="-161.8" font-family="Times New Roman,serif" font-size="14.00">cleanDirPath</text>
<polygon fill="none" stroke="black" points="382,-154 382,-232 520,-232 520,-154 382,-154"/>
</g>
<!-- graphs/NodeModulesGraph.js -->
<g id="node4" class="node">
<title>graphs/NodeModulesGraph.js</title>
<polygon fill="lightblue" stroke="transparent" points="556,-224 556,-245 747,-245 747,-224 556,-224"/>
<polygon fill="none" stroke="black" points="556,-224 556,-245 747,-245 747,-224 556,-224"/>
<text text-anchor="start" x="559" y="-231.8" font-family="Times New Roman,serif" font-weight="bold" font-size="14.00">graphs/NodeModulesGraph.js</text>
<polygon fill="none" stroke="black" points="556,-203 556,-224 747,-224 747,-203 556,-203"/>
<text text-anchor="start" x="559" y="-209.8" font-family="Times New Roman,serif" font-size="14.00">NodeModulesGraph</text>
<polygon fill="none" stroke="black" points="556,-141 556,-203 747,-203 747,-141 556,-141"/>
<text text-anchor="start" x="608.5" y="-189.8" font-family="Times New Roman,serif" font-style="italic" font-size="14.00" fill="red">utils/list&#45;utils.js</text>
<text text-anchor="start" x="595.5" y="-175.8" font-family="Times New Roman,serif" font-size="14.00">getNodeModuleList</text>
<text text-anchor="start" x="612" y="-161.8" font-family="Times New Roman,serif" font-style="italic" font-size="14.00" fill="red">GraphBase.js</text>
<text text-anchor="start" x="620" y="-147.8" font-family="Times New Roman,serif" font-size="14.00">GraphBase</text>
<polygon fill="none" stroke="black" points="554.5,-140 554.5,-246 747.5,-246 747.5,-140 554.5,-140"/>
</g>
<!-- graphs/PackageGraph.js -->
<g id="node5" class="node">
<title>graphs/PackageGraph.js</title>
<polygon fill="lightblue" stroke="transparent" points="783,-231 783,-252 943,-252 943,-231 783,-231"/>
<polygon fill="none" stroke="black" points="783,-231 783,-252 943,-252 943,-231 783,-231"/>
<text text-anchor="start" x="786" y="-238.8" font-family="Times New Roman,serif" font-weight="bold" font-size="14.00">graphs/PackageGraph.js</text>
<polygon fill="none" stroke="black" points="783,-210 783,-231 943,-231 943,-210 783,-210"/>
<text text-anchor="start" x="786" y="-216.8" font-family="Times New Roman,serif" font-size="14.00">PackageGraph</text>
<polygon fill="none" stroke="black" points="783,-134 783,-210 943,-210 943,-134 783,-134"/>
<text text-anchor="start" x="819.5" y="-196.8" font-family="Times New Roman,serif" font-style="italic" font-size="14.00" fill="red">utils/file&#45;utils.js</text>
<text text-anchor="start" x="827.5" y="-182.8" font-family="Times New Roman,serif" font-size="14.00">cleanDirPath</text>
<text text-anchor="start" x="814.5" y="-168.8" font-family="Times New Roman,serif" font-size="14.00">removeExtension</text>
<text text-anchor="start" x="823.5" y="-154.8" font-family="Times New Roman,serif" font-style="italic" font-size="14.00" fill="red">GraphBase.js</text>
<text text-anchor="start" x="831.5" y="-140.8" font-family="Times New Roman,serif" font-size="14.00">GraphBase</text>
<polygon fill="none" stroke="black" points="782,-133 782,-253 944,-253 944,-133 782,-133"/>
</g>
<!-- graphs/RelationsGraph.js -->
<g id="node6" class="node">
<title>graphs/RelationsGraph.js</title>
<polygon fill="lightblue" stroke="transparent" points="979,-259 979,-280 1143,-280 1143,-259 979,-259"/>
<polygon fill="none" stroke="black" points="979,-259 979,-280 1143,-280 1143,-259 979,-259"/>
<text text-anchor="start" x="982" y="-266.8" font-family="Times New Roman,serif" font-weight="bold" font-size="14.00">graphs/RelationsGraph.js</text>
<polygon fill="none" stroke="black" points="979,-238 979,-259 1143,-259 1143,-238 979,-238"/>
<text text-anchor="start" x="982" y="-244.8" font-family="Times New Roman,serif" font-size="14.00">RelationsGraph</text>
<polygon fill="none" stroke="black" points="979,-106 979,-238 1143,-238 1143,-106 979,-106"/>
<text text-anchor="start" x="1017.5" y="-224.8" font-family="Times New Roman,serif" font-style="italic" font-size="14.00" fill="red">utils/file&#45;utils.js</text>
<text text-anchor="start" x="1025.5" y="-210.8" font-family="Times New Roman,serif" font-size="14.00">cleanDirPath</text>
<text text-anchor="start" x="1024" y="-196.8" font-family="Times New Roman,serif" font-size="14.00">moduleName</text>
<text text-anchor="start" x="1018" y="-182.8" font-family="Times New Roman,serif" font-style="italic" font-size="14.00" fill="red">utils/list&#45;utils.js</text>
<text text-anchor="start" x="1019.5" y="-168.8" font-family="Times New Roman,serif" font-size="14.00">getUsedByList</text>
<text text-anchor="start" x="1019" y="-154.8" font-family="Times New Roman,serif" font-size="14.00">getDependsOn</text>
<text text-anchor="start" x="1005" y="-140.8" font-family="Times New Roman,serif" font-size="14.00">getNodeModuleList</text>
<text text-anchor="start" x="1021.5" y="-126.8" font-family="Times New Roman,serif" font-style="italic" font-size="14.00" fill="red">GraphBase.js</text>
<text text-anchor="start" x="1029.5" y="-112.8" font-family="Times New Roman,serif" font-size="14.00">GraphBase</text>
<polygon fill="none" stroke="black" points="978,-105 978,-281 1144,-281 1144,-105 978,-105"/>
</g>
<!-- graphs/RelationsGraph.js&#45;node_modules -->
<g id="node7" class="node">
<title>graphs/RelationsGraph.js&#45;node_modules</title>
<polygon fill="none" stroke="black" points="1017,-38.5 1017,-59.5 1106,-59.5 1106,-38.5 1017,-38.5"/>
<text text-anchor="start" x="1020" y="-45.3" font-family="Times New Roman,serif" font-size="14.00">node_modules</text>
<polygon fill="none" stroke="black" points="1017,-4.5 1017,-38.5 1106,-38.5 1106,-4.5 1017,-4.5"/>
<text text-anchor="start" x="1048" y="-25.3" font-family="Times New Roman,serif" font-style="italic" font-size="14.00" fill="red">path</text>
<text text-anchor="start" x="1049" y="-11.3" font-family="Times New Roman,serif" font-size="14.00">path</text>
<polygon fill="none" stroke="black" points="1015.5,-4 1015.5,-61 1106.5,-61 1106.5,-4 1015.5,-4"/>
</g>
<!-- graphs/RelationsGraph.js&#45;&gt;graphs/RelationsGraph.js&#45;node_modules -->
<g id="edge1" class="edge">
<title>graphs/RelationsGraph.js&#45;&gt;graphs/RelationsGraph.js&#45;node_modules</title>
<path fill="none" stroke="black" d="M1061,-100.72C1061,-91.91 1061,-83.31 1061,-75.36"/>
<polygon fill="black" stroke="black" points="1064.5,-75.32 1061,-65.32 1057.5,-75.32 1064.5,-75.32"/>
</g>
</g>
</svg>
