<?xml version="1.0" encoding="UTF-8" standalone="no"?>
<!DOCTYPE svg PUBLIC "-//W3C//DTD SVG 1.1//EN"
 "http://www.w3.org/Graphics/SVG/1.1/DTD/svg11.dtd">
<!-- Generated by graphviz version 3.0.0 (20220226.1711)
 -->
<!-- Pages: 1 -->
<svg width="1160pt" height="243pt"
 viewBox="0.00 0.00 1160.00 243.00" xmlns="http://www.w3.org/2000/svg" xmlns:xlink="http://www.w3.org/1999/xlink">
<g id="graph0" class="graph" transform="scale(1 1) rotate(0) translate(4 239)">
<polygon fill="white" stroke="transparent" points="-4,4 -4,-239 1156,-239 1156,4 -4,4"/>
<text text-anchor="middle" x="576" y="-219.8" font-family="Times New Roman,serif" font-size="14.00">graphs Module Exports</text>
<!-- graphs/ClassDiagram.js -->
<g id="node1" class="node">
<title>graphs/ClassDiagram.js</title>
<polygon fill="lightblue" stroke="transparent" points="9,-137 9,-158 163,-158 163,-137 9,-137"/>
<polygon fill="none" stroke="black" points="9,-137 9,-158 163,-158 163,-137 9,-137"/>
<text text-anchor="start" x="12" y="-144.8" font-family="Times New Roman,serif" font-weight="bold" font-size="14.00">graphs/ClassDiagram.js</text>
<polygon fill="none" stroke="black" points="9,-116 9,-137 163,-137 163,-116 9,-116"/>
<text text-anchor="start" x="12" y="-122.8" font-family="Times New Roman,serif" font-size="14.00">ClassDiagram</text>
<polygon fill="none" stroke="black" points="9,-54 9,-116 163,-116 163,-54 9,-54"/>
<text text-anchor="start" x="42.5" y="-102.8" font-family="Times New Roman,serif" font-style="italic" font-size="14.00" fill="red">utils/file&#45;utils.js</text>
<text text-anchor="start" x="50.5" y="-88.8" font-family="Times New Roman,serif" font-size="14.00">cleanDirPath</text>
<text text-anchor="start" x="46.5" y="-74.8" font-family="Times New Roman,serif" font-style="italic" font-size="14.00" fill="red">GraphBase.js</text>
<text text-anchor="start" x="54.5" y="-60.8" font-family="Times New Roman,serif" font-size="14.00">GraphBase</text>
<polygon fill="none" stroke="black" points="8,-53 8,-159 164,-159 164,-53 8,-53"/>
</g>
<!-- graphs/ExportGraph.js -->
<g id="node2" class="node">
<title>graphs/ExportGraph.js</title>
<polygon fill="lightblue" stroke="transparent" points="199,-158 199,-179 347,-179 347,-158 199,-158"/>
<polygon fill="none" stroke="black" points="199,-158 199,-179 347,-179 347,-158 199,-158"/>
<text text-anchor="start" x="202" y="-165.8" font-family="Times New Roman,serif" font-weight="bold" font-size="14.00">graphs/ExportGraph.js</text>
<polygon fill="none" stroke="black" points="199,-137 199,-158 347,-158 347,-137 199,-137"/>
<text text-anchor="start" x="202" y="-143.8" font-family="Times New Roman,serif" font-size="14.00">ExportGraph</text>
<polygon fill="none" stroke="black" points="199,-33 199,-137 347,-137 347,-33 199,-33"/>
<text text-anchor="start" x="229.5" y="-123.8" font-family="Times New Roman,serif" font-style="italic" font-size="14.00" fill="red">utils/file&#45;utils.js</text>
<text text-anchor="start" x="236" y="-109.8" font-family="Times New Roman,serif" font-size="14.00">moduleName</text>
<text text-anchor="start" x="230" y="-95.8" font-family="Times New Roman,serif" font-style="italic" font-size="14.00" fill="red">utils/list&#45;utils.js</text>
<text text-anchor="start" x="228" y="-81.8" font-family="Times New Roman,serif" font-size="14.00">getExportedList</text>
<text text-anchor="start" x="231" y="-67.8" font-family="Times New Roman,serif" font-size="14.00">getDependsOn</text>
<text text-anchor="start" x="233.5" y="-53.8" font-family="Times New Roman,serif" font-style="italic" font-size="14.00" fill="red">GraphBase.js</text>
<text text-anchor="start" x="241.5" y="-39.8" font-family="Times New Roman,serif" font-size="14.00">GraphBase</text>
<polygon fill="none" stroke="black" points="198,-32 198,-180 348,-180 348,-32 198,-32"/>
</g>
<!-- graphs/GraphBase.js -->
<g id="node3" class="node">
<title>graphs/GraphBase.js</title>
<polygon fill="lightblue" stroke="transparent" points="383,-123 383,-144 519,-144 519,-123 383,-123"/>
<polygon fill="none" stroke="black" points="383,-123 383,-144 519,-144 519,-123 383,-123"/>
<text text-anchor="start" x="386" y="-130.8" font-family="Times New Roman,serif" font-weight="bold" font-size="14.00">graphs/GraphBase.js</text>
<polygon fill="none" stroke="black" points="383,-102 383,-123 519,-123 519,-102 383,-102"/>
<text text-anchor="start" x="386" y="-108.8" font-family="Times New Roman,serif" font-size="14.00">GraphBase</text>
<polygon fill="none" stroke="black" points="383,-68 383,-102 519,-102 519,-68 383,-68"/>
<text text-anchor="start" x="407.5" y="-88.8" font-family="Times New Roman,serif" font-style="italic" font-size="14.00" fill="red">utils/file&#45;utils.js</text>
<text text-anchor="start" x="415.5" y="-74.8" font-family="Times New Roman,serif" font-size="14.00">cleanDirPath</text>
<polygon fill="none" stroke="black" points="382,-67 382,-145 520,-145 520,-67 382,-67"/>
</g>
<!-- graphs/NodeModulesGraph.js -->
<g id="node4" class="node">
<title>graphs/NodeModulesGraph.js</title>
<polygon fill="lightblue" stroke="transparent" points="556,-137 556,-158 747,-158 747,-137 556,-137"/>
<polygon fill="none" stroke="black" points="556,-137 556,-158 747,-158 747,-137 556,-137"/>
<text text-anchor="start" x="559" y="-144.8" font-family="Times New Roman,serif" font-weight="bold" font-size="14.00">graphs/NodeModulesGraph.js</text>
<polygon fill="none" stroke="black" points="556,-116 556,-137 747,-137 747,-116 556,-116"/>
<text text-anchor="start" x="559" y="-122.8" font-family="Times New Roman,serif" font-size="14.00">NodeModulesGraph</text>
<polygon fill="none" stroke="black" points="556,-54 556,-116 747,-116 747,-54 556,-54"/>
<text text-anchor="start" x="608.5" y="-102.8" font-family="Times New Roman,serif" font-style="italic" font-size="14.00" fill="red">utils/list&#45;utils.js</text>
<text text-anchor="start" x="595.5" y="-88.8" font-family="Times New Roman,serif" font-size="14.00">getNodeModuleList</text>
<text text-anchor="start" x="612" y="-74.8" font-family="Times New Roman,serif" font-style="italic" font-size="14.00" fill="red">GraphBase.js</text>
<text text-anchor="start" x="620" y="-60.8" font-family="Times New Roman,serif" font-size="14.00">GraphBase</text>
<polygon fill="none" stroke="black" points="554.5,-53 554.5,-159 747.5,-159 747.5,-53 554.5,-53"/>
</g>
<!-- graphs/PackageGraph.js -->
<g id="node5" class="node">
<title>graphs/PackageGraph.js</title>
<polygon fill="lightblue" stroke="transparent" points="783,-137 783,-158 943,-158 943,-137 783,-137"/>
<polygon fill="none" stroke="black" points="783,-137 783,-158 943,-158 943,-137 783,-137"/>
<text text-anchor="start" x="786" y="-144.8" font-family="Times New Roman,serif" font-weight="bold" font-size="14.00">graphs/PackageGraph.js</text>
<polygon fill="none" stroke="black" points="783,-116 783,-137 943,-137 943,-116 783,-116"/>
<text text-anchor="start" x="786" y="-122.8" font-family="Times New Roman,serif" font-size="14.00">PackageGraph</text>
<polygon fill="none" stroke="black" points="783,-54 783,-116 943,-116 943,-54 783,-54"/>
<text text-anchor="start" x="819.5" y="-102.8" font-family="Times New Roman,serif" font-style="italic" font-size="14.00" fill="red">utils/file&#45;utils.js</text>
<text text-anchor="start" x="827.5" y="-88.8" font-family="Times New Roman,serif" font-size="14.00">cleanDirPath</text>
<text text-anchor="start" x="823.5" y="-74.8" font-family="Times New Roman,serif" font-style="italic" font-size="14.00" fill="red">GraphBase.js</text>
<text text-anchor="start" x="831.5" y="-60.8" font-family="Times New Roman,serif" font-size="14.00">GraphBase</text>
<polygon fill="none" stroke="black" points="782,-53 782,-159 944,-159 944,-53 782,-53"/>
</g>
<!-- graphs/RelationsGraph.js -->
<g id="node6" class="node">
<title>graphs/RelationsGraph.js</title>
<polygon fill="lightblue" stroke="transparent" points="979,-186 979,-207 1143,-207 1143,-186 979,-186"/>
<polygon fill="none" stroke="black" points="979,-186 979,-207 1143,-207 1143,-186 979,-186"/>
<text text-anchor="start" x="982" y="-193.8" font-family="Times New Roman,serif" font-weight="bold" font-size="14.00">graphs/RelationsGraph.js</text>
<polygon fill="none" stroke="black" points="979,-165 979,-186 1143,-186 1143,-165 979,-165"/>
<text text-anchor="start" x="982" y="-171.8" font-family="Times New Roman,serif" font-size="14.00">RelationsGraph</text>
<polygon fill="none" stroke="black" points="979,-5 979,-165 1143,-165 1143,-5 979,-5"/>
<text text-anchor="start" x="1017.5" y="-151.8" font-family="Times New Roman,serif" font-style="italic" font-size="14.00" fill="red">utils/file&#45;utils.js</text>
<text text-anchor="start" x="1025.5" y="-137.8" font-family="Times New Roman,serif" font-size="14.00">cleanDirPath</text>
<text text-anchor="start" x="1024" y="-123.8" font-family="Times New Roman,serif" font-size="14.00">moduleName</text>
<text text-anchor="start" x="1018" y="-109.8" font-family="Times New Roman,serif" font-style="italic" font-size="14.00" fill="red">utils/list&#45;utils.js</text>
<text text-anchor="start" x="1019.5" y="-95.8" font-family="Times New Roman,serif" font-size="14.00">getUsedByList</text>
<text text-anchor="start" x="1019" y="-81.8" font-family="Times New Roman,serif" font-size="14.00">getDependsOn</text>
<text text-anchor="start" x="1005" y="-67.8" font-family="Times New Roman,serif" font-size="14.00">getNodeModuleList</text>
<text text-anchor="start" x="1021.5" y="-53.8" font-family="Times New Roman,serif" font-style="italic" font-size="14.00" fill="red">GraphBase.js</text>
<text text-anchor="start" x="1029.5" y="-39.8" font-family="Times New Roman,serif" font-size="14.00">GraphBase</text>
<text text-anchor="start" x="1047.5" y="-25.8" font-family="Times New Roman,serif" font-style="italic" font-size="14.00" fill="red">path</text>
<text text-anchor="start" x="1048.5" y="-11.8" font-family="Times New Roman,serif" font-size="14.00">path</text>
<polygon fill="none" stroke="black" points="978,-4 978,-208 1144,-208 1144,-4 978,-4"/>
</g>
</g>
</svg>
