<?xml version="1.0" encoding="UTF-8" standalone="no"?>
<!DOCTYPE svg PUBLIC "-//W3C//DTD SVG 1.1//EN"
 "http://www.w3.org/Graphics/SVG/1.1/DTD/svg11.dtd">
<!-- Generated by graphviz version 3.0.0 (20220226.1711)
 -->
<!-- Pages: 1 -->
<svg width="708pt" height="323pt"
 viewBox="0.00 0.00 707.50 323.00" xmlns="http://www.w3.org/2000/svg" xmlns:xlink="http://www.w3.org/1999/xlink">
<g id="graph0" class="graph" transform="scale(1 1) rotate(0) translate(4 319)">
<polygon fill="white" stroke="transparent" points="-4,4 -4,-319 703.5,-319 703.5,4 -4,4"/>
<text text-anchor="middle" x="349.75" y="-299.8" font-family="Times New Roman,serif" font-size="14.00">utils Module Exports</text>
<!-- utils/file&#45;utils.js -->
<g id="node1" class="node">
<title>utils/file&#45;utils.js</title>
<polygon fill="lightblue" stroke="transparent" points="9.5,-266 9.5,-287 148.5,-287 148.5,-266 9.5,-266"/>
<polygon fill="none" stroke="black" points="9.5,-266 9.5,-287 148.5,-287 148.5,-266 9.5,-266"/>
<text text-anchor="start" x="32.5" y="-273.8" font-family="Times New Roman,serif" font-weight="bold" font-size="14.00">utils/file&#45;utils.js</text>
<polygon fill="none" stroke="black" points="9.5,-95 9.5,-266 148.5,-266 148.5,-95 9.5,-95"/>
<text text-anchor="start" x="43.5" y="-251.8" font-family="Times New Roman,serif" font-size="14.00">cleanDirPath</text>
<text text-anchor="start" x="12.5" y="-236.8" font-family="Times New Roman,serif" font-size="14.00">getDirectoriesRecursive</text>
<text text-anchor="start" x="45.5" y="-221.8" font-family="Times New Roman,serif" font-size="14.00">getFilename</text>
<text text-anchor="start" x="57.5" y="-206.8" font-family="Times New Roman,serif" font-size="14.00">getFiles</text>
<text text-anchor="start" x="29.5" y="-191.8" font-family="Times New Roman,serif" font-size="14.00">getFilesRecursive</text>
<text text-anchor="start" x="21.5" y="-176.8" font-family="Times New Roman,serif" font-size="14.00">getRelativePathParts</text>
<text text-anchor="start" x="42" y="-161.8" font-family="Times New Roman,serif" font-size="14.00">hasExtension</text>
<text text-anchor="start" x="42" y="-146.8" font-family="Times New Roman,serif" font-size="14.00">moduleName</text>
<text text-anchor="start" x="39.5" y="-131.8" font-family="Times New Roman,serif" font-size="14.00">normalizePath</text>
<text text-anchor="start" x="30.5" y="-116.8" font-family="Times New Roman,serif" font-size="14.00">removeExtension</text>
<text text-anchor="start" x="42" y="-101.8" font-family="Times New Roman,serif" font-size="14.00">safeWriteFile</text>
<polygon fill="none" stroke="black" points="9.5,-5 9.5,-95 148.5,-95 148.5,-5 9.5,-5"/>
<text text-anchor="start" x="51.5" y="-81.8" font-family="Times New Roman,serif" font-style="italic" font-size="14.00" fill="red">globals.js</text>
<text text-anchor="start" x="46.5" y="-67.8" font-family="Times New Roman,serif" font-size="14.00">EXT_LIST</text>
<text text-anchor="start" x="74" y="-53.8" font-family="Times New Roman,serif" font-style="italic" font-size="14.00" fill="red">fs</text>
<text text-anchor="start" x="73.5" y="-39.8" font-family="Times New Roman,serif" font-size="14.00">fs</text>
<text text-anchor="start" x="65.5" y="-25.8" font-family="Times New Roman,serif" font-style="italic" font-size="14.00" fill="red">path</text>
<text text-anchor="start" x="66.5" y="-11.8" font-family="Times New Roman,serif" font-size="14.00">path</text>
<polygon fill="none" stroke="black" points="8,-4 8,-288 149,-288 149,-4 8,-4"/>
</g>
<!-- utils/globals.js -->
<g id="node2" class="node">
<title>utils/globals.js</title>
<polygon fill="lightblue" stroke="transparent" points="184.5,-149 184.5,-170 278.5,-170 278.5,-149 184.5,-149"/>
<polygon fill="none" stroke="black" points="184.5,-149 184.5,-170 278.5,-170 278.5,-149 184.5,-149"/>
<text text-anchor="start" x="187.5" y="-156.8" font-family="Times New Roman,serif" font-weight="bold" font-size="14.00">utils/globals.js</text>
<polygon fill="none" stroke="black" points="184.5,-128 184.5,-149 278.5,-149 278.5,-128 184.5,-128"/>
<text text-anchor="start" x="187.5" y="-134.8" font-family="Times New Roman,serif" font-size="14.00">EXT_LIST</text>
<polygon fill="none" stroke="black" points="184.5,-122 184.5,-128 278.5,-128 278.5,-122 184.5,-122"/>
<polygon fill="none" stroke="black" points="183.5,-121 183.5,-171 279.5,-171 279.5,-121 183.5,-121"/>
</g>
<!-- utils/index.js -->
<g id="node3" class="node">
<title>utils/index.js</title>
<polygon fill="lightblue" stroke="transparent" points="314.5,-192 314.5,-213 396.5,-213 396.5,-192 314.5,-192"/>
<polygon fill="none" stroke="black" points="314.5,-192 314.5,-213 396.5,-213 396.5,-192 314.5,-192"/>
<text text-anchor="start" x="317.5" y="-199.8" font-family="Times New Roman,serif" font-weight="bold" font-size="14.00">utils/index.js</text>
<polygon fill="none" stroke="black" points="314.5,-141 314.5,-192 396.5,-192 396.5,-141 314.5,-141"/>
<text text-anchor="start" x="317.5" y="-177.8" font-family="Times New Roman,serif" font-size="14.00">undefined</text>
<text text-anchor="start" x="336.5" y="-162.8" font-family="Times New Roman,serif" font-size="14.00">file</text>
<text text-anchor="start" x="337" y="-147.8" font-family="Times New Roman,serif" font-size="14.00">list</text>
<polygon fill="none" stroke="black" points="314.5,-79 314.5,-141 396.5,-141 396.5,-79 314.5,-79"/>
<text text-anchor="start" x="326" y="-127.8" font-family="Times New Roman,serif" font-style="italic" font-size="14.00" fill="red">file&#45;utils.js</text>
<text text-anchor="start" x="334" y="-113.8" font-family="Times New Roman,serif" font-size="14.00">fileUtils</text>
<text text-anchor="start" x="326.5" y="-99.8" font-family="Times New Roman,serif" font-style="italic" font-size="14.00" fill="red">list&#45;utils.js</text>
<text text-anchor="start" x="334.5" y="-85.8" font-family="Times New Roman,serif" font-size="14.00">listUtils</text>
<polygon fill="none" stroke="black" points="313.5,-78 313.5,-214 397.5,-214 397.5,-78 313.5,-78"/>
</g>
<!-- utils/json.js -->
<g id="node4" class="node">
<title>utils/json.js</title>
<polygon fill="lightblue" stroke="transparent" points="432.5,-184 432.5,-205 512.5,-205 512.5,-184 432.5,-184"/>
<polygon fill="none" stroke="black" points="432.5,-184 432.5,-205 512.5,-205 512.5,-184 432.5,-184"/>
<text text-anchor="start" x="437.5" y="-191.8" font-family="Times New Roman,serif" font-weight="bold" font-size="14.00">utils/json.js</text>
<polygon fill="none" stroke="black" points="432.5,-148 432.5,-184 512.5,-184 512.5,-148 432.5,-148"/>
<text text-anchor="start" x="440.5" y="-169.8" font-family="Times New Roman,serif" font-size="14.00">jsonIn</text>
<text text-anchor="start" x="435.5" y="-154.8" font-family="Times New Roman,serif" font-size="14.00">jsonOut</text>
<polygon fill="none" stroke="black" points="432.5,-86 432.5,-148 512.5,-148 512.5,-86 432.5,-86"/>
<text text-anchor="start" x="443" y="-134.8" font-family="Times New Roman,serif" font-style="italic" font-size="14.00" fill="red">file&#45;utils.js</text>
<text text-anchor="start" x="435.5" y="-120.8" font-family="Times New Roman,serif" font-size="14.00">safeWriteFile</text>
<text text-anchor="start" x="467.5" y="-106.8" font-family="Times New Roman,serif" font-style="italic" font-size="14.00" fill="red">fs</text>
<text text-anchor="start" x="467" y="-92.8" font-family="Times New Roman,serif" font-size="14.00">fs</text>
<polygon fill="none" stroke="black" points="431.5,-85.5 431.5,-206.5 513.5,-206.5 513.5,-85.5 431.5,-85.5"/>
</g>
<!-- utils/list&#45;utils.js -->
<g id="node5" class="node">
<title>utils/list&#45;utils.js</title>
<polygon fill="lightblue" stroke="transparent" points="548.5,-200 548.5,-221 690.5,-221 690.5,-200 548.5,-200"/>
<polygon fill="none" stroke="black" points="548.5,-200 548.5,-221 690.5,-221 690.5,-200 548.5,-200"/>
<text text-anchor="start" x="573.5" y="-207.8" font-family="Times New Roman,serif" font-weight="bold" font-size="14.00">utils/list&#45;utils.js</text>
<polygon fill="none" stroke="black" points="548.5,-104 548.5,-200 690.5,-200 690.5,-104 548.5,-104"/>
<text text-anchor="start" x="572" y="-185.8" font-family="Times New Roman,serif" font-size="14.00">addToMapArray</text>
<text text-anchor="start" x="577.5" y="-170.8" font-family="Times New Roman,serif" font-size="14.00">getDependsOn</text>
<text text-anchor="start" x="574.5" y="-155.8" font-family="Times New Roman,serif" font-size="14.00">getExportedList</text>
<text text-anchor="start" x="563.5" y="-140.8" font-family="Times New Roman,serif" font-size="14.00">getNodeModuleList</text>
<text text-anchor="start" x="551.5" y="-125.8" font-family="Times New Roman,serif" font-size="14.00">getUniqueNodeModules</text>
<text text-anchor="start" x="578" y="-110.8" font-family="Times New Roman,serif" font-size="14.00">getUsedByList</text>
<polygon fill="none" stroke="black" points="548.5,-70 548.5,-104 690.5,-104 690.5,-70 548.5,-70"/>
<text text-anchor="start" x="606" y="-90.8" font-family="Times New Roman,serif" font-style="italic" font-size="14.00" fill="red">path</text>
<text text-anchor="start" x="607" y="-76.8" font-family="Times New Roman,serif" font-size="14.00">path</text>
<polygon fill="none" stroke="black" points="547.5,-69.5 547.5,-222.5 691.5,-222.5 691.5,-69.5 547.5,-69.5"/>
</g>
</g>
</svg>
