<?xml version="1.0" encoding="UTF-8" standalone="no"?>
<!DOCTYPE svg PUBLIC "-//W3C//DTD SVG 1.1//EN"
 "http://www.w3.org/Graphics/SVG/1.1/DTD/svg11.dtd">
<!-- Generated by graphviz version 3.0.0 (20220226.1711)
 -->
<!-- Pages: 1 -->
<svg width="708pt" height="396pt"
 viewBox="0.00 0.00 707.50 396.00" xmlns="http://www.w3.org/2000/svg" xmlns:xlink="http://www.w3.org/1999/xlink">
<g id="graph0" class="graph" transform="scale(1 1) rotate(0) translate(4 392)">
<polygon fill="white" stroke="transparent" points="-4,4 -4,-392 703.5,-392 703.5,4 -4,4"/>
<text text-anchor="middle" x="349.75" y="-372.8" font-family="Times New Roman,serif" font-size="14.00">utils Module Exports</text>
<!-- utils/file&#45;utils.js -->
<g id="node1" class="node">
<title>utils/file&#45;utils.js</title>
<polygon fill="lightblue" stroke="transparent" points="9.5,-339 9.5,-360 148.5,-360 148.5,-339 9.5,-339"/>
<polygon fill="none" stroke="black" points="9.5,-339 9.5,-360 148.5,-360 148.5,-339 9.5,-339"/>
<text text-anchor="start" x="32.5" y="-346.8" font-family="Times New Roman,serif" font-weight="bold" font-size="14.00">utils/file&#45;utils.js</text>
<polygon fill="none" stroke="black" points="9.5,-168 9.5,-339 148.5,-339 148.5,-168 9.5,-168"/>
<text text-anchor="start" x="43.5" y="-324.8" font-family="Times New Roman,serif" font-size="14.00">cleanDirPath</text>
<text text-anchor="start" x="12.5" y="-309.8" font-family="Times New Roman,serif" font-size="14.00">getDirectoriesRecursive</text>
<text text-anchor="start" x="45.5" y="-294.8" font-family="Times New Roman,serif" font-size="14.00">getFilename</text>
<text text-anchor="start" x="57.5" y="-279.8" font-family="Times New Roman,serif" font-size="14.00">getFiles</text>
<text text-anchor="start" x="29.5" y="-264.8" font-family="Times New Roman,serif" font-size="14.00">getFilesRecursive</text>
<text text-anchor="start" x="21.5" y="-249.8" font-family="Times New Roman,serif" font-size="14.00">getRelativePathParts</text>
<text text-anchor="start" x="42" y="-234.8" font-family="Times New Roman,serif" font-size="14.00">hasExtension</text>
<text text-anchor="start" x="42" y="-219.8" font-family="Times New Roman,serif" font-size="14.00">moduleName</text>
<text text-anchor="start" x="39.5" y="-204.8" font-family="Times New Roman,serif" font-size="14.00">normalizePath</text>
<text text-anchor="start" x="30.5" y="-189.8" font-family="Times New Roman,serif" font-size="14.00">removeExtension</text>
<text text-anchor="start" x="42" y="-174.8" font-family="Times New Roman,serif" font-size="14.00">safeWriteFile</text>
<polygon fill="none" stroke="black" points="9.5,-134 9.5,-168 148.5,-168 148.5,-134 9.5,-134"/>
<text text-anchor="start" x="51.5" y="-154.8" font-family="Times New Roman,serif" font-style="italic" font-size="14.00" fill="red">globals.js</text>
<text text-anchor="start" x="46.5" y="-140.8" font-family="Times New Roman,serif" font-size="14.00">EXT_LIST</text>
<polygon fill="none" stroke="black" points="8,-133 8,-361 149,-361 149,-133 8,-133"/>
</g>
<!-- utils/file&#45;utils.js&#45;node_modules -->
<g id="node2" class="node">
<title>utils/file&#45;utils.js&#45;node_modules</title>
<polygon fill="none" stroke="black" points="34.5,-66.5 34.5,-87.5 123.5,-87.5 123.5,-66.5 34.5,-66.5"/>
<text text-anchor="start" x="37.5" y="-73.3" font-family="Times New Roman,serif" font-size="14.00">node_modules</text>
<polygon fill="none" stroke="black" points="34.5,-4.5 34.5,-66.5 123.5,-66.5 123.5,-4.5 34.5,-4.5"/>
<text text-anchor="start" x="74" y="-53.3" font-family="Times New Roman,serif" font-style="italic" font-size="14.00" fill="red">fs</text>
<text text-anchor="start" x="73.5" y="-39.3" font-family="Times New Roman,serif" font-size="14.00">fs</text>
<text text-anchor="start" x="65.5" y="-25.3" font-family="Times New Roman,serif" font-style="italic" font-size="14.00" fill="red">path</text>
<text text-anchor="start" x="66.5" y="-11.3" font-family="Times New Roman,serif" font-size="14.00">path</text>
<polygon fill="none" stroke="black" points="33,-4 33,-89 124,-89 124,-4 33,-4"/>
</g>
<!-- utils/file&#45;utils.js&#45;&gt;utils/file&#45;utils.js&#45;node_modules -->
<g id="edge1" class="edge">
<title>utils/file&#45;utils.js&#45;&gt;utils/file&#45;utils.js&#45;node_modules</title>
<path fill="none" stroke="black" d="M78.5,-128.81C78.5,-119.96 78.5,-111.3 78.5,-103.14"/>
<polygon fill="black" stroke="black" points="82,-103.08 78.5,-93.08 75,-103.08 82,-103.08"/>
</g>
<!-- utils/globals.js -->
<g id="node3" class="node">
<title>utils/globals.js</title>
<polygon fill="lightblue" stroke="transparent" points="184.5,-250 184.5,-271 278.5,-271 278.5,-250 184.5,-250"/>
<polygon fill="none" stroke="black" points="184.5,-250 184.5,-271 278.5,-271 278.5,-250 184.5,-250"/>
<text text-anchor="start" x="187.5" y="-257.8" font-family="Times New Roman,serif" font-weight="bold" font-size="14.00">utils/globals.js</text>
<polygon fill="none" stroke="black" points="184.5,-229 184.5,-250 278.5,-250 278.5,-229 184.5,-229"/>
<text text-anchor="start" x="187.5" y="-235.8" font-family="Times New Roman,serif" font-size="14.00">EXT_LIST</text>
<polygon fill="none" stroke="black" points="184.5,-223 184.5,-229 278.5,-229 278.5,-223 184.5,-223"/>
<polygon fill="none" stroke="black" points="183.5,-222 183.5,-272 279.5,-272 279.5,-222 183.5,-222"/>
</g>
<!-- utils/index.js -->
<g id="node4" class="node">
<title>utils/index.js</title>
<polygon fill="lightblue" stroke="transparent" points="314.5,-293 314.5,-314 396.5,-314 396.5,-293 314.5,-293"/>
<polygon fill="none" stroke="black" points="314.5,-293 314.5,-314 396.5,-314 396.5,-293 314.5,-293"/>
<text text-anchor="start" x="317.5" y="-300.8" font-family="Times New Roman,serif" font-weight="bold" font-size="14.00">utils/index.js</text>
<polygon fill="none" stroke="black" points="314.5,-242 314.5,-293 396.5,-293 396.5,-242 314.5,-242"/>
<text text-anchor="start" x="317.5" y="-278.8" font-family="Times New Roman,serif" font-size="14.00">undefined</text>
<text text-anchor="start" x="336.5" y="-263.8" font-family="Times New Roman,serif" font-size="14.00">file</text>
<text text-anchor="start" x="337" y="-248.8" font-family="Times New Roman,serif" font-size="14.00">list</text>
<polygon fill="none" stroke="black" points="314.5,-180 314.5,-242 396.5,-242 396.5,-180 314.5,-180"/>
<text text-anchor="start" x="326" y="-228.8" font-family="Times New Roman,serif" font-style="italic" font-size="14.00" fill="red">file&#45;utils.js</text>
<text text-anchor="start" x="334" y="-214.8" font-family="Times New Roman,serif" font-size="14.00">fileUtils</text>
<text text-anchor="start" x="326.5" y="-200.8" font-family="Times New Roman,serif" font-style="italic" font-size="14.00" fill="red">list&#45;utils.js</text>
<text text-anchor="start" x="334.5" y="-186.8" font-family="Times New Roman,serif" font-size="14.00">listUtils</text>
<polygon fill="none" stroke="black" points="313.5,-179 313.5,-315 397.5,-315 397.5,-179 313.5,-179"/>
</g>
<!-- utils/json.js -->
<g id="node5" class="node">
<title>utils/json.js</title>
<polygon fill="lightblue" stroke="transparent" points="432.5,-271 432.5,-292 512.5,-292 512.5,-271 432.5,-271"/>
<polygon fill="none" stroke="black" points="432.5,-271 432.5,-292 512.5,-292 512.5,-271 432.5,-271"/>
<text text-anchor="start" x="437.5" y="-278.8" font-family="Times New Roman,serif" font-weight="bold" font-size="14.00">utils/json.js</text>
<polygon fill="none" stroke="black" points="432.5,-235 432.5,-271 512.5,-271 512.5,-235 432.5,-235"/>
<text text-anchor="start" x="440.5" y="-256.8" font-family="Times New Roman,serif" font-size="14.00">jsonIn</text>
<text text-anchor="start" x="435.5" y="-241.8" font-family="Times New Roman,serif" font-size="14.00">jsonOut</text>
<polygon fill="none" stroke="black" points="432.5,-201 432.5,-235 512.5,-235 512.5,-201 432.5,-201"/>
<text text-anchor="start" x="443" y="-221.8" font-family="Times New Roman,serif" font-style="italic" font-size="14.00" fill="red">file&#45;utils.js</text>
<text text-anchor="start" x="435.5" y="-207.8" font-family="Times New Roman,serif" font-size="14.00">safeWriteFile</text>
<polygon fill="none" stroke="black" points="431.5,-200.5 431.5,-293.5 513.5,-293.5 513.5,-200.5 431.5,-200.5"/>
</g>
<!-- utils/json.js&#45;node_modules -->
<g id="node6" class="node">
<title>utils/json.js&#45;node_modules</title>
<polygon fill="none" stroke="black" points="428.5,-52.5 428.5,-73.5 517.5,-73.5 517.5,-52.5 428.5,-52.5"/>
<text text-anchor="start" x="431.5" y="-59.3" font-family="Times New Roman,serif" font-size="14.00">node_modules</text>
<polygon fill="none" stroke="black" points="428.5,-18.5 428.5,-52.5 517.5,-52.5 517.5,-18.5 428.5,-18.5"/>
<text text-anchor="start" x="468" y="-39.3" font-family="Times New Roman,serif" font-style="italic" font-size="14.00" fill="red">fs</text>
<text text-anchor="start" x="467.5" y="-25.3" font-family="Times New Roman,serif" font-size="14.00">fs</text>
<polygon fill="none" stroke="black" points="427,-18 427,-75 518,-75 518,-18 427,-18"/>
</g>
<!-- utils/json.js&#45;&gt;utils/json.js&#45;node_modules -->
<g id="edge2" class="edge">
<title>utils/json.js&#45;&gt;utils/json.js&#45;node_modules</title>
<path fill="none" stroke="black" d="M472.5,-196.42C472.5,-163.41 472.5,-120.51 472.5,-89.24"/>
<polygon fill="black" stroke="black" points="476,-89.12 472.5,-79.12 469,-89.12 476,-89.12"/>
</g>
<!-- utils/list&#45;utils.js -->
<g id="node7" class="node">
<title>utils/list&#45;utils.js</title>
<polygon fill="lightblue" stroke="transparent" points="548.5,-287 548.5,-308 690.5,-308 690.5,-287 548.5,-287"/>
<polygon fill="none" stroke="black" points="548.5,-287 548.5,-308 690.5,-308 690.5,-287 548.5,-287"/>
<text text-anchor="start" x="573.5" y="-294.8" font-family="Times New Roman,serif" font-weight="bold" font-size="14.00">utils/list&#45;utils.js</text>
<polygon fill="none" stroke="black" points="548.5,-191 548.5,-287 690.5,-287 690.5,-191 548.5,-191"/>
<text text-anchor="start" x="572" y="-272.8" font-family="Times New Roman,serif" font-size="14.00">addToMapArray</text>
<text text-anchor="start" x="577.5" y="-257.8" font-family="Times New Roman,serif" font-size="14.00">getDependsOn</text>
<text text-anchor="start" x="574.5" y="-242.8" font-family="Times New Roman,serif" font-size="14.00">getExportedList</text>
<text text-anchor="start" x="563.5" y="-227.8" font-family="Times New Roman,serif" font-size="14.00">getNodeModuleList</text>
<text text-anchor="start" x="551.5" y="-212.8" font-family="Times New Roman,serif" font-size="14.00">getUniqueNodeModules</text>
<text text-anchor="start" x="578" y="-197.8" font-family="Times New Roman,serif" font-size="14.00">getUsedByList</text>
<polygon fill="none" stroke="black" points="548.5,-185 548.5,-191 690.5,-191 690.5,-185 548.5,-185"/>
<polygon fill="none" stroke="black" points="547.5,-184.5 547.5,-309.5 691.5,-309.5 691.5,-184.5 547.5,-184.5"/>
</g>
<!-- utils/list&#45;utils.js&#45;node_modules -->
<g id="node8" class="node">
<title>utils/list&#45;utils.js&#45;node_modules</title>
<polygon fill="none" stroke="black" points="575.5,-52.5 575.5,-73.5 664.5,-73.5 664.5,-52.5 575.5,-52.5"/>
<text text-anchor="start" x="578.5" y="-59.3" font-family="Times New Roman,serif" font-size="14.00">node_modules</text>
<polygon fill="none" stroke="black" points="575.5,-18.5 575.5,-52.5 664.5,-52.5 664.5,-18.5 575.5,-18.5"/>
<text text-anchor="start" x="606.5" y="-39.3" font-family="Times New Roman,serif" font-style="italic" font-size="14.00" fill="red">path</text>
<text text-anchor="start" x="607.5" y="-25.3" font-family="Times New Roman,serif" font-size="14.00">path</text>
<polygon fill="none" stroke="black" points="574,-18 574,-75 665,-75 665,-18 574,-18"/>
</g>
<!-- utils/list&#45;utils.js&#45;&gt;utils/list&#45;utils.js&#45;node_modules -->
<g id="edge3" class="edge">
<title>utils/list&#45;utils.js&#45;&gt;utils/list&#45;utils.js&#45;node_modules</title>
<path fill="none" stroke="black" d="M619.5,-180.45C619.5,-150.35 619.5,-115.54 619.5,-89.1"/>
<polygon fill="black" stroke="black" points="623,-89.04 619.5,-79.04 616,-89.04 623,-89.04"/>
</g>
</g>
</svg>
