<?xml version="1.0" encoding="UTF-8" standalone="no"?>
<!DOCTYPE svg PUBLIC "-//W3C//DTD SVG 1.1//EN"
 "http://www.w3.org/Graphics/SVG/1.1/DTD/svg11.dtd">
<!-- Generated by graphviz version 3.0.0 (20220226.1711)
 -->
<!-- Pages: 1 -->
<svg width="624pt" height="158pt"
 viewBox="0.00 0.00 623.50 158.00" xmlns="http://www.w3.org/2000/svg" xmlns:xlink="http://www.w3.org/1999/xlink">
<g id="graph0" class="graph" transform="scale(1 1) rotate(0) translate(4 154)">
<polygon fill="white" stroke="transparent" points="-4,4 -4,-154 619.5,-154 619.5,4 -4,4"/>
<text text-anchor="middle" x="307.75" y="-134.8" font-family="Times New Roman,serif" font-size="14.00">utils Module Exports</text>
<!-- utils/file&#45;utils.js -->
<g id="node1" class="node">
<title>utils/file&#45;utils.js</title>
<polygon fill="lightblue" stroke="transparent" points="9.5,-100.5 9.5,-121.5 108.5,-121.5 108.5,-100.5 9.5,-100.5"/>
<polygon fill="none" stroke="black" points="9.5,-100.5 9.5,-121.5 108.5,-121.5 108.5,-100.5 9.5,-100.5"/>
<text text-anchor="start" x="12.5" y="-108.3" font-family="Times New Roman,serif" font-weight="bold" font-size="14.00">utils/file&#45;utils.js</text>
<polygon fill="none" stroke="black" points="9.5,-94.5 9.5,-100.5 108.5,-100.5 108.5,-94.5 9.5,-94.5"/>
<polygon fill="none" stroke="black" points="9.5,-4.5 9.5,-94.5 108.5,-94.5 108.5,-4.5 9.5,-4.5"/>
<text text-anchor="start" x="31.5" y="-81.3" font-family="Times New Roman,serif" font-style="italic" font-size="14.00" fill="red">globals.js</text>
<text text-anchor="start" x="26.5" y="-67.3" font-family="Times New Roman,serif" font-size="14.00">EXT_LIST</text>
<text text-anchor="start" x="54" y="-53.3" font-family="Times New Roman,serif" font-style="italic" font-size="14.00" fill="red">fs</text>
<text text-anchor="start" x="53.5" y="-39.3" font-family="Times New Roman,serif" font-size="14.00">fs</text>
<text text-anchor="start" x="45.5" y="-25.3" font-family="Times New Roman,serif" font-style="italic" font-size="14.00" fill="red">path</text>
<text text-anchor="start" x="46.5" y="-11.3" font-family="Times New Roman,serif" font-size="14.00">path</text>
<polygon fill="none" stroke="black" points="8,-4 8,-123 109,-123 109,-4 8,-4"/>
</g>
<!-- utils/globals.js -->
<g id="node2" class="node">
<title>utils/globals.js</title>
<polygon fill="lightblue" stroke="transparent" points="144.5,-58.5 144.5,-79.5 238.5,-79.5 238.5,-58.5 144.5,-58.5"/>
<polygon fill="none" stroke="black" points="144.5,-58.5 144.5,-79.5 238.5,-79.5 238.5,-58.5 144.5,-58.5"/>
<text text-anchor="start" x="147.5" y="-66.3" font-family="Times New Roman,serif" font-weight="bold" font-size="14.00">utils/globals.js</text>
<polygon fill="none" stroke="black" points="144.5,-52.5 144.5,-58.5 238.5,-58.5 238.5,-52.5 144.5,-52.5"/>
<polygon fill="none" stroke="black" points="144.5,-46.5 144.5,-52.5 238.5,-52.5 238.5,-46.5 144.5,-46.5"/>
<polygon fill="none" stroke="black" points="143.5,-46 143.5,-81 239.5,-81 239.5,-46 143.5,-46"/>
</g>
<!-- utils/index.js -->
<g id="node3" class="node">
<title>utils/index.js</title>
<polygon fill="lightblue" stroke="transparent" points="274.5,-86.5 274.5,-107.5 356.5,-107.5 356.5,-86.5 274.5,-86.5"/>
<polygon fill="none" stroke="black" points="274.5,-86.5 274.5,-107.5 356.5,-107.5 356.5,-86.5 274.5,-86.5"/>
<text text-anchor="start" x="277.5" y="-94.3" font-family="Times New Roman,serif" font-weight="bold" font-size="14.00">utils/index.js</text>
<polygon fill="none" stroke="black" points="274.5,-80.5 274.5,-86.5 356.5,-86.5 356.5,-80.5 274.5,-80.5"/>
<polygon fill="none" stroke="black" points="274.5,-18.5 274.5,-80.5 356.5,-80.5 356.5,-18.5 274.5,-18.5"/>
<text text-anchor="start" x="286" y="-67.3" font-family="Times New Roman,serif" font-style="italic" font-size="14.00" fill="red">file&#45;utils.js</text>
<text text-anchor="start" x="294" y="-53.3" font-family="Times New Roman,serif" font-size="14.00">fileUtils</text>
<text text-anchor="start" x="286.5" y="-39.3" font-family="Times New Roman,serif" font-style="italic" font-size="14.00" fill="red">list&#45;utils.js</text>
<text text-anchor="start" x="294.5" y="-25.3" font-family="Times New Roman,serif" font-size="14.00">listUtils</text>
<polygon fill="none" stroke="black" points="273.5,-18 273.5,-109 357.5,-109 357.5,-18 273.5,-18"/>
</g>
<!-- utils/json.js -->
<g id="node4" class="node">
<title>utils/json.js</title>
<polygon fill="lightblue" stroke="transparent" points="392.5,-86.5 392.5,-107.5 472.5,-107.5 472.5,-86.5 392.5,-86.5"/>
<polygon fill="none" stroke="black" points="392.5,-86.5 392.5,-107.5 472.5,-107.5 472.5,-86.5 392.5,-86.5"/>
<text text-anchor="start" x="397.5" y="-94.3" font-family="Times New Roman,serif" font-weight="bold" font-size="14.00">utils/json.js</text>
<polygon fill="none" stroke="black" points="392.5,-80.5 392.5,-86.5 472.5,-86.5 472.5,-80.5 392.5,-80.5"/>
<polygon fill="none" stroke="black" points="392.5,-18.5 392.5,-80.5 472.5,-80.5 472.5,-18.5 392.5,-18.5"/>
<text text-anchor="start" x="403" y="-67.3" font-family="Times New Roman,serif" font-style="italic" font-size="14.00" fill="red">file&#45;utils.js</text>
<text text-anchor="start" x="395.5" y="-53.3" font-family="Times New Roman,serif" font-size="14.00">safeWriteFile</text>
<text text-anchor="start" x="427.5" y="-39.3" font-family="Times New Roman,serif" font-style="italic" font-size="14.00" fill="red">fs</text>
<text text-anchor="start" x="427" y="-25.3" font-family="Times New Roman,serif" font-size="14.00">fs</text>
<polygon fill="none" stroke="black" points="391.5,-18 391.5,-109 473.5,-109 473.5,-18 391.5,-18"/>
</g>
<!-- utils/list&#45;utils.js -->
<g id="node5" class="node">
<title>utils/list&#45;utils.js</title>
<polygon fill="lightblue" stroke="transparent" points="508.5,-72.5 508.5,-93.5 606.5,-93.5 606.5,-72.5 508.5,-72.5"/>
<polygon fill="none" stroke="black" points="508.5,-72.5 508.5,-93.5 606.5,-93.5 606.5,-72.5 508.5,-72.5"/>
<text text-anchor="start" x="511.5" y="-80.3" font-family="Times New Roman,serif" font-weight="bold" font-size="14.00">utils/list&#45;utils.js</text>
<polygon fill="none" stroke="black" points="508.5,-66.5 508.5,-72.5 606.5,-72.5 606.5,-66.5 508.5,-66.5"/>
<polygon fill="none" stroke="black" points="508.5,-32.5 508.5,-66.5 606.5,-66.5 606.5,-32.5 508.5,-32.5"/>
<text text-anchor="start" x="544" y="-53.3" font-family="Times New Roman,serif" font-style="italic" font-size="14.00" fill="red">path</text>
<text text-anchor="start" x="545" y="-39.3" font-family="Times New Roman,serif" font-size="14.00">path</text>
<polygon fill="none" stroke="black" points="507.5,-32 507.5,-95 607.5,-95 607.5,-32 507.5,-32"/>
</g>
</g>
</svg>
