<?xml version="1.0" encoding="UTF-8" standalone="no"?>
<!DOCTYPE svg PUBLIC "-//W3C//DTD SVG 1.1//EN"
 "http://www.w3.org/Graphics/SVG/1.1/DTD/svg11.dtd">
<!-- Generated by graphviz version 3.0.0 (20220226.1711)
 -->
<!-- Pages: 1 -->
<svg width="507pt" height="256pt"
 viewBox="0.00 0.00 507.00 256.00" xmlns="http://www.w3.org/2000/svg" xmlns:xlink="http://www.w3.org/1999/xlink">
<g id="graph0" class="graph" transform="scale(1 1) rotate(0) translate(4 252)">
<polygon fill="white" stroke="transparent" points="-4,4 -4,-252 503,-252 503,4 -4,4"/>
<text text-anchor="middle" x="249.5" y="-232.8" font-family="Times New Roman,serif" font-size="14.00"> base Class Diagram</text>
<!-- DependencyGraphGenerator -->
<g id="node1" class="node">
<title>DependencyGraphGenerator</title>
<polygon fill="none" stroke="black" points="9.5,-198.5 9.5,-219.5 490.5,-219.5 490.5,-198.5 9.5,-198.5"/>
<text text-anchor="start" x="12.5" y="-206.3" font-family="Times New Roman,serif" font-weight="bold" font-size="14.00">DependencyGraphGenerator</text>
<polygon fill="none" stroke="black" points="9.5,-108.5 9.5,-198.5 490.5,-198.5 490.5,-108.5 9.5,-108.5"/>
<text text-anchor="start" x="29" y="-185.3" font-family="Times New Roman,serif" font-weight="bold" font-size="14.00">properties</text>
<text text-anchor="start" x="28.5" y="-171.3" font-family="Times New Roman,serif" font-size="14.00">&#45; #baseLoc</text>
<text text-anchor="start" x="31.5" y="-157.3" font-family="Times New Roman,serif" font-size="14.00">&#45; #options</text>
<text text-anchor="start" x="25.5" y="-143.3" font-family="Times New Roman,serif" font-size="14.00">&#45; #outputDir</text>
<text text-anchor="start" x="12.5" y="-129.3" font-family="Times New Roman,serif" font-size="14.00">+ diagramHTML</text>
<text text-anchor="start" x="19.5" y="-115.3" font-family="Times New Roman,serif" font-size="14.00">+ indexHTML</text>
<polygon fill="none" stroke="black" points="9.5,-4.5 9.5,-108.5 490.5,-108.5 490.5,-4.5 9.5,-4.5"/>
<text text-anchor="start" x="224" y="-95.3" font-family="Times New Roman,serif" font-weight="bold" font-size="14.00">methods</text>
<text text-anchor="start" x="156.5" y="-81.3" font-family="Times New Roman,serif" font-size="14.00">+ constructor (baseLoc, options)</text>
<text text-anchor="start" x="214.5" y="-67.3" font-family="Times New Roman,serif" font-size="14.00">+ generate ()</text>
<text text-anchor="start" x="177.5" y="-53.3" font-family="Times New Roman,serif" font-size="14.00">&#45; #getModuleArray (stats)</text>
<text text-anchor="start" x="122" y="-39.3" font-family="Times New Roman,serif" font-size="14.00">&#45; #generateJSDoc (source, output, configFile)</text>
<text text-anchor="start" x="12.5" y="-25.3" font-family="Times New Roman,serif" font-size="14.00">&#45; #createDirGraph (graphName, moduleArray, dependencyList, classList, exportList)</text>
<text text-anchor="start" x="108" y="-11.3" font-family="Times New Roman,serif" font-size="14.00">&#45; #generateSvgFromDot (dotFilePath, svgFilePath)</text>
<polygon fill="none" stroke="black" points="8,-4 8,-221 491,-221 491,-4 8,-4"/>
</g>
</g>
</svg>
