<?xml version="1.0" encoding="UTF-8" standalone="no"?>
<!DOCTYPE svg PUBLIC "-//W3C//DTD SVG 1.1//EN"
 "http://www.w3.org/Graphics/SVG/1.1/DTD/svg11.dtd">
<!-- Generated by graphviz version 3.0.0 (20220226.1711)
 -->
<!-- Pages: 1 -->
<svg width="460pt" height="298pt"
 viewBox="0.00 0.00 460.00 298.00" xmlns="http://www.w3.org/2000/svg" xmlns:xlink="http://www.w3.org/1999/xlink">
<g id="graph0" class="graph" transform="scale(1 1) rotate(0) translate(4 294)">
<polygon fill="white" stroke="transparent" points="-4,4 -4,-294 456,-294 456,4 -4,4"/>
<text text-anchor="middle" x="226" y="-274.8" font-family="Times New Roman,serif" font-size="14.00"> base Class Diagram</text>
<!-- DependencyGraphGenerator -->
<g id="node1" class="node">
<title>DependencyGraphGenerator</title>
<polygon fill="none" stroke="black" points="9,-240.5 9,-261.5 443,-261.5 443,-240.5 9,-240.5"/>
<text text-anchor="start" x="12" y="-248.3" font-family="Times New Roman,serif" font-weight="bold" font-size="14.00">DependencyGraphGenerator</text>
<polygon fill="none" stroke="black" points="9,-150.5 9,-240.5 443,-240.5 443,-150.5 9,-150.5"/>
<text text-anchor="start" x="28.5" y="-227.3" font-family="Times New Roman,serif" font-weight="bold" font-size="14.00">properties</text>
<text text-anchor="start" x="29.5" y="-213.3" font-family="Times New Roman,serif" font-size="14.00">+ baseLoc</text>
<text text-anchor="start" x="31" y="-199.3" font-family="Times New Roman,serif" font-size="14.00">&#45; #options</text>
<text text-anchor="start" x="27" y="-185.3" font-family="Times New Roman,serif" font-size="14.00">+ outputDir</text>
<text text-anchor="start" x="12" y="-171.3" font-family="Times New Roman,serif" font-size="14.00">+ diagramHTML</text>
<text text-anchor="start" x="19" y="-157.3" font-family="Times New Roman,serif" font-size="14.00">+ indexHTML</text>
<polygon fill="none" stroke="black" points="9,-4.5 9,-150.5 443,-150.5 443,-4.5 9,-4.5"/>
<text text-anchor="start" x="200" y="-137.3" font-family="Times New Roman,serif" font-weight="bold" font-size="14.00">methods</text>
<text text-anchor="start" x="132.5" y="-123.3" font-family="Times New Roman,serif" font-size="14.00">+ constructor (baseLoc, options)</text>
<text text-anchor="start" x="190.5" y="-109.3" font-family="Times New Roman,serif" font-size="14.00">+ generate ()</text>
<text text-anchor="start" x="153.5" y="-95.3" font-family="Times New Roman,serif" font-size="14.00">&#45; #getModuleArray (stats)</text>
<text text-anchor="start" x="152" y="-81.3" font-family="Times New Roman,serif" font-size="14.00">&#45; #generateJSDoc (config)</text>
<text text-anchor="start" x="167.5" y="-67.3" font-family="Times New Roman,serif" font-size="14.00">&#45; #showJsdocPath ()</text>
<text text-anchor="start" x="143" y="-53.3" font-family="Times New Roman,serif" font-size="14.00">&#45; #createTempJsdocConfig ()</text>
<text text-anchor="start" x="12" y="-39.3" font-family="Times New Roman,serif" font-size="14.00">&#45; #createExportDirGraph (graphName, dirArray, exportGraph, svgPromises)</text>
<text text-anchor="start" x="14" y="-25.3" font-family="Times New Roman,serif" font-size="14.00">&#45; #createClassDirGraph (graphName, dirArray, classDiagram, svgPromises)</text>
<text text-anchor="start" x="84" y="-11.3" font-family="Times New Roman,serif" font-size="14.00">&#45; #generateSvgFromDot (dotFilePath, svgFilePath)</text>
<polygon fill="none" stroke="black" points="8,-4 8,-263 444,-263 444,-4 8,-4"/>
</g>
</g>
</svg>
