<?xml version="1.0" encoding="UTF-8" standalone="no"?>
<!DOCTYPE svg PUBLIC "-//W3C//DTD SVG 1.1//EN"
 "http://www.w3.org/Graphics/SVG/1.1/DTD/svg11.dtd">
<!-- Generated by graphviz version 3.0.0 (20220226.1711)
 -->
<!-- Pages: 1 -->
<svg width="354pt" height="704pt"
 viewBox="0.00 0.00 354.00 704.00" xmlns="http://www.w3.org/2000/svg" xmlns:xlink="http://www.w3.org/1999/xlink">
<g id="graph0" class="graph" transform="scale(1 1) rotate(0) translate(4 700)">
<polygon fill="white" stroke="transparent" points="-4,4 -4,-700 350,-700 350,4 -4,4"/>
<text text-anchor="middle" x="173" y="-680.8" font-family="Times New Roman,serif" font-size="14.00"> Module Exports</text>
<!-- dep&#45;graph.js -->
<g id="node1" class="node">
<title>dep&#45;graph.js</title>
<polygon fill="lightblue" stroke="transparent" points="53,-647 53,-668 240,-668 240,-647 53,-647"/>
<polygon fill="none" stroke="black" points="53,-647 53,-668 240,-668 240,-647 53,-647"/>
<text text-anchor="start" x="108" y="-654.8" font-family="Times New Roman,serif" font-weight="bold" font-size="14.00">dep&#45;graph.js</text>
<polygon fill="none" stroke="black" points="53,-626 53,-647 240,-647 240,-626 53,-626"/>
<text text-anchor="start" x="56" y="-632.8" font-family="Times New Roman,serif" font-size="14.00">runProgram</text>
<polygon fill="none" stroke="black" points="53,-592 53,-626 240,-626 240,-592 53,-592"/>
<text text-anchor="start" x="56" y="-612.8" font-family="Times New Roman,serif" font-style="italic" font-size="14.00" fill="red">DependencyGraphGenerator.js</text>
<text text-anchor="start" x="66" y="-598.8" font-family="Times New Roman,serif" font-size="14.00">DependencyGraphGenerator</text>
<polygon fill="none" stroke="black" points="51.5,-591 51.5,-669 240.5,-669 240.5,-591 51.5,-591"/>
</g>
<!-- dep&#45;graph.js&#45;node_modules -->
<g id="node2" class="node">
<title>dep&#45;graph.js&#45;node_modules</title>
<polygon fill="none" stroke="black" points="9,-402 9,-423 101,-423 101,-402 9,-402"/>
<text text-anchor="start" x="13.5" y="-408.8" font-family="Times New Roman,serif" font-size="14.00">node_modules</text>
<polygon fill="none" stroke="black" points="9,-284 9,-402 101,-402 101,-284 9,-284"/>
<text text-anchor="start" x="21" y="-388.8" font-family="Times New Roman,serif" font-style="italic" font-size="14.00" fill="red">commander</text>
<text text-anchor="start" x="25.5" y="-374.8" font-family="Times New Roman,serif" font-size="14.00">Command</text>
<text text-anchor="start" x="50" y="-360.8" font-family="Times New Roman,serif" font-style="italic" font-size="14.00" fill="red">fs</text>
<text text-anchor="start" x="49.5" y="-346.8" font-family="Times New Roman,serif" font-size="14.00">fs</text>
<text text-anchor="start" x="41.5" y="-332.8" font-family="Times New Roman,serif" font-style="italic" font-size="14.00" fill="red">path</text>
<text text-anchor="start" x="42.5" y="-318.8" font-family="Times New Roman,serif" font-size="14.00">path</text>
<text text-anchor="start" x="46.5" y="-304.8" font-family="Times New Roman,serif" font-style="italic" font-size="14.00" fill="red">url</text>
<text text-anchor="start" x="12" y="-290.8" font-family="Times New Roman,serif" font-size="14.00">fileURLToPath</text>
<polygon fill="none" stroke="black" points="8,-283.5 8,-424.5 102,-424.5 102,-283.5 8,-283.5"/>
</g>
<!-- dep&#45;graph.js&#45;&gt;dep&#45;graph.js&#45;node_modules -->
<g id="edge1" class="edge">
<title>dep&#45;graph.js&#45;&gt;dep&#45;graph.js&#45;node_modules</title>
<path fill="none" stroke="black" d="M131.29,-586.95C127.26,-575.32 122.93,-562.68 119,-551 106.59,-514.09 93.17,-473.17 81.84,-438.3"/>
<polygon fill="black" stroke="black" points="85.12,-437.06 78.7,-428.63 78.46,-439.22 85.12,-437.06"/>
</g>
<!-- DependencyGraphGenerator.js -->
<g id="node3" class="node">
<title>DependencyGraphGenerator.js</title>
<polygon fill="lightblue" stroke="transparent" points="137,-525 137,-546 337,-546 337,-525 137,-525"/>
<polygon fill="none" stroke="black" points="137,-525 137,-546 337,-546 337,-525 137,-525"/>
<text text-anchor="start" x="140.5" y="-532.8" font-family="Times New Roman,serif" font-weight="bold" font-size="14.00">DependencyGraphGenerator.js</text>
<polygon fill="none" stroke="black" points="137,-504 137,-525 337,-525 337,-504 137,-504"/>
<text text-anchor="start" x="140" y="-510.8" font-family="Times New Roman,serif" font-size="14.00">DependencyGraphGenerator</text>
<polygon fill="none" stroke="black" points="137,-162 137,-504 337,-504 337,-162 137,-162"/>
<text text-anchor="start" x="180.5" y="-490.8" font-family="Times New Roman,serif" font-style="italic" font-size="14.00" fill="red">ast/ASTProcessor.js</text>
<text text-anchor="start" x="200.5" y="-476.8" font-family="Times New Roman,serif" font-size="14.00">ProcessAST</text>
<text text-anchor="start" x="140" y="-462.8" font-family="Times New Roman,serif" font-style="italic" font-size="14.00" fill="red">generators/DiagramsGenerator.js</text>
<text text-anchor="start" x="182.5" y="-448.8" font-family="Times New Roman,serif" font-size="14.00">DiagramsGenerator</text>
<text text-anchor="start" x="154.5" y="-434.8" font-family="Times New Roman,serif" font-style="italic" font-size="14.00" fill="red">generators/HtmlGenerator.js</text>
<text text-anchor="start" x="195.5" y="-420.8" font-family="Times New Roman,serif" font-size="14.00">HtmlGenerator</text>
<text text-anchor="start" x="166" y="-406.8" font-family="Times New Roman,serif" font-style="italic" font-size="14.00" fill="red">graphs/ClassDiagram.js</text>
<text text-anchor="start" x="198" y="-392.8" font-family="Times New Roman,serif" font-size="14.00">ClassDiagram</text>
<text text-anchor="start" x="170" y="-378.8" font-family="Times New Roman,serif" font-style="italic" font-size="14.00" fill="red">graphs/ExportGraph.js</text>
<text text-anchor="start" x="200" y="-364.8" font-family="Times New Roman,serif" font-size="14.00">ExportGraph</text>
<text text-anchor="start" x="149.5" y="-350.8" font-family="Times New Roman,serif" font-style="italic" font-size="14.00" fill="red">graphs/NodeModulesGraph.js</text>
<text text-anchor="start" x="179.5" y="-336.8" font-family="Times New Roman,serif" font-size="14.00">NodeModulesGraph</text>
<text text-anchor="start" x="164.5" y="-322.8" font-family="Times New Roman,serif" font-style="italic" font-size="14.00" fill="red">graphs/PackageGraph.js</text>
<text text-anchor="start" x="196" y="-308.8" font-family="Times New Roman,serif" font-size="14.00">PackageGraph</text>
<text text-anchor="start" x="162.5" y="-294.8" font-family="Times New Roman,serif" font-style="italic" font-size="14.00" fill="red">graphs/RelationsGraph.js</text>
<text text-anchor="start" x="193" y="-280.8" font-family="Times New Roman,serif" font-size="14.00">RelationsGraph</text>
<text text-anchor="start" x="193.5" y="-266.8" font-family="Times New Roman,serif" font-style="italic" font-size="14.00" fill="red">utils/file&#45;utils.js</text>
<text text-anchor="start" x="200" y="-252.8" font-family="Times New Roman,serif" font-size="14.00">safeWriteFile</text>
<text text-anchor="start" x="179.5" y="-238.8" font-family="Times New Roman,serif" font-size="14.00">getRelativePathParts</text>
<text text-anchor="start" x="170.5" y="-224.8" font-family="Times New Roman,serif" font-size="14.00">getDirectoriesRecursive</text>
<text text-anchor="start" x="215.5" y="-210.8" font-family="Times New Roman,serif" font-size="14.00">getFiles</text>
<text text-anchor="start" x="203.5" y="-196.8" font-family="Times New Roman,serif" font-size="14.00">getFilename</text>
<text text-anchor="start" x="205" y="-182.8" font-family="Times New Roman,serif" font-style="italic" font-size="14.00" fill="red">utils/json.js</text>
<text text-anchor="start" x="214.5" y="-168.8" font-family="Times New Roman,serif" font-size="14.00">jsonOut</text>
<polygon fill="none" stroke="black" points="136,-161 136,-547 338,-547 338,-161 136,-161"/>
</g>
<!-- dep&#45;graph.js&#45;&gt;DependencyGraphGenerator.js -->
<g id="edge3" class="edge">
<title>dep&#45;graph.js&#45;&gt;DependencyGraphGenerator.js</title>
<path fill="none" stroke="black" d="M160.02,-586.79C162.66,-578.85 165.57,-570.08 168.67,-560.73"/>
<polygon fill="black" stroke="black" points="172.01,-561.8 171.84,-551.21 165.36,-559.59 172.01,-561.8"/>
</g>
<!-- DependencyGraphGenerator.js&#45;node_modules -->
<g id="node4" class="node">
<title>DependencyGraphGenerator.js&#45;node_modules</title>
<polygon fill="none" stroke="black" points="193,-94.5 193,-115.5 282,-115.5 282,-94.5 193,-94.5"/>
<text text-anchor="start" x="196" y="-101.3" font-family="Times New Roman,serif" font-size="14.00">node_modules</text>
<polygon fill="none" stroke="black" points="193,-4.5 193,-94.5 282,-94.5 282,-4.5 193,-4.5"/>
<text text-anchor="start" x="198" y="-81.3" font-family="Times New Roman,serif" font-style="italic" font-size="14.00" fill="red">child_process</text>
<text text-anchor="start" x="219" y="-67.3" font-family="Times New Roman,serif" font-size="14.00">spawn</text>
<text text-anchor="start" x="232.5" y="-53.3" font-family="Times New Roman,serif" font-style="italic" font-size="14.00" fill="red">fs</text>
<text text-anchor="start" x="232" y="-39.3" font-family="Times New Roman,serif" font-size="14.00">fs</text>
<text text-anchor="start" x="224" y="-25.3" font-family="Times New Roman,serif" font-style="italic" font-size="14.00" fill="red">path</text>
<text text-anchor="start" x="225" y="-11.3" font-family="Times New Roman,serif" font-size="14.00">path</text>
<polygon fill="none" stroke="black" points="191.5,-4 191.5,-117 282.5,-117 282.5,-4 191.5,-4"/>
</g>
<!-- DependencyGraphGenerator.js&#45;&gt;DependencyGraphGenerator.js&#45;node_modules -->
<g id="edge2" class="edge">
<title>DependencyGraphGenerator.js&#45;&gt;DependencyGraphGenerator.js&#45;node_modules</title>
<path fill="none" stroke="black" d="M237,-156.95C237,-148.04 237,-139.42 237,-131.24"/>
<polygon fill="black" stroke="black" points="240.5,-131.13 237,-121.13 233.5,-131.13 240.5,-131.13"/>
</g>
</g>
</svg>
