<?xml version="1.0" encoding="UTF-8" standalone="no"?>
<!DOCTYPE svg PUBLIC "-//W3C//DTD SVG 1.1//EN"
 "http://www.w3.org/Graphics/SVG/1.1/DTD/svg11.dtd">
<!-- Generated by graphviz version 3.0.0 (20220226.1711)
 -->
<!-- Pages: 1 -->
<svg width="450pt" height="509pt"
 viewBox="0.00 0.00 449.50 509.00" xmlns="http://www.w3.org/2000/svg" xmlns:xlink="http://www.w3.org/1999/xlink">
<g id="graph0" class="graph" transform="scale(1 1) rotate(0) translate(4 505)">
<polygon fill="white" stroke="transparent" points="-4,4 -4,-505 445.5,-505 445.5,4 -4,4"/>
<text text-anchor="middle" x="220.75" y="-485.8" font-family="Times New Roman,serif" font-size="14.00"> Module Exports</text>
<!-- dep&#45;graph.js -->
<g id="node1" class="node">
<title>dep&#45;graph.js</title>
<polygon fill="lightblue" stroke="transparent" points="9.5,-312 9.5,-333 196.5,-333 196.5,-312 9.5,-312"/>
<polygon fill="none" stroke="black" points="9.5,-312 9.5,-333 196.5,-333 196.5,-312 9.5,-312"/>
<text text-anchor="start" x="64.5" y="-319.8" font-family="Times New Roman,serif" font-weight="bold" font-size="14.00">dep&#45;graph.js</text>
<polygon fill="none" stroke="black" points="9.5,-291 9.5,-312 196.5,-312 196.5,-291 9.5,-291"/>
<text text-anchor="start" x="12.5" y="-297.8" font-family="Times New Roman,serif" font-size="14.00">runProgram</text>
<polygon fill="none" stroke="black" points="9.5,-145 9.5,-291 196.5,-291 196.5,-145 9.5,-145"/>
<text text-anchor="start" x="12.5" y="-277.8" font-family="Times New Roman,serif" font-style="italic" font-size="14.00" fill="red">DependencyGraphGenerator.js</text>
<text text-anchor="start" x="22.5" y="-263.8" font-family="Times New Roman,serif" font-size="14.00">DependencyGraphGenerator</text>
<text text-anchor="start" x="69" y="-249.8" font-family="Times New Roman,serif" font-style="italic" font-size="14.00" fill="red">commander</text>
<text text-anchor="start" x="73.5" y="-235.8" font-family="Times New Roman,serif" font-size="14.00">Command</text>
<text text-anchor="start" x="98" y="-221.8" font-family="Times New Roman,serif" font-style="italic" font-size="14.00" fill="red">fs</text>
<text text-anchor="start" x="97.5" y="-207.8" font-family="Times New Roman,serif" font-size="14.00">fs</text>
<text text-anchor="start" x="89.5" y="-193.8" font-family="Times New Roman,serif" font-style="italic" font-size="14.00" fill="red">path</text>
<text text-anchor="start" x="90.5" y="-179.8" font-family="Times New Roman,serif" font-size="14.00">path</text>
<text text-anchor="start" x="94.5" y="-165.8" font-family="Times New Roman,serif" font-style="italic" font-size="14.00" fill="red">url</text>
<text text-anchor="start" x="60" y="-151.8" font-family="Times New Roman,serif" font-size="14.00">fileURLToPath</text>
<polygon fill="none" stroke="black" points="8,-144 8,-334 197,-334 197,-144 8,-144"/>
</g>
<!-- DependencyGraphGenerator.js -->
<g id="node2" class="node">
<title>DependencyGraphGenerator.js</title>
<polygon fill="lightblue" stroke="transparent" points="232.5,-452 232.5,-473 432.5,-473 432.5,-452 232.5,-452"/>
<polygon fill="none" stroke="black" points="232.5,-452 232.5,-473 432.5,-473 432.5,-452 232.5,-452"/>
<text text-anchor="start" x="236" y="-459.8" font-family="Times New Roman,serif" font-weight="bold" font-size="14.00">DependencyGraphGenerator.js</text>
<polygon fill="none" stroke="black" points="232.5,-431 232.5,-452 432.5,-452 432.5,-431 232.5,-431"/>
<text text-anchor="start" x="235.5" y="-437.8" font-family="Times New Roman,serif" font-size="14.00">DependencyGraphGenerator</text>
<polygon fill="none" stroke="black" points="232.5,-5 232.5,-431 432.5,-431 432.5,-5 232.5,-5"/>
<text text-anchor="start" x="276" y="-417.8" font-family="Times New Roman,serif" font-style="italic" font-size="14.00" fill="red">ast/ASTProcessor.js</text>
<text text-anchor="start" x="296" y="-403.8" font-family="Times New Roman,serif" font-size="14.00">ProcessAST</text>
<text text-anchor="start" x="235.5" y="-389.8" font-family="Times New Roman,serif" font-style="italic" font-size="14.00" fill="red">generators/DiagramsGenerator.js</text>
<text text-anchor="start" x="278" y="-375.8" font-family="Times New Roman,serif" font-size="14.00">DiagramsGenerator</text>
<text text-anchor="start" x="250" y="-361.8" font-family="Times New Roman,serif" font-style="italic" font-size="14.00" fill="red">generators/HtmlGenerator.js</text>
<text text-anchor="start" x="291" y="-347.8" font-family="Times New Roman,serif" font-size="14.00">HtmlGenerator</text>
<text text-anchor="start" x="261.5" y="-333.8" font-family="Times New Roman,serif" font-style="italic" font-size="14.00" fill="red">graphs/ClassDiagram.js</text>
<text text-anchor="start" x="293.5" y="-319.8" font-family="Times New Roman,serif" font-size="14.00">ClassDiagram</text>
<text text-anchor="start" x="265.5" y="-305.8" font-family="Times New Roman,serif" font-style="italic" font-size="14.00" fill="red">graphs/ExportGraph.js</text>
<text text-anchor="start" x="295.5" y="-291.8" font-family="Times New Roman,serif" font-size="14.00">ExportGraph</text>
<text text-anchor="start" x="245" y="-277.8" font-family="Times New Roman,serif" font-style="italic" font-size="14.00" fill="red">graphs/NodeModulesGraph.js</text>
<text text-anchor="start" x="275" y="-263.8" font-family="Times New Roman,serif" font-size="14.00">NodeModulesGraph</text>
<text text-anchor="start" x="260" y="-249.8" font-family="Times New Roman,serif" font-style="italic" font-size="14.00" fill="red">graphs/PackageGraph.js</text>
<text text-anchor="start" x="291.5" y="-235.8" font-family="Times New Roman,serif" font-size="14.00">PackageGraph</text>
<text text-anchor="start" x="258" y="-221.8" font-family="Times New Roman,serif" font-style="italic" font-size="14.00" fill="red">graphs/RelationsGraph.js</text>
<text text-anchor="start" x="288.5" y="-207.8" font-family="Times New Roman,serif" font-size="14.00">RelationsGraph</text>
<text text-anchor="start" x="289" y="-193.8" font-family="Times New Roman,serif" font-style="italic" font-size="14.00" fill="red">utils/file&#45;utils.js</text>
<text text-anchor="start" x="295.5" y="-179.8" font-family="Times New Roman,serif" font-size="14.00">safeWriteFile</text>
<text text-anchor="start" x="275" y="-165.8" font-family="Times New Roman,serif" font-size="14.00">getRelativePathParts</text>
<text text-anchor="start" x="266" y="-151.8" font-family="Times New Roman,serif" font-size="14.00">getDirectoriesRecursive</text>
<text text-anchor="start" x="311" y="-137.8" font-family="Times New Roman,serif" font-size="14.00">getFiles</text>
<text text-anchor="start" x="299" y="-123.8" font-family="Times New Roman,serif" font-size="14.00">getFilename</text>
<text text-anchor="start" x="300.5" y="-109.8" font-family="Times New Roman,serif" font-style="italic" font-size="14.00" fill="red">utils/json.js</text>
<text text-anchor="start" x="310" y="-95.8" font-family="Times New Roman,serif" font-size="14.00">jsonOut</text>
<text text-anchor="start" x="293" y="-81.8" font-family="Times New Roman,serif" font-style="italic" font-size="14.00" fill="red">child_process</text>
<text text-anchor="start" x="314" y="-67.8" font-family="Times New Roman,serif" font-size="14.00">spawn</text>
<text text-anchor="start" x="327.5" y="-53.8" font-family="Times New Roman,serif" font-style="italic" font-size="14.00" fill="red">fs</text>
<text text-anchor="start" x="327" y="-39.8" font-family="Times New Roman,serif" font-size="14.00">fs</text>
<text text-anchor="start" x="319" y="-25.8" font-family="Times New Roman,serif" font-style="italic" font-size="14.00" fill="red">path</text>
<text text-anchor="start" x="320" y="-11.8" font-family="Times New Roman,serif" font-size="14.00">path</text>
<polygon fill="none" stroke="black" points="231.5,-4 231.5,-474 433.5,-474 433.5,-4 231.5,-4"/>
</g>
</g>
</svg>
