<?xml version="1.0" encoding="UTF-8" standalone="no"?>
<!DOCTYPE svg PUBLIC "-//W3C//DTD SVG 1.1//EN"
 "http://www.w3.org/Graphics/SVG/1.1/DTD/svg11.dtd">
<!-- Generated by graphviz version 3.0.0 (20220226.1711)
 -->
<!-- Pages: 1 -->
<svg width="215pt" height="426pt"
 viewBox="0.00 0.00 215.00 426.00" xmlns="http://www.w3.org/2000/svg" xmlns:xlink="http://www.w3.org/1999/xlink">
<g id="graph0" class="graph" transform="scale(1 1) rotate(0) translate(4 422)">
<polygon fill="white" stroke="transparent" points="-4,4 -4,-422 211,-422 211,4 -4,4"/>
<text text-anchor="middle" x="103.5" y="-402.8" font-family="Times New Roman,serif" font-size="14.00">Node Modules Dependencies</text>
<!-- node&#45;modules -->
<g id="node1" class="node">
<title>node&#45;modules</title>
<polygon fill="none" stroke="black" points="30.5,-116 30.5,-137 176.5,-137 176.5,-116 30.5,-116"/>
<text text-anchor="start" x="61" y="-123.8" font-family="Times New Roman,serif" font-weight="bold" font-size="14.00">node&#45;modules</text>
<polygon fill="none" stroke="black" points="30.5,-5 30.5,-116 176.5,-116 176.5,-5 30.5,-5"/>
<text text-anchor="start" x="33.5" y="-101.8" font-family="Times New Roman,serif" font-size="14.00">@typescript&#45;eslint/parser</text>
<text text-anchor="start" x="64" y="-86.8" font-family="Times New Roman,serif" font-size="14.00">child_process</text>
<text text-anchor="start" x="70" y="-71.8" font-family="Times New Roman,serif" font-size="14.00">commander</text>
<text text-anchor="start" x="75.5" y="-56.8" font-family="Times New Roman,serif" font-size="14.00">estraverse</text>
<text text-anchor="start" x="98" y="-41.8" font-family="Times New Roman,serif" font-size="14.00">fs</text>
<text text-anchor="start" x="91" y="-26.8" font-family="Times New Roman,serif" font-size="14.00">path</text>
<text text-anchor="start" x="96" y="-11.8" font-family="Times New Roman,serif" font-size="14.00">url</text>
<polygon fill="none" stroke="black" points="29.5,-4 29.5,-138 177.5,-138 177.5,-4 29.5,-4"/>
</g>
<!-- modules -->
<g id="node2" class="node">
<title>modules</title>
<polygon fill="none" stroke="black" points="9.5,-368.5 9.5,-389.5 198.5,-389.5 198.5,-368.5 9.5,-368.5"/>
<text text-anchor="start" x="78.5" y="-376.3" font-family="Times New Roman,serif" font-weight="bold" font-size="14.00">modules</text>
<polygon fill="none" stroke="black" points="9.5,-182.5 9.5,-368.5 198.5,-368.5 198.5,-182.5 9.5,-182.5"/>
<text text-anchor="start" x="69" y="-354.3" font-family="Times New Roman,serif" font-size="14.00">dep&#45;graph.js</text>
<text text-anchor="start" x="17" y="-339.3" font-family="Times New Roman,serif" font-size="14.00">DependencyGraphGenerator.js</text>
<text text-anchor="start" x="45.5" y="-324.3" font-family="Times New Roman,serif" font-size="14.00">ast/ASTProcessor.js</text>
<text text-anchor="start" x="45.5" y="-309.3" font-family="Times New Roman,serif" font-size="14.00">ast/BaseProcessor.js</text>
<text text-anchor="start" x="43.5" y="-294.3" font-family="Times New Roman,serif" font-size="14.00">ast/ClassProcessor.js</text>
<text text-anchor="start" x="40" y="-279.3" font-family="Times New Roman,serif" font-size="14.00">ast/ExportProcessor.js</text>
<text text-anchor="start" x="40" y="-264.3" font-family="Times New Roman,serif" font-size="14.00">ast/ImportProcessor.js</text>
<text text-anchor="start" x="12.5" y="-249.3" font-family="Times New Roman,serif" font-size="14.00">generators/DiagramsGenerator.js</text>
<text text-anchor="start" x="33" y="-234.3" font-family="Times New Roman,serif" font-size="14.00">graphs/RelationsGraph.js</text>
<text text-anchor="start" x="62.5" y="-219.3" font-family="Times New Roman,serif" font-size="14.00">utils/file&#45;utils.js</text>
<text text-anchor="start" x="72.5" y="-204.3" font-family="Times New Roman,serif" font-size="14.00">utils/json.js</text>
<text text-anchor="start" x="63" y="-189.3" font-family="Times New Roman,serif" font-size="14.00">utils/list&#45;utils.js</text>
<polygon fill="none" stroke="black" points="8,-182 8,-391 199,-391 199,-182 8,-182"/>
</g>
<!-- modules&#45;&gt;node&#45;modules -->
<g id="edge1" class="edge">
<title>modules&#45;&gt;node&#45;modules</title>
<path fill="none" stroke="black" d="M103.5,-177.81C103.5,-169.19 103.5,-160.58 103.5,-152.2"/>
<polygon fill="black" stroke="black" points="107,-152.11 103.5,-142.11 100,-152.11 107,-152.11"/>
</g>
</g>
</svg>
