<?xml version="1.0" encoding="UTF-8" standalone="no"?>
<!DOCTYPE svg PUBLIC "-//W3C//DTD SVG 1.1//EN"
 "http://www.w3.org/Graphics/SVG/1.1/DTD/svg11.dtd">
<!-- Generated by graphviz version 3.0.0 (20220226.1711)
 -->
<!-- Pages: 1 -->
<svg width="509pt" height="401pt"
 viewBox="0.00 0.00 508.95 401.00" xmlns="http://www.w3.org/2000/svg" xmlns:xlink="http://www.w3.org/1999/xlink">
<g id="graph0" class="graph" transform="scale(1 1) rotate(0) translate(4 397)">
<polygon fill="white" stroke="transparent" points="-4,4 -4,-397 504.95,-397 504.95,4 -4,4"/>
<g id="node1" class="node">
<title></title>
<g id="a_node1_0"><a xlink:href="diagrams.html#base" xlink:title="&lt;TABLE&gt;" target="_top">
<polygon fill="none" stroke="black" points="216.5,-366.5 216.5,-387.5 396.5,-387.5 396.5,-366.5 216.5,-366.5"/>
<text text-anchor="start" x="302.5" y="-373.3" font-family="Times New Roman,serif" font-size="14.00">./</text>
</a>
</g>
<polygon fill="none" stroke="black" points="216.5,-330.5 216.5,-366.5 396.5,-366.5 396.5,-330.5 216.5,-330.5"/>
<text text-anchor="start" x="271.5" y="-352.3" font-family="Times New Roman,serif" font-size="14.00">dep&#45;graph.js</text>
<text text-anchor="start" x="219.5" y="-337.3" font-family="Times New Roman,serif" font-size="14.00">DependencyGraphGenerator.js</text>
<polygon fill="none" stroke="black" points="215.5,-330 215.5,-389 397.5,-389 397.5,-330 215.5,-330"/>
</g>
<!-- ast -->
<g id="node2" class="node">
<title>ast</title>
<g id="a_node2_1"><a xlink:href="diagrams.html#ast" xlink:title="&lt;TABLE&gt;" target="_top">
<polygon fill="none" stroke="black" points="9.5,-264 9.5,-285 124.5,-285 124.5,-264 9.5,-264"/>
<text text-anchor="start" x="59" y="-270.8" font-family="Times New Roman,serif" font-size="14.00">ast</text>
</a>
</g>
<polygon fill="none" stroke="black" points="9.5,-153 9.5,-264 124.5,-264 124.5,-153 9.5,-153"/>
<text text-anchor="start" x="18.5" y="-249.8" font-family="Times New Roman,serif" font-size="14.00">ASTProcessor.js</text>
<text text-anchor="start" x="18.5" y="-234.8" font-family="Times New Roman,serif" font-size="14.00">BaseProcessor.js</text>
<text text-anchor="start" x="16.5" y="-219.8" font-family="Times New Roman,serif" font-size="14.00">ClassProcessor.js</text>
<text text-anchor="start" x="20" y="-204.8" font-family="Times New Roman,serif" font-size="14.00">ErrorCollector.js</text>
<text text-anchor="start" x="12.5" y="-189.8" font-family="Times New Roman,serif" font-size="14.00">ExportProcessor.js</text>
<text text-anchor="start" x="12.5" y="-174.8" font-family="Times New Roman,serif" font-size="14.00">ImportProcessor.js</text>
<text text-anchor="start" x="14.5" y="-159.8" font-family="Times New Roman,serif" font-size="14.00">UsageProcessor.js</text>
<polygon fill="none" stroke="black" points="8,-152 8,-286 125,-286 125,-152 8,-152"/>
</g>
<!-- &#45;&gt;ast -->
<g id="edge1" class="edge">
<title>&#45;&gt;ast</title>
<path fill="none" stroke="black" d="M211.51,-325.85C187.8,-315.9 163.01,-303.86 141.5,-290 141.41,-289.94 141.32,-289.89 141.23,-289.83"/>
<polygon fill="black" stroke="black" points="143.23,-286.96 133.01,-284.19 139.28,-292.73 143.23,-286.96"/>
</g>
<!-- generators -->
<g id="node3" class="node">
<title>generators</title>
<g id="a_node3_2"><a xlink:href="diagrams.html#generators" xlink:title="&lt;TABLE&gt;" target="_top">
<polygon fill="none" stroke="black" points="160.5,-226 160.5,-247 287.5,-247 287.5,-226 160.5,-226"/>
<text text-anchor="start" x="195" y="-232.8" font-family="Times New Roman,serif" font-size="14.00">generators</text>
</a>
</g>
<polygon fill="none" stroke="black" points="160.5,-190 160.5,-226 287.5,-226 287.5,-190 160.5,-190"/>
<text text-anchor="start" x="163.5" y="-211.8" font-family="Times New Roman,serif" font-size="14.00">DiagramsGenerator.js</text>
<text text-anchor="start" x="176" y="-196.8" font-family="Times New Roman,serif" font-size="14.00">HtmlGenerator.js</text>
<polygon fill="none" stroke="black" points="159,-189.5 159,-248.5 288,-248.5 288,-189.5 159,-189.5"/>
</g>
<!-- &#45;&gt;generators -->
<g id="edge2" class="edge">
<title>&#45;&gt;generators</title>
<path fill="none" stroke="black" d="M286.83,-325.68C275.3,-306.45 260.64,-281.97 248.32,-261.42"/>
<polygon fill="black" stroke="black" points="251.17,-259.37 243.03,-252.59 245.17,-262.96 251.17,-259.37"/>
</g>
<!-- graphs -->
<g id="node4" class="node">
<title>graphs</title>
<g id="a_node4_3"><a xlink:href="diagrams.html#graphs" xlink:title="&lt;TABLE&gt;" target="_top">
<polygon fill="none" stroke="black" points="323.5,-256 323.5,-277 457.5,-277 457.5,-256 323.5,-256"/>
<text text-anchor="start" x="371.5" y="-262.8" font-family="Times New Roman,serif" font-size="14.00">graphs</text>
</a>
</g>
<polygon fill="none" stroke="black" points="323.5,-160 323.5,-256 457.5,-256 457.5,-160 323.5,-160"/>
<text text-anchor="start" x="345" y="-241.8" font-family="Times New Roman,serif" font-size="14.00">ClassDiagram.js</text>
<text text-anchor="start" x="347" y="-226.8" font-family="Times New Roman,serif" font-size="14.00">ExportGraph.js</text>
<text text-anchor="start" x="352.5" y="-211.8" font-family="Times New Roman,serif" font-size="14.00">GraphBase.js</text>
<text text-anchor="start" x="326.5" y="-196.8" font-family="Times New Roman,serif" font-size="14.00">NodeModulesGraph.js</text>
<text text-anchor="start" x="343" y="-181.8" font-family="Times New Roman,serif" font-size="14.00">PackageGraph.js</text>
<text text-anchor="start" x="340.5" y="-166.8" font-family="Times New Roman,serif" font-size="14.00">RelationsGraph.js</text>
<polygon fill="none" stroke="black" points="322.5,-159.5 322.5,-278.5 458.5,-278.5 458.5,-159.5 322.5,-159.5"/>
</g>
<!-- &#45;&gt;graphs -->
<g id="edge4" class="edge">
<title>&#45;&gt;graphs</title>
<path fill="none" stroke="black" d="M326.41,-325.68C332.69,-315.31 339.9,-303.43 347.16,-291.46"/>
<polygon fill="black" stroke="black" points="350.25,-293.11 352.45,-282.74 344.27,-289.48 350.25,-293.11"/>
</g>
<!-- utils -->
<g id="node5" class="node">
<title>utils</title>
<g id="a_node5_4"><a xlink:href="diagrams.html#utils" xlink:title="&lt;TABLE&gt;" target="_top">
<polygon fill="none" stroke="black" points="275.5,-86 275.5,-107 338.5,-107 338.5,-86 275.5,-86"/>
<text text-anchor="start" x="295.5" y="-92.8" font-family="Times New Roman,serif" font-size="14.00">utils</text>
</a>
</g>
<polygon fill="none" stroke="black" points="275.5,-5 275.5,-86 338.5,-86 338.5,-5 275.5,-5"/>
<text text-anchor="start" x="278.5" y="-71.8" font-family="Times New Roman,serif" font-size="14.00">file&#45;utils.js</text>
<text text-anchor="start" x="280.5" y="-56.8" font-family="Times New Roman,serif" font-size="14.00">globals.js</text>
<text text-anchor="start" x="285.5" y="-41.8" font-family="Times New Roman,serif" font-size="14.00">index.js</text>
<text text-anchor="start" x="288.5" y="-26.8" font-family="Times New Roman,serif" font-size="14.00">json.js</text>
<text text-anchor="start" x="279" y="-11.8" font-family="Times New Roman,serif" font-size="14.00">list&#45;utils.js</text>
<polygon fill="none" stroke="black" points="274,-4 274,-108 339,-108 339,-4 274,-4"/>
</g>
<!-- &#45;&gt;utils -->
<g id="edge3" class="edge">
<title>&#45;&gt;utils</title>
<path fill="none" stroke="black" d="M405.67,-339.92C432.82,-329.8 459.23,-314.16 475.5,-290 510.76,-237.66 507.86,-202.18 475.5,-148 450.01,-105.32 396.82,-81.48 356.89,-69.01"/>
<polygon fill="black" stroke="black" points="357.89,-65.66 347.3,-66.16 355.89,-72.37 357.89,-65.66"/>
</g>
<!-- ast&#45;&gt;utils -->
<g id="edge5" class="edge">
<title>ast&#45;&gt;utils</title>
<path fill="none" stroke="black" d="M133.28,-154.21C136.01,-152.06 138.76,-149.99 141.5,-148 177.93,-121.58 222.85,-97.28 256.62,-80.44"/>
<polygon fill="black" stroke="black" points="258.42,-83.46 265.84,-75.9 255.32,-77.18 258.42,-83.46"/>
</g>
<!-- generators&#45;&gt;utils -->
<g id="edge6" class="edge">
<title>generators&#45;&gt;utils</title>
<path fill="none" stroke="black" d="M240.3,-185.42C249.83,-166.93 262.1,-143.13 273.48,-121.05"/>
<polygon fill="black" stroke="black" points="276.65,-122.54 278.12,-112.04 270.43,-119.33 276.65,-122.54"/>
</g>
<!-- graphs&#45;&gt;utils -->
<g id="edge7" class="edge">
<title>graphs&#45;&gt;utils</title>
<path fill="none" stroke="black" d="M357.78,-155.29C351.93,-144.08 345.83,-132.37 339.95,-121.12"/>
<polygon fill="black" stroke="black" points="343.03,-119.45 335.3,-112.2 336.83,-122.69 343.03,-119.45"/>
</g>
</g>
</svg>
